<svg xmlns="http://www.w3.org/2000/svg" viewBox="0 0 179.17 254.38"><defs><style>.cls-1{isolation:isolate;}.cls-2{fill:#133441;}.cls-3{mix-blend-mode:multiply;}.cls-4{fill:#dbdacb;}.cls-5{fill:#ea9231;}.cls-6{mix-blend-mode:soft-light;}.cls-7{fill:#9e978e;}.cls-8{fill:#ffe5ba;}.cls-9{fill:#ede7df;}.cls-10{fill:#eaae4c;}.cls-11{fill:#ffcb76;}.cls-12{fill:#ea983b;}.cls-13{fill:#f5e0bf;}.cls-14{fill:#ccc3b7;}.cls-15{mix-blend-mode:overlay;}.cls-16{fill:#999288;}.cls-17{fill:#fff;}.cls-18{fill:#ee927e;}.cls-19{fill:#ab1700;}.cls-20{fill:#fd6c6c;}</style></defs><g class="cls-1"><g id="Calque_2" data-name="Calque 2"><g id="Cacahuete_en_attente"><path class="cls-2" d="M148.12,142c-7.29,0-15.19-4.35-23.54-13a2.33,2.33,0,1,1,3.35-3.23c8.61,8.9,16.33,12.69,23,11.28,9.5-2,14-14.34,14.09-14.46a2.33,2.33,0,1,1,4.38,1.57c-.22.6-5.44,14.84-17.47,17.43A17.62,17.62,0,0,1,148.12,142Z"/><path class="cls-2" d="M177.22,122.83c.23-.1.46-.2.69-.32a2.33,2.33,0,1,0-2.14-4.13h0a12.5,12.5,0,0,1-5.66,1.29,14.06,14.06,0,0,1-1.55-.09,4.44,4.44,0,0,1-1-1.31,2.65,2.65,0,0,1-.28-1.13,2.29,2.29,0,0,1,.09-.63.52.52,0,0,1,.05-.12h0a2.32,2.32,0,0,0-4.15-2.09h0a4.91,4.91,0,0,0-.35.9,7,7,0,0,0-.28,2,7.21,7.21,0,0,0,.75,3.18,9.15,9.15,0,0,0,2.24,2.86,16.31,16.31,0,0,0,4.78,6.79,11.57,11.57,0,0,0,3.38,2,2.32,2.32,0,0,0,1.57-4.37h0a8.85,8.85,0,0,1-1.16-.64,15.8,15.8,0,0,0,2.38.42,2.32,2.32,0,0,0,.67-4.59Z"/><path class="cls-2" d="M30.23,141.76a18,18,0,0,1-4.53-.57c-11.47-3-15.75-16.55-15.92-17.12a2.33,2.33,0,0,1,4.45-1.37c0,.11,3.71,11.66,12.67,14,6.72,1.75,14.93-1.95,24.41-11a2.33,2.33,0,1,1,3.21,3.37C45.67,137.52,37.52,141.76,30.23,141.76Z"/><path class="cls-2" d="M16.28,115.19a5.84,5.84,0,0,0-.35-.9,2.33,2.33,0,0,0-4.16,2.09h0l0,.06a2.17,2.17,0,0,1,.11.7,2.48,2.48,0,0,1-.27,1.13,4.34,4.34,0,0,1-1,1.31,13.69,13.69,0,0,1-1.54.09,12.48,12.48,0,0,1-5.66-1.29,2.33,2.33,0,1,0-2.14,4.13h0c.23.12.46.22.69.32a2.32,2.32,0,0,0,.67,4.59A17.17,17.17,0,0,0,5,127c-.26.17-.49.3-.68.4s-.32.16-.4.2l-.08,0h0A2.32,2.32,0,0,0,5.41,132a11.57,11.57,0,0,0,3.38-2,16.31,16.31,0,0,0,4.78-6.79,9.45,9.45,0,0,0,2.24-2.86,7.21,7.21,0,0,0,.75-3.18A7,7,0,0,0,16.28,115.19Zm-4.5,1.2Zm0,0Z"/><g class="cls-3"><ellipse class="cls-4" cx="90.84" cy="242.6" rx="77.54" ry="11.78"/></g><path class="cls-2" d="M111.89,242.9h-.15a11.55,11.55,0,0,1-6.18-1.94,2.33,2.33,0,0,1-.89-1.94l1.22-27.38a2.33,2.33,0,0,1,4.65.21l-1.15,25.89a10,10,0,0,0,2.66.51,2.33,2.33,0,0,1-.16,4.65Z"/><path class="cls-2" d="M65.7,242.9a2.33,2.33,0,0,1-.16-4.65,10,10,0,0,0,2.66-.51l-1.15-25.89a2.33,2.33,0,0,1,2.22-2.43,2.35,2.35,0,0,1,2.43,2.22L72.92,239A2.36,2.36,0,0,1,72,241a11.55,11.55,0,0,1-6.18,1.94Z"/><path class="cls-5" d="M141.13,68.08c0-22.5-10.52-37.82-23.69-47.7-12.61-9.47-51.61-26.67-51.61-4.73,0,6.13-26.57,19-26.57,52.43s18.81,37.22,18.81,49c0,12.49-22.72,20.5-22.72,57,0,23,19.71,41.45,54.84,41.45s50.67-18.09,50.67-41.45c0-33.22-17.88-41.71-18.54-58.9C121.8,101.53,141.13,97.76,141.13,68.08Z"/><g class="cls-6"><ellipse class="cls-7" cx="92.52" cy="54.23" rx="40.86" ry="34.64"/></g><g class="cls-6"><ellipse class="cls-7" cx="78.42" cy="43.55" rx="24.32" ry="20.61"/></g><g class="cls-6"><ellipse class="cls-7" cx="87.98" cy="166.13" rx="45.4" ry="37.13"/></g><g class="cls-6"><path class="cls-8" d="M135.07,169.8a3,3,0,0,1-1.92-1.94c-.8-2.56-1.69-5.14-2.65-7.75-1.1-3-2.28-6.05-3.45-9.15a2.45,2.45,0,0,1,2.78-3.25c5.44,1.09,8.89,1.54,9.35.29.29-.83-1.06-2-3.68-3.4-.66-.36-1.39-.73-2.2-1.11s-1.71-.72-2.67-1.09c-1.77-.7-3.76-1.45-6-2.1l-1.86-1.88a71.83,71.83,0,0,1-2.28-11.17,2.76,2.76,0,0,1,3.06-3c1.74.17,2.87,0,3.22-.77.43-.94-.88-2.38-3.5-3.93a5.18,5.18,0,0,1-2.44-5.47l0-.13a45.47,45.47,0,0,1,3.06-9.29c1.12-2.68,2.41-5.44,3.53-8.35h0l1.32-.47c9-3.32,14.54-6.63,13.89-8.24-.45-1.13-3.36-.78-7.94.29a3.06,3.06,0,0,1-3.69-3.59v0a80.07,80.07,0,0,0,1.5-10.67c.07-1,.11-2,.14-3a6.08,6.08,0,0,1,3.54-5.34c5.23-2.41,8.13-4.53,7.67-5.65-.38-.91-2.53-.77-6,0a5.19,5.19,0,0,1-6.21-4.26c-.13-.76-.26-1.52-.41-2.28a80.37,80.37,0,0,0-2.52-9.4c-.48-1.37-1-2.7-1.51-4a5.41,5.41,0,0,1,1.92-6.28c2.65-1.77,4-3.2,3.56-4.05s-2.75-.66-6.34.38a4.78,4.78,0,0,1-5.33-2l0,0A68.35,68.35,0,0,0,103,8.51c-.44-.3-.87-.58-1.29-.85a1.27,1.27,0,0,0-.35-.5,2.35,2.35,0,0,0-1.27-.54H100C96.41,4.56,94.14,4,93.8,4.52S94.35,6,96,7.54a.06.06,0,0,1,0,.1c-.73.32-1.51.7-2.33,1.14-1.86,1-3.9,2.25-6.06,3.44a5.36,5.36,0,0,1-6.4-.91c-.76-.76-1.5-1.47-2.21-2.1-1.21-1-2.3-2-3.26-2.71h0c-1-.7-1.91-1.26-2.65-1.69C71.55,4,70.64,3.67,70.36,4s.13,1.23,1.13,2.56C72,7.24,72.64,8,73.42,8.9h0c.73.94,1.58,2,2.54,3.15.4.49.82,1,1.24,1.57a1.62,1.62,0,0,1-1,2.6c-.93.15-1.87.29-2.81.41-1.34.18-2.65.37-3.89.57a1.63,1.63,0,0,1-1.88-1.65,25,25,0,0,0-.38-5.32c-.37-1.69-.82-2.54-1.25-2.5-.95.08-1.14,3.53-2.54,9.26-.13.53-.27,1.09-.43,1.67a0,0,0,0,1,0,0c-2.18.77-3.45,1.71-3.32,2.94a1.46,1.46,0,0,0,.18.58,5.84,5.84,0,0,1,.62,4.72l-.12.34C59,31.2,57.27,35.64,55.44,40.59c-.39,1-.95,2.66-1.45,4.09a4.75,4.75,0,0,1-4.33,3.2l-8.14.28c-2.64.1-4.26.33-4.49,1.21s1.15,1.93,3.87,2.86a35.12,35.12,0,0,0,6.93,1.45,2.91,2.91,0,0,1,2.51,3.5h0a55.6,55.6,0,0,0-1.27,9.73q0,.63,0,1.26a4.56,4.56,0,0,1-4.5,4.48c-6.35.1-10.32.41-10.49,1.77C33.87,76,39.31,77.57,48,78.51a3.56,3.56,0,0,1,3,2.41,60.74,60.74,0,0,0,2.64,6.54c.43.93,1.23,2.55,2,4.2a3.47,3.47,0,0,1-3.23,5c-5.09-.19-8.28,0-8.53,1.23-.5,2.5,10.28,4.55,15.54,5.38a4.45,4.45,0,0,1,3.36,2.57v0c.63,1.41,1.22,2.82,1.73,4.24A4.51,4.51,0,0,1,62,115.75l-.08,0a17.63,17.63,0,0,0-2.19,1,22.36,22.36,0,0,0-3.34,2c-1.73,1.39-2.47,2.5-2,3.28s1.78.87,3.72.48c1-.2,2.18-.37,3.48-.71.65-.18,1.37-.29,2.11-.44s1.53-.32,2.33-.5l.76-.14c0,.37,0,.73-.06,1.1s0,.75-.06,1.13h0l-.18,1.14a37.39,37.39,0,0,1-2.73,9.08c-.48,1.13-1,2.25-1.51,3.38a6,6,0,0,1-3.9,3.25h0c-2.83.71-5.43,1.59-7.83,2.39s-4.54,1.71-6.44,2.49a39.05,39.05,0,0,0-4.79,2.35c-2.58,1.48-3.9,2.67-3.58,3.5s2.11.89,5,.37c1.44-.26,3.14-.67,5.1-1.11s4.11-1.08,6.5-1.61l.17,0a2.44,2.44,0,0,1,2.82,3.3l0,.05a61.91,61.91,0,0,0-4.14,14,2.92,2.92,0,0,1-2.35,2.35l-1.81.35C36,170.31,29,172.65,29.35,174.36s7.65,1.21,18.46,0l1-.12a1.28,1.28,0,0,1,1.42,1.26h0c0,1.52.06,3,.15,4.49a72.17,72.17,0,0,0,1,8.47c.12.66.24,1.3.38,1.94a3.34,3.34,0,0,1-3.76,4c-6.45-1-10.57-1.36-11,0-.53,1.71,5.55,4.55,15.16,7.05l2.77.69a1.54,1.54,0,0,1,1,.84,32.42,32.42,0,0,0,6.61,9.45,14.66,14.66,0,0,0,6.71,3.94c1.82.37,2.82,0,2.86-.39s-.73-.9-2-1.77a21,21,0,0,1-4.57-4.54,27.73,27.73,0,0,1-2.27-3.51,1.43,1.43,0,0,1,1.46-2.11c1.35.2,2.74.38,4.16.52.81.07,1.6.16,2.44.19s1.68.09,2.46.1l4.81.08c3.24,0,6.53,0,9.83,0,1.68,0,3.36-.08,5-.15a1.52,1.52,0,0,1,1.54,1.84A33.59,33.59,0,0,1,94.2,210c-1.79,5.49-4.14,8.11-3.45,8.83.16.15.45.14.9,0a6.66,6.66,0,0,0,1.71-1.1A19.54,19.54,0,0,0,98,211.59a32,32,0,0,0,2.39-6.14,1.51,1.51,0,0,1,1.34-1.1c2.1-.14,4.19-.3,6.21-.5a146,146,0,0,0,16.78-2.58c1.3-.29,2.54-.58,3.7-.88a1.45,1.45,0,0,1,1.77,1.72v0c-1.27,5.68-3,8.74-2.21,9.3.35.24,1.18-.26,2.35-1.56a22.9,22.9,0,0,0,3.78-6.51,33.75,33.75,0,0,0,1.62-5.31l.51-.21c2.69-1.14,4.11-2.21,3.89-3.08s-1.49-1-3.66-1a0,0,0,0,1,0,0c.07-.59.13-1.2.17-1.82a55.85,55.85,0,0,0-1.09-15c-.1-.51-.21-1-.33-1.54,0,0,0,0,0,0,5.78.9,9.4,1.3,9.81.05S141.66,171.93,135.07,169.8Zm-32-5.39a2.85,2.85,0,0,1-2.67-2.47c-.56-4.14-1.17-8.38-1.72-12.69-.27-2.12-.53-4.26-.75-6.42a0,0,0,0,1,0,0c2.81.14,5.58.36,8.26.65l4.42.61,2.14.29,2.08.38,1.28.22a2.41,2.41,0,0,1,1.87,1.59c2,5.69,4.23,11,6.18,16l0,.05a2.86,2.86,0,0,1-3.15,3.85c-3.73-.64-7.76-1.16-12-1.58Q106.12,164.56,103.05,164.41Zm-6-35.06q-.08-3.8.17-7.6a2.14,2.14,0,0,1,2.39-2c4.21.53,8.21,1.26,11.76,2a2.13,2.13,0,0,1,1.69,2v0a67.26,67.26,0,0,0,1.51,11,2.09,2.09,0,0,1-2.38,2.52l-.46-.08c-1.52-.25-3.07-.52-4.65-.75-2.56-.33-5.2-.59-7.89-.76a2.13,2.13,0,0,1-2-2C97.11,132.26,97.06,130.8,97,129.35Zm5.25-52.07A2.28,2.28,0,0,1,104.13,75c2.31-.46,4.58-.94,6.79-1.46,4.11-1,8-2.08,11.62-3.19a2.28,2.28,0,0,1,3,2.3l0,.38a75.12,75.12,0,0,1-1.39,9.69,64.82,64.82,0,0,1-2,7.28,2.26,2.26,0,0,1-1.62,1.48l-.82.2c-2.57.69-5.32,1.22-8.13,1.89-2.51.51-5.1,1-7.73,1.43a2.27,2.27,0,0,1-2.65-2.54c.2-1.5.39-3,.54-4.51a100.12,100.12,0,0,0,.6-10.67ZM58.35,72.5a2.21,2.21,0,0,1-2.26-2.06A46.46,46.46,0,0,1,57,58.53c.18-.94.38-1.86.59-2.78A2.23,2.23,0,0,1,59.65,54c2.89-.13,5.95-.38,9.1-.77A154.16,154.16,0,0,0,87,49.69c1.12-.28,2.23-.57,3.34-.87l2.77,1.77a141,141,0,0,1,1.77,16.83v0a2.19,2.19,0,0,1-1.86,2.27c-1.2.19-2.41.37-3.62.54-6.83.89-13.7,1.51-20.15,1.87C65.46,72.29,61.79,72.42,58.35,72.5ZM99.49,47.64h0a1.6,1.6,0,0,1,1.07-1.85,184.8,184.8,0,0,0,17.55-6.67,1.57,1.57,0,0,1,2.09.82q1.15,2.79,2.12,5.77a80.46,80.46,0,0,1,2.15,8.59c.41,2.32.73,4.69.94,7.11a1.57,1.57,0,0,1-1.16,1.65c-4.47,1.2-9.53,2.42-14.9,3.64l-3.49.73a3.45,3.45,0,0,1-4.1-3.12A125.58,125.58,0,0,0,99.49,47.64ZM98.64,109l.48-3.12a4,4,0,0,1,3.33-3.34c3.64-.59,7.2-1.27,10.6-2l2.58-.65a1.47,1.47,0,0,1,1.71,2v0a52.6,52.6,0,0,0-3.49,10.7v0a2.69,2.69,0,0,1-3.32,2.08,92,92,0,0,0-9.75-1.92,2.62,2.62,0,0,1-2.24-3C98.56,109.48,98.6,109.22,98.64,109Zm3.72-95.31a87.43,87.43,0,0,1,12.32,15.49,3.44,3.44,0,0,1-1.81,5c-3.76,1.31-7.9,2.73-12.25,4.13a3.49,3.49,0,0,1-4.32-2.17,67.33,67.33,0,0,0-6.2-13.25,3.43,3.43,0,0,1,1.19-4.69,45.66,45.66,0,0,0,6.36-4.69A3.43,3.43,0,0,1,102.36,13.65Zm-41,29c1.6-5,3.09-9.59,4.18-13.81q.39-1.53.72-3A2.35,2.35,0,0,1,68.49,24c1.91-.05,3.9-.18,5.7-.34a48.81,48.81,0,0,0,7.08-1.13,2.35,2.35,0,0,1,2.63,1.14,72.5,72.5,0,0,1,4.53,9.5c.73,1.9,1.41,3.9,2,6A2.09,2.09,0,0,1,89,41.76c-1.25.34-2.5.67-3.76,1a171.52,171.52,0,0,1-17.46,3.53c-1.61.24-3.19.44-4.74.62a2.09,2.09,0,0,1-2.22-2.71C61,43.66,61.18,43.14,61.35,42.62ZM60.06,84.41a3.64,3.64,0,0,1,3.32-5.16c2,0,4.09,0,6.21-.09,6.66-.26,13.75-.89,20.8-1.8l1.74-.26a2.61,2.61,0,0,1,3,2.67c-.08,2.45-.27,4.94-.54,7.45-.23,2.13-.51,4.28-.82,6.44a3.68,3.68,0,0,1-3.32,3.13c-5,.43-10.07.65-14.83.71l-4.25,0c-2.33,0-2,0-2.59,0a3.65,3.65,0,0,1-3.08-2l-1-2c-1.6-3.05-3.18-6-4.56-9Zm11.25,23.3a2.41,2.41,0,0,1,2.34-3.23l1.93.07c4.28,0,8.77-.13,13.3-.46a2.62,2.62,0,0,1,2.79,3l-.12.79c-.08.54-.15,1.07-.23,1.61l-2.67,2.26a87.51,87.51,0,0,0-13.51.71,2.6,2.6,0,0,1-2.85-1.85C72,109.64,71.66,108.67,71.31,107.71Zm15.76,11.21a3,3,0,0,1,3,3.15c-.13,2.47-.18,4.94-.13,7.38q0,1.5.09,3a3,3,0,0,1-2.88,3.07h0A120.12,120.12,0,0,0,71.44,137a1,1,0,0,1-1-1.33,42.62,42.62,0,0,0,3.11-10.5l.23-1.44h0c0-.49.06-1,.08-1.48v0a3,3,0,0,1,2.69-2.85A100.06,100.06,0,0,1,87.07,118.92ZM61.68,154.25c1.11-2.64,2.4-5.29,3.74-8a2.46,2.46,0,0,1,1.74-1.31l1.32-.25a138.09,138.09,0,0,1,18.83-2l1.23,0A2.45,2.45,0,0,1,91,144.8c.21,1.81.44,3.61.68,5.38.5,3.63,1,7.17,1.57,10.61a2.85,2.85,0,0,1-2.81,3.28l-3.15,0c-7.42.16-14.81.64-21.7,1.35l-3.66.43a2.86,2.86,0,0,1-3.1-3.6A60.74,60.74,0,0,1,61.68,154.25ZM88.4,197.69c-3.22.07-6.45.07-9.63.07l-4.72,0c-.8,0-1.52,0-2.23-.05s-1.46-.1-2.18-.14c-2.77-.23-5.49-.57-8.09-.94a3.29,3.29,0,0,1-2.74-2.47,62.42,62.42,0,0,1-1.24-6.6,76.39,76.39,0,0,1-.65-7.8c0-1.36-.05-2.73,0-4.13v0a2.49,2.49,0,0,1,2.23-2.4l7.13-.7c6.75-.57,13.95-1,21.14-1.19,1.75,0,3.48,0,5.21,0a2.49,2.49,0,0,1,2.44,2.17c.55,4.32,1,8.44,1.17,12.3.11,1.3.12,2.55.16,3.78,0,.62,0,1.23.05,1.83s0,1.19,0,1.77c0,.41,0,.8,0,1.2a3.3,3.3,0,0,1-3.18,3.26C91.63,197.61,90,197.66,88.4,197.69Zm41-19.46a59,59,0,0,1,1.8,13.51V192a2.45,2.45,0,0,1-2.18,2.44l-5.39.66c-4.78.6-10.36,1.23-16.36,1.71l-1.44.11a3.33,3.33,0,0,1-3.57-3.52v0c0-.62.09-1.25.13-1.88s0-1.28,0-1.93c0-1.3.07-2.64,0-4,0-3.58-.27-7.34-.63-11.23a2.47,2.47,0,0,1,2.59-2.68c1.37.07,2.73.15,4.07.25,6.7.56,12.94,1.24,18.24,2.1h0a2.47,2.47,0,0,1,2,1.79Q129.11,177,129.41,178.23Z"/></g><g class="cls-3"><path class="cls-9" d="M135.19,171.53a2.94,2.94,0,0,1-1.91-1.94c-.8-2.55-1.69-5.14-2.65-7.75-1.1-3-2.29-6.05-3.45-9.14a2.45,2.45,0,0,1,2.78-3.26c5.44,1.09,8.89,1.55,9.34.29.3-.83-1.05-2-3.67-3.4-.66-.35-1.39-.72-2.2-1.11s-1.71-.72-2.67-1.09c-1.77-.69-3.76-1.44-6-2.09l-1.86-1.89A71.83,71.83,0,0,1,120.64,129a2.76,2.76,0,0,1,3-3c1.75.18,2.88,0,3.23-.77.43-.94-.88-2.38-3.51-3.92a5.23,5.23,0,0,1-2.44-5.48l0-.12a45.92,45.92,0,0,1,3-9.3c1.13-2.67,2.41-5.43,3.54-8.34l0,0,1.31-.47c9-3.32,14.55-6.63,13.9-8.24-.46-1.13-3.36-.77-7.94.3A3.06,3.06,0,0,1,131.19,86V86a79.84,79.84,0,0,0,1.5-10.67c.07-1,.11-2,.14-3a6.06,6.06,0,0,1,3.53-5.33c5.23-2.42,8.14-4.54,7.67-5.66-.37-.91-2.52-.76-6,0A5.21,5.21,0,0,1,131.81,57c-.12-.77-.26-1.53-.4-2.29a79.68,79.68,0,0,0-2.53-9.39c-.47-1.37-1-2.71-1.51-4A5.43,5.43,0,0,1,129.3,35c2.64-1.76,4-3.2,3.55-4.05s-2.74-.66-6.34.38a4.78,4.78,0,0,1-5.32-2l0,0a68.21,68.21,0,0,0-18.06-19.08c-.45-.31-.87-.58-1.3-.85a1.12,1.12,0,0,0-.34-.51,2.35,2.35,0,0,0-1.27-.54h-.12c-3.54-2-5.81-2.66-6.15-2.09s.54,1.46,2.16,3v.09c-.74.32-1.51.7-2.34,1.15-1.86,1-3.9,2.25-6,3.43a5.39,5.39,0,0,1-6.41-.9c-.75-.77-1.49-1.47-2.2-2.11-1.21-1-2.3-1.95-3.27-2.71h0a31.22,31.22,0,0,0-2.65-1.69c-1.48-.85-2.4-1.13-2.67-.79S70.62,7,71.62,8.31c.5.67,1.15,1.44,1.93,2.32h0c.72.94,1.57,2,2.54,3.15.4.49.82,1,1.24,1.57a1.62,1.62,0,0,1-1,2.6c-.93.15-1.88.29-2.81.42-1.34.18-2.65.36-3.89.56a1.62,1.62,0,0,1-1.88-1.65A24.93,24.93,0,0,0,67.37,12c-.37-1.69-.82-2.54-1.26-2.51-1,.08-1.13,3.53-2.53,9.26-.13.54-.28,1.1-.43,1.67l0,0c-2.18.76-3.45,1.7-3.32,2.93a1.41,1.41,0,0,0,.18.58,5.9,5.9,0,0,1,.62,4.73l-.12.33c-1.37,3.95-3.09,8.38-4.92,13.33-.39,1-1,2.67-1.45,4.1a4.74,4.74,0,0,1-4.33,3.19l-8.14.28c-2.64.1-4.26.33-4.49,1.21S38.31,53,41,54A34.88,34.88,0,0,0,48,55.41a2.91,2.91,0,0,1,2.51,3.5,55.71,55.71,0,0,0-1.27,9.74c0,.41,0,.83,0,1.25a4.56,4.56,0,0,1-4.51,4.48c-6.34.1-10.32.42-10.48,1.78-.19,1.52,5.26,3.15,13.93,4.08a3.56,3.56,0,0,1,3,2.41,64.22,64.22,0,0,0,2.64,6.54c.44.94,1.23,2.56,2,4.2a3.47,3.47,0,0,1-3.22,5c-5.1-.2-8.28,0-8.53,1.22-.5,2.51,10.28,4.55,15.54,5.39A4.43,4.43,0,0,1,63,107.58v0c.63,1.41,1.21,2.83,1.73,4.25a4.51,4.51,0,0,1-2.58,5.64l-.09,0a19.07,19.07,0,0,0-2.18,1,22.51,22.51,0,0,0-3.35,2c-1.72,1.4-2.46,2.5-2,3.28s1.79.87,3.73.48c1-.2,2.18-.37,3.48-.7.65-.18,1.37-.3,2.11-.45s1.53-.32,2.33-.5l.75-.14c0,.37,0,.74,0,1.1s0,.76-.06,1.13h0l-.18,1.13a37.13,37.13,0,0,1-2.73,9.08c-.48,1.13-1,2.26-1.51,3.38a5.94,5.94,0,0,1-3.9,3.25h0c-2.82.71-5.42,1.59-7.83,2.39s-4.54,1.71-6.44,2.49a39.58,39.58,0,0,0-4.78,2.35c-2.58,1.48-3.9,2.68-3.58,3.5s2.11.89,5,.37c1.44-.26,3.14-.67,5.1-1.1s4.11-1.09,6.5-1.61l.17,0a2.44,2.44,0,0,1,2.82,3.3l0,0a62.61,62.61,0,0,0-4.15,14,2.89,2.89,0,0,1-2.34,2.35l-1.81.35c-10.85,2.11-17.87,4.46-17.54,6.16s7.66,1.21,18.47,0l1-.12a1.28,1.28,0,0,1,1.42,1.26h0c0,1.52.06,3,.14,4.49a74.06,74.06,0,0,0,1,8.47c.11.66.24,1.3.38,1.94a3.34,3.34,0,0,1-3.77,4c-6.44-1-10.56-1.36-11,0-.53,1.71,5.55,4.54,15.15,7l2.78.68a1.59,1.59,0,0,1,1,.84,32.42,32.42,0,0,0,6.61,9.45,14.66,14.66,0,0,0,6.71,3.94c1.82.38,2.81,0,2.86-.38s-.73-.9-2-1.78a20.89,20.89,0,0,1-4.57-4.53,29.25,29.25,0,0,1-2.27-3.51A1.44,1.44,0,0,1,65,205.82c1.35.2,2.74.38,4.16.53.81.06,1.6.15,2.44.19s1.68.08,2.45.09l4.82.09c3.24,0,6.53,0,9.83-.06,1.68,0,3.35-.08,5-.15a1.52,1.52,0,0,1,1.54,1.85c-.28,1.21-.59,2.34-.92,3.35-1.8,5.5-4.14,8.12-3.45,8.83.15.16.45.15.89,0a6.42,6.42,0,0,0,1.72-1.1,19.54,19.54,0,0,0,4.62-6.08,31.72,31.72,0,0,0,2.38-6.14,1.51,1.51,0,0,1,1.35-1.09c2.1-.15,4.18-.31,6.21-.51A146.31,146.31,0,0,0,124.83,203c1.3-.28,2.53-.58,3.69-.88a1.46,1.46,0,0,1,1.78,1.72v0c-1.27,5.68-3,8.74-2.2,9.3.35.25,1.18-.26,2.35-1.56a23,23,0,0,0,3.78-6.51,34.49,34.49,0,0,0,1.62-5.31l.51-.21c2.69-1.14,4.11-2.21,3.89-3.08s-1.49-1-3.66-1l0,0c.07-.6.12-1.21.17-1.83a55.9,55.9,0,0,0-1.09-15c-.1-.51-.22-1-.33-1.53l0,0c5.78.9,9.39,1.3,9.81.06S141.79,173.66,135.19,171.53Zm-32-5.39a2.84,2.84,0,0,1-2.67-2.47c-.56-4.14-1.17-8.38-1.72-12.69q-.42-3.18-.75-6.42l0,0c2.81.14,5.58.36,8.26.66l4.41.6,2.14.3,2.08.37,1.29.22a2.44,2.44,0,0,1,1.87,1.6c2,5.68,4.22,11,6.18,16l0,0a2.86,2.86,0,0,1-3.15,3.85c-3.73-.64-7.76-1.15-12-1.58C107.23,166.38,105.22,166.25,103.18,166.14Zm-6-35.06c-.06-2.52,0-5.05.17-7.6a2.12,2.12,0,0,1,2.39-2c4.21.52,8.21,1.26,11.76,2a2.15,2.15,0,0,1,1.69,2h0a67.26,67.26,0,0,0,1.51,11,2.09,2.09,0,0,1-2.38,2.53l-.47-.08c-1.51-.25-3.06-.53-4.64-.75-2.56-.34-5.2-.59-7.89-.77a2.11,2.11,0,0,1-2-2C97.24,134,97.19,132.54,97.17,131.08ZM102.41,79a2.3,2.3,0,0,1,1.85-2.26c2.31-.45,4.58-.94,6.79-1.46,4.11-1,8-2.07,11.61-3.19a2.28,2.28,0,0,1,3,2.3l0,.38a73.45,73.45,0,0,1-1.4,9.69,64.19,64.19,0,0,1-2,7.28,2.28,2.28,0,0,1-1.62,1.48l-.82.21c-2.57.68-5.32,1.21-8.14,1.88-2.5.51-5.09,1-7.73,1.43a2.28,2.28,0,0,1-2.65-2.54c.21-1.5.39-3,.55-4.51A100.11,100.11,0,0,0,102.41,79ZM58.48,74.23a2.21,2.21,0,0,1-2.26-2.06,46.46,46.46,0,0,1,.89-11.91c.18-.93.38-1.86.59-2.78a2.23,2.23,0,0,1,2.08-1.72c2.89-.12,6-.38,9.1-.77a154.87,154.87,0,0,0,18.28-3.56l2.36-.62a3.16,3.16,0,0,1,3.92,2.55A145.38,145.38,0,0,1,95,69.15v0a2.2,2.2,0,0,1-1.85,2.28L89.56,72c-6.84.88-13.7,1.5-20.15,1.86C65.58,74,61.91,74.15,58.48,74.23ZM99.62,49.37h0a1.61,1.61,0,0,1,1.08-1.85,179.52,179.52,0,0,0,17.55-6.67,1.57,1.57,0,0,1,2.09.83q1.15,2.78,2.12,5.76A80.65,80.65,0,0,1,124.6,56c.41,2.31.72,4.69.93,7.1a1.58,1.58,0,0,1-1.15,1.66c-4.47,1.19-9.53,2.41-14.9,3.64l-3.49.72a3.43,3.43,0,0,1-4.1-3.11A128.89,128.89,0,0,0,99.62,49.37Zm-.85,61.32c.15-1,.32-2.07.48-3.11a4,4,0,0,1,3.33-3.35c3.63-.58,7.2-1.27,10.6-2l2.58-.66a1.47,1.47,0,0,1,1.7,2v0a53,53,0,0,0-3.48,10.7v0a2.67,2.67,0,0,1-3.31,2.07,92.19,92.19,0,0,0-9.76-1.92,2.63,2.63,0,0,1-2.24-3Zm3.72-95.31a87.86,87.86,0,0,1,12.32,15.5,3.43,3.43,0,0,1-1.81,5c-3.76,1.31-7.9,2.74-12.26,4.13a3.47,3.47,0,0,1-4.31-2.17,67.53,67.53,0,0,0-6.2-13.24,3.44,3.44,0,0,1,1.19-4.7,45.53,45.53,0,0,0,6.35-4.69A3.44,3.44,0,0,1,102.49,15.38Zm-41,29c1.59-5,3.09-9.6,4.17-13.81.27-1,.51-2,.73-3a2.35,2.35,0,0,1,2.24-1.84c1.9,0,3.9-.18,5.7-.34a48.81,48.81,0,0,0,7.08-1.13A2.36,2.36,0,0,1,84,25.38a71.24,71.24,0,0,1,4.52,9.5q1.11,2.85,2,6a2.09,2.09,0,0,1-1.44,2.62q-1.86.51-3.75,1A177.91,177.91,0,0,1,67.93,48c-1.61.23-3.19.43-4.73.61A2.09,2.09,0,0,1,61,45.91C61.15,45.39,61.31,44.87,61.48,44.36Zm-1.3,41.78A3.64,3.64,0,0,1,63.51,81c2,0,4.09,0,6.21-.1,6.66-.25,13.75-.88,20.8-1.8l1.74-.25a2.61,2.61,0,0,1,3,2.66C95.17,84,95,86.44,94.71,89q-.34,3.19-.83,6.44a3.67,3.67,0,0,1-3.32,3.13c-5,.43-10.06.65-14.82.71l-4.26,0c-2.32,0-2,0-2.59,0a3.68,3.68,0,0,1-3.07-2l-1.06-2c-1.6-3.06-3.17-6-4.55-9Zm11.26,23.3a2.4,2.4,0,0,1,2.34-3.23l1.93.07c4.28,0,8.77-.13,13.3-.46a2.63,2.63,0,0,1,2.79,3l-.12.79c-.08.54-.16,1.08-.23,1.62l-2.67,2.26a86.48,86.48,0,0,0-13.52.71,2.62,2.62,0,0,1-2.85-1.86C72.12,111.37,71.79,110.4,71.44,109.44ZM87.2,120.65a3,3,0,0,1,2.94,3.15c-.13,2.47-.17,4.94-.12,7.38,0,1,0,2,.08,3a3,3,0,0,1-2.88,3.07h0a120.14,120.14,0,0,0-15.62,1.52,1,1,0,0,1-1-1.32,42.88,42.88,0,0,0,3.11-10.5l.23-1.45h0c0-.49,0-1,.08-1.48v0a3,3,0,0,1,2.7-2.86A99.94,99.94,0,0,1,87.2,120.65ZM61.81,156c1.1-2.64,2.39-5.28,3.74-8a2.43,2.43,0,0,1,1.74-1.32l1.31-.24a138.4,138.4,0,0,1,18.84-2l1.22,0a2.45,2.45,0,0,1,2.46,2.16q.31,2.73.68,5.38c.5,3.64,1,7.18,1.57,10.61a2.86,2.86,0,0,1-2.81,3.29H87.4c-7.41.16-14.8.64-21.69,1.35l-3.66.43A2.86,2.86,0,0,1,59,164,59.34,59.34,0,0,1,61.81,156Zm26.72,43.45c-3.22.06-6.45.07-9.63.06l-4.73-.05c-.8,0-1.51,0-2.23-.05s-1.45-.09-2.17-.13c-2.78-.24-5.49-.58-8.1-.95a3.29,3.29,0,0,1-2.74-2.47,64.55,64.55,0,0,1-1.24-6.6,73.48,73.48,0,0,1-.64-7.8c0-1.35,0-2.73,0-4.13v0a2.47,2.47,0,0,1,2.23-2.4c2.3-.24,4.69-.47,7.13-.71,6.75-.57,13.94-1,21.14-1.19,1.74,0,3.48,0,5.21,0a2.5,2.5,0,0,1,2.44,2.17c.55,4.32,1,8.45,1.17,12.31.11,1.29.11,2.54.15,3.77q0,.93.06,1.83c0,.6,0,1.19,0,1.77V196a3.31,3.31,0,0,1-3.18,3.26C91.75,199.35,90.15,199.39,88.53,199.43Zm41-19.47a58.39,58.39,0,0,1,1.79,13.51v.21a2.47,2.47,0,0,1-2.18,2.45c-1.66.19-3.46.42-5.4.66-4.78.59-10.35,1.23-16.35,1.7l-1.44.11a3.33,3.33,0,0,1-3.57-3.52v0c0-.63.08-1.25.12-1.89s0-1.28,0-1.93c0-1.3.07-2.64,0-4,0-3.58-.27-7.34-.63-11.23a2.47,2.47,0,0,1,2.59-2.68c1.37.07,2.73.15,4.07.25,6.69.56,12.93,1.24,18.24,2.1h0a2.46,2.46,0,0,1,2,1.78Q129.24,178.73,129.54,180Z"/></g><path class="cls-10" d="M135.19,170.64a2.94,2.94,0,0,1-1.91-1.94c-.8-2.55-1.69-5.14-2.65-7.75-1.1-3-2.29-6-3.45-9.14a2.45,2.45,0,0,1,2.78-3.26c5.44,1.09,8.89,1.55,9.34.29.3-.82-1.05-2-3.67-3.4-.66-.35-1.39-.72-2.2-1.11s-1.71-.72-2.67-1.09c-1.77-.69-3.76-1.44-6-2.09l-1.86-1.89a71.83,71.83,0,0,1-2.28-11.17,2.76,2.76,0,0,1,3-3c1.75.18,2.88,0,3.23-.77.43-.94-.88-2.38-3.51-3.92A5.23,5.23,0,0,1,121,114.9l0-.12a45.92,45.92,0,0,1,3-9.3c1.13-2.67,2.41-5.43,3.54-8.34l0,0,1.31-.47c9-3.32,14.55-6.63,13.9-8.24-.46-1.13-3.36-.77-7.94.3a3.06,3.06,0,0,1-3.69-3.59v-.05a79.84,79.84,0,0,0,1.5-10.67c.07-1,.11-2,.14-3A6.06,6.06,0,0,1,136.37,66c5.23-2.42,8.14-4.54,7.67-5.66-.37-.91-2.52-.76-6,0a5.21,5.21,0,0,1-6.22-4.26c-.12-.77-.26-1.53-.4-2.28a79.85,79.85,0,0,0-2.53-9.4c-.47-1.37-1-2.71-1.51-4a5.43,5.43,0,0,1,1.93-6.29c2.64-1.76,4-3.2,3.55-4.05s-2.74-.66-6.34.38a4.78,4.78,0,0,1-5.32-2l0,0A68.21,68.21,0,0,0,103.11,9.36c-.45-.3-.87-.58-1.3-.85a1.12,1.12,0,0,0-.34-.51,2.35,2.35,0,0,0-1.27-.54h-.12c-3.54-2-5.81-2.66-6.15-2.09s.54,1.46,2.16,3v.09c-.74.32-1.51.7-2.34,1.15-1.86,1-3.9,2.25-6,3.43a5.39,5.39,0,0,1-6.41-.9c-.75-.77-1.49-1.47-2.2-2.11-1.21-1-2.3-2-3.27-2.71h0a31.22,31.22,0,0,0-2.65-1.69c-1.48-.85-2.4-1.13-2.67-.79s.13,1.23,1.13,2.56c.5.67,1.15,1.44,1.93,2.32h0c.72.94,1.57,2,2.54,3.15.4.5.82,1,1.24,1.57a1.62,1.62,0,0,1-1,2.6c-.93.15-1.88.29-2.81.42-1.34.18-2.65.36-3.89.56a1.62,1.62,0,0,1-1.88-1.65,24.93,24.93,0,0,0-.38-5.31c-.37-1.69-.82-2.54-1.26-2.51-1,.08-1.13,3.53-2.53,9.27-.13.53-.28,1.09-.43,1.66l0,0c-2.18.76-3.45,1.7-3.32,2.93A1.41,1.41,0,0,0,60,23a5.9,5.9,0,0,1,.62,4.73l-.12.33c-1.37,3.95-3.09,8.38-4.92,13.33-.39,1-1,2.67-1.45,4.1a4.74,4.74,0,0,1-4.33,3.19L41.65,49c-2.64.1-4.26.33-4.49,1.21s1.15,1.94,3.87,2.87A35.53,35.53,0,0,0,48,54.53,2.9,2.9,0,0,1,50.47,58a55.71,55.71,0,0,0-1.27,9.74c0,.41,0,.83,0,1.25a4.56,4.56,0,0,1-4.51,4.48c-6.34.1-10.32.42-10.48,1.78-.19,1.52,5.26,3.15,13.93,4.08a3.55,3.55,0,0,1,3,2.42,66.13,66.13,0,0,0,2.64,6.54c.44.93,1.23,2.55,2,4.19a3.47,3.47,0,0,1-3.22,5c-5.1-.2-8.28,0-8.53,1.22-.5,2.51,10.28,4.55,15.54,5.39A4.43,4.43,0,0,1,63,106.69v0c.63,1.41,1.21,2.83,1.73,4.25a4.51,4.51,0,0,1-2.58,5.64l-.09,0a19.07,19.07,0,0,0-2.18,1,22.51,22.51,0,0,0-3.35,2c-1.72,1.4-2.46,2.51-2,3.28s1.79.87,3.73.48c1-.2,2.18-.37,3.48-.7.65-.18,1.37-.3,2.11-.45s1.53-.31,2.33-.5l.75-.14c0,.37,0,.74,0,1.1s0,.76-.06,1.13h0L66.56,125A37.13,37.13,0,0,1,63.83,134c-.48,1.13-1,2.26-1.51,3.38a5.94,5.94,0,0,1-3.9,3.25h0c-2.82.71-5.42,1.59-7.83,2.39s-4.54,1.71-6.44,2.49a41.13,41.13,0,0,0-4.78,2.35c-2.58,1.48-3.9,2.68-3.58,3.5s2.11.89,5,.37c1.44-.26,3.14-.67,5.1-1.1s4.11-1.09,6.5-1.61l.17,0a2.44,2.44,0,0,1,2.82,3.3l0,0a62.61,62.61,0,0,0-4.15,14,2.89,2.89,0,0,1-2.34,2.35L47,169c-10.85,2.11-17.87,4.46-17.54,6.16s7.66,1.21,18.47,0l1-.12a1.28,1.28,0,0,1,1.42,1.26h0c0,1.52.06,3,.14,4.49a74.51,74.51,0,0,0,1,8.48c.11.65.24,1.3.38,1.93a3.34,3.34,0,0,1-3.77,4c-6.44-1-10.56-1.36-11,0-.53,1.71,5.55,4.54,15.15,7.05l2.78.68a1.59,1.59,0,0,1,1,.84,32.42,32.42,0,0,0,6.61,9.45,14.66,14.66,0,0,0,6.71,3.94c1.82.38,2.81,0,2.86-.38s-.73-.9-2-1.78a20.89,20.89,0,0,1-4.57-4.53,28.47,28.47,0,0,1-2.27-3.51A1.43,1.43,0,0,1,65,204.94c1.35.19,2.74.37,4.16.52.81.06,1.6.15,2.44.19s1.68.08,2.45.09l4.82.09c3.24,0,6.53,0,9.83-.06,1.68,0,3.35-.08,5-.15a1.52,1.52,0,0,1,1.54,1.85c-.28,1.21-.59,2.34-.92,3.36-1.8,5.49-4.14,8.11-3.45,8.82.15.16.45.15.89,0a6.42,6.42,0,0,0,1.72-1.1,19.54,19.54,0,0,0,4.62-6.08,31.87,31.87,0,0,0,2.38-6.13,1.5,1.5,0,0,1,1.35-1.1c2.1-.14,4.18-.31,6.21-.51a146.31,146.31,0,0,0,16.78-2.58c1.3-.28,2.53-.58,3.69-.88A1.46,1.46,0,0,1,130.3,203v0c-1.27,5.68-3,8.74-2.2,9.3.35.25,1.18-.26,2.35-1.56a23,23,0,0,0,3.78-6.51,34.49,34.49,0,0,0,1.62-5.31l.51-.2c2.69-1.15,4.11-2.22,3.89-3.09s-1.49-1-3.66-1l0,0c.07-.6.12-1.2.17-1.82a56,56,0,0,0-1.09-15.06c-.1-.51-.22-1-.33-1.53l0,0c5.78.9,9.39,1.3,9.81.06S141.79,172.77,135.19,170.64Zm-32-5.39a2.84,2.84,0,0,1-2.67-2.47c-.56-4.14-1.17-8.37-1.72-12.69q-.42-3.18-.75-6.42l0,0c2.81.14,5.58.36,8.26.66l4.41.6,2.14.3,2.08.37,1.29.22a2.44,2.44,0,0,1,1.87,1.6c2,5.68,4.22,11,6.18,16l0,.05a2.85,2.85,0,0,1-3.15,3.85c-3.73-.64-7.76-1.15-12-1.58C107.23,165.49,105.22,165.36,103.18,165.25Zm-6-35.06c-.06-2.52,0-5,.17-7.6a2.12,2.12,0,0,1,2.39-2c4.21.53,8.21,1.26,11.76,2a2.15,2.15,0,0,1,1.69,2h0a67.26,67.26,0,0,0,1.51,11,2.09,2.09,0,0,1-2.38,2.53l-.47-.08c-1.51-.25-3.06-.52-4.64-.75-2.56-.34-5.2-.59-7.89-.76a2.13,2.13,0,0,1-2-2C97.24,133.1,97.19,131.65,97.17,130.19Zm5.24-52.07a2.3,2.3,0,0,1,1.85-2.26c2.31-.45,4.58-.94,6.79-1.46,4.11-1,8-2.07,11.61-3.19a2.28,2.28,0,0,1,3,2.3l0,.38a73.21,73.21,0,0,1-1.4,9.69,64.19,64.19,0,0,1-2,7.28,2.31,2.31,0,0,1-1.62,1.49l-.82.2c-2.57.68-5.32,1.21-8.14,1.88-2.5.51-5.09,1-7.73,1.43a2.28,2.28,0,0,1-2.65-2.54c.21-1.5.39-3,.55-4.51a100.11,100.11,0,0,0,.59-10.67ZM58.48,73.34a2.21,2.21,0,0,1-2.26-2.06,46.46,46.46,0,0,1,.89-11.91c.18-.93.38-1.86.59-2.78a2.23,2.23,0,0,1,2.08-1.72c2.89-.12,6-.38,9.1-.77a154.87,154.87,0,0,0,18.28-3.56l2.36-.61a3.15,3.15,0,0,1,3.92,2.54A145.38,145.38,0,0,1,95,68.26v0a2.2,2.2,0,0,1-1.85,2.28c-1.21.18-2.42.37-3.63.54C82.72,72,75.86,72.6,69.41,73,65.58,73.13,61.91,73.26,58.48,73.34ZM99.62,48.48h0a1.61,1.61,0,0,1,1.08-1.85A179.52,179.52,0,0,0,118.24,40a1.57,1.57,0,0,1,2.09.83q1.15,2.78,2.12,5.76a80.65,80.65,0,0,1,2.15,8.6c.41,2.31.72,4.69.93,7.1a1.58,1.58,0,0,1-1.15,1.66c-4.47,1.19-9.53,2.41-14.9,3.64-1.15.24-2.31.49-3.49.72a3.43,3.43,0,0,1-4.1-3.11A129.13,129.13,0,0,0,99.62,48.48Zm-.85,61.32c.15-1,.32-2.07.48-3.11a4,4,0,0,1,3.33-3.35c3.63-.58,7.2-1.27,10.6-2l2.58-.66a1.47,1.47,0,0,1,1.7,2v0a53.21,53.21,0,0,0-3.48,10.7v0a2.68,2.68,0,0,1-3.31,2.08,87.41,87.41,0,0,0-9.76-1.92,2.65,2.65,0,0,1-2.24-3Zm3.72-95.3A87.43,87.43,0,0,1,114.81,30,3.43,3.43,0,0,1,113,35c-3.76,1.31-7.9,2.74-12.26,4.13A3.47,3.47,0,0,1,96.43,37a67.53,67.53,0,0,0-6.2-13.24A3.44,3.44,0,0,1,91.42,19a45.53,45.53,0,0,0,6.35-4.69A3.43,3.43,0,0,1,102.49,14.5Zm-41,29c1.59-5,3.09-9.6,4.17-13.81.27-1,.51-2,.73-3a2.35,2.35,0,0,1,2.24-1.84c1.9,0,3.9-.18,5.7-.34a47.48,47.48,0,0,0,7.08-1.13A2.36,2.36,0,0,1,84,24.49,71.84,71.84,0,0,1,88.55,34q1.11,2.85,2,6a2.09,2.09,0,0,1-1.44,2.62q-1.86.51-3.75,1a177.91,177.91,0,0,1-17.47,3.53c-1.61.23-3.19.43-4.73.61A2.09,2.09,0,0,1,61,45C61.15,44.5,61.31,44,61.48,43.47Zm-1.3,41.78a3.64,3.64,0,0,1,3.33-5.15c2,0,4.09,0,6.21-.1,6.66-.25,13.75-.88,20.8-1.8L92.26,78a2.61,2.61,0,0,1,3,2.66c-.08,2.46-.27,4.94-.54,7.45q-.34,3.19-.83,6.44a3.67,3.67,0,0,1-3.32,3.13c-5,.43-10.06.65-14.82.71l-4.26,0c-2.32,0-2,0-2.59,0a3.66,3.66,0,0,1-3.07-2l-1.06-2c-1.6-3.06-3.17-6-4.55-9Zm11.26,23.3a2.4,2.4,0,0,1,2.34-3.23l1.93.07c4.28,0,8.77-.13,13.3-.46a2.63,2.63,0,0,1,2.79,3l-.12.8c-.08.53-.16,1.07-.23,1.61l-2.67,2.26a86.48,86.48,0,0,0-13.52.71,2.62,2.62,0,0,1-2.85-1.86C72.12,110.48,71.79,109.51,71.44,108.55ZM87.2,119.76a3,3,0,0,1,2.94,3.15c-.13,2.47-.17,5-.12,7.39,0,1,0,2,.08,3a3,3,0,0,1-2.88,3.07h0a120.13,120.13,0,0,0-15.62,1.53,1,1,0,0,1-1-1.33A42.88,42.88,0,0,0,73.64,126l.23-1.45h0c0-.49,0-1,.08-1.48v0a3,3,0,0,1,2.7-2.86A99.94,99.94,0,0,1,87.2,119.76ZM61.81,155.09c1.1-2.64,2.39-5.28,3.74-8a2.43,2.43,0,0,1,1.74-1.32l1.31-.24a138.4,138.4,0,0,1,18.84-2l1.22,0a2.45,2.45,0,0,1,2.46,2.16q.31,2.73.68,5.38c.5,3.64,1,7.18,1.57,10.62a2.85,2.85,0,0,1-2.81,3.28H87.4c-7.41.16-14.8.65-21.69,1.35l-3.66.43a2.86,2.86,0,0,1-3.1-3.6A59.83,59.83,0,0,1,61.81,155.09Zm26.72,43.45c-3.22.07-6.45.07-9.63.07l-4.73-.06c-.8,0-1.51,0-2.23-.05s-1.45-.09-2.17-.13c-2.78-.23-5.49-.58-8.1-1A3.29,3.29,0,0,1,58.93,195a64.55,64.55,0,0,1-1.24-6.6,73.48,73.48,0,0,1-.64-7.8c0-1.35,0-2.73,0-4.13v0a2.47,2.47,0,0,1,2.23-2.4c2.3-.24,4.69-.47,7.13-.7,6.75-.58,13.94-1,21.14-1.2,1.74,0,3.48,0,5.21,0a2.48,2.48,0,0,1,2.44,2.16c.55,4.32,1,8.45,1.17,12.31.11,1.29.11,2.54.15,3.78l.06,1.82c0,.6,0,1.19,0,1.78v1.19a3.31,3.31,0,0,1-3.18,3.26C91.75,198.46,90.15,198.5,88.53,198.54Zm41-19.47a58.39,58.39,0,0,1,1.79,13.51v.21a2.47,2.47,0,0,1-2.18,2.45c-1.66.19-3.46.42-5.4.66-4.78.59-10.35,1.23-16.35,1.7l-1.44.11a3.33,3.33,0,0,1-3.57-3.52v0q.06-.93.12-1.89c0-.64,0-1.28,0-1.93,0-1.3.07-2.64,0-4,0-3.58-.27-7.34-.63-11.23a2.47,2.47,0,0,1,2.59-2.68c1.37.07,2.73.15,4.07.25,6.69.57,12.93,1.24,18.24,2.11h0a2.46,2.46,0,0,1,2,1.78Q129.24,177.84,129.54,179.07Z"/><path class="cls-11" d="M148.27,66.08c0-23.57-11.94-39.61-26.88-50-14.32-9.92-58.58-27.92-58.58-5,0,6.43-30.16,19.87-30.16,54.91S54,105.07,54,117.41c0,13.07-25.79,21.46-25.79,59.71,0,24.06,22.38,43.41,62.26,43.41S148,201.59,148,177.12c0-34.79-20.31-43.68-21-61.69C126.33,101.12,148.27,97.17,148.27,66.08Zm-7.41,108c0,23.36-15.54,41.45-50.67,41.45S35.35,197.07,35.35,174.1c0-36.52,22.72-44.53,22.72-57,0-11.78-18.81-15.55-18.81-49s26.57-46.3,26.57-52.43c0-21.94,39-4.74,51.61,4.73,13.17,9.88,23.69,25.2,23.69,47.7,0,29.68-19.33,33.45-18.81,47.12C123,132.39,140.86,140.88,140.86,174.1Z"/><path class="cls-12" d="M146.48,66.49c0-23.36-11.59-39.25-26.08-49.51-13.89-9.82-56.83-27.66-56.83-4.9,0,6.37-29.26,19.69-29.26,54.41S55,105.12,55,117.34c0,13-25,21.27-25,59.17,0,23.84,21.71,43,60.39,43s55.8-18.77,55.8-43c0-34.48-19.7-43.28-20.42-61.12C125.19,101.2,146.48,97.29,146.48,66.49Zm-6,107.67c0,23.38-15.44,41-50.34,41s-54.49-18-54.49-41c0-36.55,22.57-44.57,22.57-57.07,0-11.79-18.68-15.56-18.68-49S66,21.7,66,15.56c0-21.95,38.74-4.74,51.27,4.74,13.08,9.89,23.53,25.22,23.53,47.74,0,29.71-19.2,33.49-18.68,47.16C122.75,132.41,140.52,140.91,140.52,174.16Z"/><g class="cls-3"><path class="cls-13" d="M132.9,97.82c-6.21-5.81-19.33.45-43.19.45s-40-7.2-43.19-.45c-1,2.06-.19,4.21,1.92,6.26,5.81,5.68,9.71,13.6,6.39,20a3,3,0,0,0,.38,3.69c5.49,5.81,13.94-1.27,35-1.27s34.31,8,37.13,1.27a5,5,0,0,0-.4-4.5c-3.63-6.5-3.31-13.79,2.46-19.61C131.31,101.8,134.47,99.28,132.9,97.82Z"/></g><g class="cls-3"><path class="cls-13" d="M66,7.73c1.67-2.26,11.57,1.48,11.34,7.62s-11.27,4.11-11.5.3S64.32,10,66,7.73Z"/></g><g class="cls-6"><path class="cls-14" d="M70.09,24.16c3.82,3.67-.07,9.8-6.33,16.3s-12.51,10.9-16.33,7.22-1.84-11.92,4.42-18.42S66.27,20.48,70.09,24.16Z"/></g><g class="cls-3"><path class="cls-13" d="M145.47,47.44a66.8,66.8,0,0,1,.49,8.14c0,31.09-21.1,35-20.53,49.35a26.68,26.68,0,0,0,1.63,8c1.81-12.42,21.21-17.66,21.21-46.9A61,61,0,0,0,145.47,47.44Z"/><path class="cls-13" d="M55.31,106.9c0-12.33-20.52-16.28-20.52-51.32,0-2,.11-4,.29-5.89a54.92,54.92,0,0,0-2.43,16.39c0,31.18,16.88,37.74,20.61,47.5A13.31,13.31,0,0,0,55.31,106.9Z"/><path class="cls-13" d="M145.67,166.62c0,24.47-17,43.41-55.3,43.41s-59.86-19.35-59.86-43.41a79.45,79.45,0,0,1,.6-9.85,67.6,67.6,0,0,0-2.91,20.35c0,24.06,22.38,43.41,62.26,43.41S148,201.59,148,177.12a70.71,70.71,0,0,0-3-21.07A80.12,80.12,0,0,1,145.67,166.62Z"/></g><g class="cls-15"><ellipse class="cls-16" cx="79.16" cy="158.47" rx="27.02" ry="22.1"/></g><ellipse class="cls-17" cx="60.64" cy="67.22" rx="14.21" ry="14.23" transform="translate(-7.24 127.13) rotate(-89.38)"/><path class="cls-2" d="M70.42,66.8A9.8,9.8,0,1,0,61.05,77,9.8,9.8,0,0,0,70.42,66.8Zm-11-.58c-1.52,1.72-3.91,2.1-5.34.84s-1.36-3.67.16-5.39,3.9-2.1,5.33-.85S60.94,64.5,59.43,66.22ZM67,72.73a2,2,0,1,1,.09-3.12A2.23,2.23,0,0,1,67,72.73Z"/><ellipse class="cls-17" cx="121.87" cy="67.22" rx="14.21" ry="14.23" transform="translate(53.34 188.36) rotate(-89.38)"/><path class="cls-2" d="M131.65,66.8A9.8,9.8,0,1,0,122.28,77,9.8,9.8,0,0,0,131.65,66.8Zm-10.86-1.16c-1.72,1.52-4.14,1.6-5.4.17s-.89-3.81.83-5.33,4.14-1.59,5.41-.17S122.51,64.13,120.79,65.64Zm8.07,6.74a2,2,0,1,1,.09-3.12A2.22,2.22,0,0,1,128.86,72.38Z"/><path class="cls-2" d="M111.74,42.88c.31,2.5,4.92,2.8,9.81,2.08,4.38-.64,8.71-.87,8.88-4.22C130.78,33.87,110.8,35.36,111.74,42.88Z"/><path class="cls-2" d="M52.08,40.74c.17,3.35,4.49,3.58,8.87,4.22,4.9.72,9.51.42,9.82-2.08C71.71,35.36,51.73,33.87,52.08,40.74Z"/><ellipse class="cls-18" cx="130.99" cy="85.19" rx="6.18" ry="3.31"/><ellipse class="cls-18" cx="50.3" cy="85.19" rx="6.18" ry="3.31"/><path class="cls-19" d="M101.07,75.79c2.71,3.27.08,9.36-8.82,9.36s-11.07-6.58-8.81-9.36c1.3-1.59,4.3-.8,8.81-.8S99.73,74.17,101.07,75.79Z"/><path class="cls-17" d="M99.81,76.38c0,.74-3.27,1.35-7.31,1.35s-7.3-.61-7.3-1.35,3.27-.56,7.3-.56S99.81,75.63,99.81,76.38Z"/><path class="cls-20" d="M86.22,82.68a11.41,11.41,0,0,0,6.07,1.45,11.7,11.7,0,0,0,6.64-1.67C93.78,77.49,88.93,80.23,86.22,82.68Z"/></g></g></g></svg>