<svg xmlns="http://www.w3.org/2000/svg" viewBox="0 0 168.75 259.67"><defs><style>.cls-1{isolation:isolate;}.cls-2{mix-blend-mode:multiply;}.cls-3{fill:#dbdacb;}.cls-4{fill:#133441;}.cls-5{fill:#ea9231;}.cls-6{mix-blend-mode:soft-light;}.cls-7{fill:#9e978e;}.cls-8{fill:#ffe5ba;}.cls-9{fill:#ede7df;}.cls-10{fill:#eaae4c;}.cls-11{fill:#ffcb76;}.cls-12{fill:#ea983b;}.cls-13{fill:#f5e0bf;}.cls-14{fill:#ccc3b7;}.cls-15{mix-blend-mode:overlay;}.cls-16{fill:#999288;}.cls-17{fill:#fff;}.cls-18{fill:#ee927e;}.cls-19{fill:#ab1700;}.cls-20{fill:#fd6c6c;}</style></defs><g class="cls-1"><g id="Calque_2" data-name="Calque 2"><g id="Cacahuete_a_gagne"><g class="cls-2"><ellipse class="cls-3" cx="77.54" cy="247.89" rx="77.54" ry="11.78"/></g><path class="cls-4" d="M158.81,145.72c-4.75,3.55-13.28-.23-25.36-11.27a2.21,2.21,0,0,1,3-3.26c11.7,10.69,18.06,12.57,19.91,10.87,2.4-2.16.78-11.33-4.49-18.57a2.21,2.21,0,1,1,3.57-2.59c5.94,8.16,8.9,19.94,3.86,24.45Z"/><path class="cls-4" d="M150.34,112.54a5,5,0,0,0-4.16,3.24,6.62,6.62,0,0,0,.3,5.14,5.47,5.47,0,0,0,.85,3.71c1.24,1.78,4,3,7.82.39a9.25,9.25,0,0,0,1.46-1.2,6,6,0,0,0,1.63-6.42A7.86,7.86,0,0,0,150.34,112.54Z"/><path class="cls-4" d="M61.42,114.38a2.23,2.23,0,0,1-1.91-.46C32.39,91.37,38.38,65.57,38.65,64.48a2.2,2.2,0,0,1,4.28,1c-.23,1-5.52,24.29,19.4,45a2.21,2.21,0,0,1,.29,3.11A2.28,2.28,0,0,1,61.42,114.38Z"/><path class="cls-4" d="M43.19,55.1a7.86,7.86,0,0,0-7.43,5.55c-.74,2.88.67,5.61,3.77,7.32a7,7,0,0,0,4.93,1,4.34,4.34,0,0,0,2.82-2.09,5.49,5.49,0,0,0,.51-3.77A6.63,6.63,0,0,0,47.63,58,5,5,0,0,0,43.19,55.1Z"/><path class="cls-4" d="M96.51,234.23a2.21,2.21,0,0,1-2.19-2,6.61,6.61,0,0,1,2.21-6.06,2.19,2.19,0,0,1,1.54-.45c11.51,1.07,12.88-1.36,13-1.64.71-1.68-2.55-6.08-5.93-9A2.21,2.21,0,1,1,108,211.8c1.6,1.37,9.47,8.49,7.13,14-1.59,3.74-6.76,5.15-16.27,4.42a3.26,3.26,0,0,0-.17,1.52,2.21,2.21,0,0,1-2,2.44Z"/><path class="cls-4" d="M60.26,231.07A2.21,2.21,0,0,1,59.07,227a2.88,2.88,0,0,0,1.15-1.23c-4.07-5.75-5.51-11.2-4.26-16.21,1.87-7.51,9.1-11,9.41-11.15a2.2,2.2,0,0,1,1.89,4h0c-.06,0-5.69,2.79-7,8.26-.95,3.9.43,8.36,4.11,13.29a2.12,2.12,0,0,1,.44,1.26,6.62,6.62,0,0,1-3.34,5.52A2.25,2.25,0,0,1,60.26,231.07Z"/><path class="cls-5" d="M61.42,51c5.66-21.78,19.69-34,34.92-40.22C110.93,4.78,153-2,147.48,19.18c-1.55,5.94,20.94,25,12.52,57.43s-27.56,31.29-30.52,42.69c-3.15,12.09,16.83,25.56,7.65,60.9-5.78,22.23-29.52,35.16-63.52,26.32S29.12,176.27,35,153.66c8.36-32.15,27.8-35.86,32.76-52.34C71.71,88.23,54,79.72,61.42,51Z"/><g class="cls-6"><ellipse class="cls-7" cx="111.94" cy="49.8" rx="34.64" ry="40.86" transform="translate(35.59 145.62) rotate(-75.44)"/></g><g class="cls-6"><ellipse class="cls-7" cx="114.34" cy="31.58" rx="24.32" ry="20.61" transform="translate(-3.14 15.19) rotate(-7.5)"/></g><g class="cls-6"><ellipse class="cls-7" cx="88.18" cy="159.25" rx="37.13" ry="45.4" transform="translate(-88.12 204.56) rotate(-75.44)"/></g><g class="cls-6"><path class="cls-8" d="M30.66,153.82c.09,1.31,3.69,1.83,9.51,2.41a0,0,0,0,1,0,.05c-.24.47-.48.93-.7,1.4A55.53,55.53,0,0,0,34.66,172c-.12.61-.21,1.21-.3,1.8,0,0,0,0,0,0-2.09-.57-3.41-.64-3.79,0s.67,2.17,3,4l.44.33a34.75,34.75,0,0,0,.23,5.54,23.27,23.27,0,0,0,2,7.26c.81,1.55,1.49,2.25,1.89,2.1.92-.34,0-3.74.2-9.56v0a1.45,1.45,0,0,1,2.15-1.22c1,.59,2.17,1.18,3.36,1.78a146.31,146.31,0,0,0,15.59,6.72c1.91.7,3.88,1.38,5.88,2a1.52,1.52,0,0,1,1,1.4,31.76,31.76,0,0,0,.76,6.54,19.59,19.59,0,0,0,3,7.05,6.72,6.72,0,0,0,1.38,1.5c.38.28.67.37.85.26.85-.52-.76-3.65-1.11-9.41-.07-1.07-.09-2.24,0-3.48a1.52,1.52,0,0,1,2-1.4c1.6.48,3.21,1,4.83,1.41,3.17.9,6.36,1.73,9.5,2.53l4.68,1.12c.75.19,1.58.36,2.4.53s1.61.28,2.4.43c1.42.21,2.81.39,4.16.54a1.43,1.43,0,0,1,.89,2.41,28.92,28.92,0,0,1-3.09,2.83,21,21,0,0,1-5.56,3.24c-1.4.54-2.28.76-2.33,1.22s.82,1,2.67,1.09a14.64,14.64,0,0,0,7.48-2.12,32.4,32.4,0,0,0,8.78-7.49,1.57,1.57,0,0,1,1.22-.55c1,0,1.93,0,2.85,0,9.93,0,16.53-1.22,16.45-3-.06-1.43-4.15-2.11-10.64-2.77a3.34,3.34,0,0,1-2.63-4.83c.29-.58.58-1.17.86-1.78a74.11,74.11,0,0,0,3.11-7.94c.45-1.4.88-2.84,1.27-4.31h0A1.28,1.28,0,0,1,124,177l.95.36c10.17,3.88,17.1,6.27,17.88,4.63s-5.45-5.6-15.43-10.37c-.54-.27-1.09-.53-1.66-.79a2.92,2.92,0,0,1-1.68-2.87,61.44,61.44,0,0,0-.5-14.56v-.05a2.43,2.43,0,0,1,3.56-2.48l.15.08c2.18,1.11,4.1,2.28,5.89,3.19s3.33,1.74,4.65,2.35c2.65,1.23,4.4,1.62,4.92.9s-.46-2.21-2.59-4.29a39.1,39.1,0,0,0-4-3.48c-1.64-1.23-3.46-2.67-5.6-4s-4.42-2.89-7-4.28l0,0a5.92,5.92,0,0,1-3-4.13c-.22-1.22-.43-2.43-.61-3.64a37.57,37.57,0,0,1-.36-9.48l.11-1.15h0c.06-.37.16-.73.23-1.1s.15-.73.22-1.09l.7.33c.73.38,1.44.74,2.13,1.07s1.35.62,1.93,1c1.17.65,2.3,1.12,3.19,1.56,1.78.86,3.11,1.11,3.73.47s.16-1.9-1.15-3.69a23.35,23.35,0,0,0-2.73-2.79,18,18,0,0,0-1.87-1.49L126,117a4.51,4.51,0,0,1-1.08-6.11q1.29-1.86,2.75-3.67v0a4.42,4.42,0,0,1,3.9-1.63c5.3.51,16.25,1.24,16.39-1.31.08-1.28-3-2.23-7.94-3.33a3.46,3.46,0,0,1-1.86-5.66c1.2-1.39,2.38-2.76,3-3.55a63.42,63.42,0,0,0,4.21-5.66,3.57,3.57,0,0,1,3.51-1.59c8.63,1.28,14.31,1.08,14.51-.44.18-1.36-3.59-2.66-9.7-4.36a4.56,4.56,0,0,1-3.23-5.47c.1-.4.2-.81.29-1.22A56.1,56.1,0,0,0,152,63.27h0a2.9,2.9,0,0,1,3.31-2.75,35.51,35.51,0,0,0,7.07.34c2.87-.22,4.48-.93,4.47-1.8s-1.51-1.54-4-2.3L155,54.44a4.76,4.76,0,0,1-3.39-4.18c-.12-1.51-.26-3.22-.37-4.33-.53-5.25-1.08-10-1.41-14.14l0-.35A5.9,5.9,0,0,1,151.61,27a1.46,1.46,0,0,0,.32-.52c.43-1.15-.56-2.39-2.47-3.67l0,0c0-.6,0-1.17,0-1.72.09-5.91.78-9.29-.12-9.61-.41-.14-1.06.57-1.84,2.11a24.6,24.6,0,0,0-1.71,5,1.62,1.62,0,0,1-2.23,1.13c-1.15-.51-2.38-1-3.63-1.53-.87-.36-1.75-.73-2.61-1.11a1.63,1.63,0,0,1-.32-2.77l1.6-1.21c1.22-.87,2.31-1.67,3.25-2.4h0c1-.66,1.8-1.25,2.45-1.77,1.3-1,1.93-1.78,1.74-2.19s-1.13-.36-2.79.09c-.82.22-1.83.55-3,1h0c-1.12.5-2.41,1.1-3.84,1.81-.85.43-1.74.93-2.66,1.48a5.38,5.38,0,0,1-6.43-.74c-1.79-1.68-3.45-3.42-5-4.84-.68-.64-1.34-1.21-2-1.7a.06.06,0,0,1,0-.09c2-1.12,3-1.86,2.85-2.39s-2.53-.62-6.48.48l-.11,0a2.44,2.44,0,0,0-1.37.21,1.22,1.22,0,0,0-.46.4l-1.47.5A68.46,68.46,0,0,0,91,16.85l0,0a4.77,4.77,0,0,1-5.65.59c-3.23-1.91-5.35-2.77-6-2s.3,2.45,2.42,4.82A5.44,5.44,0,0,1,82,26.89c-.85,1.13-1.67,2.29-2.47,3.5a79.42,79.42,0,0,0-4.81,8.46c-.33.69-.65,1.4-1,2.11a5.19,5.19,0,0,1-7.08,2.56c-3.19-1.61-5.24-2.29-5.83-1.5-.73,1,1.55,3.75,6,7.4a6.06,6.06,0,0,1,2.08,6.06c-.22,1-.43,2-.62,3a82.24,82.24,0,0,0-1.24,10.7v0a3.06,3.06,0,0,1-4.47,2.55c-4.17-2.19-6.89-3.26-7.61-2.29-1,1.4,3.48,6,11.37,11.48l1.16.78s0,0,0,0c.36,3.1.91,6.09,1.33,9a46.76,46.76,0,0,1,.62,9.76v.12a5.21,5.21,0,0,1-3.74,4.69c-2.93.84-4.56,1.9-4.38,2.92.15.83,1.19,1.29,2.93,1.56a2.76,2.76,0,0,1,2.19,3.69,70.76,70.76,0,0,1-5,10.23L59.19,125c-2.31.07-4.42.3-6.31.52-1,.12-2,.25-2.86.39s-1.68.34-2.41.52c-2.89.71-4.49,1.49-4.41,2.37.12,1.32,3.58,1.75,9.12,2.07a2.44,2.44,0,0,1,1.87,3.84c-1.91,2.71-3.82,5.36-5.64,8C47,145,45.45,147.29,44,149.56a3,3,0,0,1-2.35,1.4C34.78,151.36,30.57,152.56,30.66,153.82Zm37.44-1.14c-4.18-.64-8.21-1.16-12-1.48A2.85,2.85,0,0,1,54,146.69l0,0c3.15-4.36,6.63-8.91,10-13.9a2.43,2.43,0,0,1,2.21-1.08l1.3.11,2.11.16,2.14.26,4.43.52c2.67.39,5.4.88,8.16,1.44,0,0,0,0,0,0q-1.14,3-2.34,6c-1.62,4-3.27,8-4.86,11.84a2.84,2.84,0,0,1-3.2,1.72C72,153.38,70.05,153,68.1,152.68Zm19.34-27.12A2.13,2.13,0,0,1,85,127c-2.64-.51-5.27-.92-7.83-1.24-1.58-.18-3.15-.31-4.68-.45l-.47,0a2.08,2.08,0,0,1-1.67-3A66.34,66.34,0,0,0,74.57,112v0a2.12,2.12,0,0,1,2.14-1.53c3.62.18,7.68.47,11.88,1A2.14,2.14,0,0,1,90.42,114c-.49,2.5-1.06,5-1.75,7.39C88.29,122.78,87.87,124.17,87.44,125.56Zm9.25-55.88a100.53,100.53,0,0,0-2.11,10.47c-.23,1.5-.43,3-.61,4.5a2.28,2.28,0,0,1-3.2,1.8c-2.44-1.09-4.83-2.21-7.12-3.33-2.56-1.36-5.09-2.56-7.4-3.87l-.74-.4A2.28,2.28,0,0,1,74.31,77a63.28,63.28,0,0,1-.08-7.54,76.21,76.21,0,0,1,1.08-9.73c0-.12,0-.25.07-.37a2.28,2.28,0,0,1,3.45-1.48c3.2,2,6.72,4,10.44,6q3,1.58,6.2,3.12a2.29,2.29,0,0,1,1.22,2.65ZM129.94,73c-6.16-2-12.65-4.3-19-6.88l-3.37-1.43A2.19,2.19,0,0,1,106.31,62v0a139.62,139.62,0,0,1,6-15.84l3.12-1c1,.57,2,1.13,3,1.69a153.62,153.62,0,0,0,16.79,8c2.95,1.18,5.85,2.19,8.61,3a2.21,2.21,0,0,1,1.58,2.18c0,.95-.06,1.89-.12,2.85a46.66,46.66,0,0,1-2.14,11.75,2.2,2.2,0,0,1-2.7,1.42C137.11,75.14,133.59,74.09,129.94,73ZM100.46,57.23a3.42,3.42,0,0,1-4.75,2c-1.08-.52-2.14-1.05-3.19-1.57C87.63,55.1,83,52.65,79,50.37a1.57,1.57,0,0,1-.7-1.89C79.12,46.19,80,44,81,41.83a78.76,78.76,0,0,1,4.25-7.77q1.68-2.66,3.5-5.05A1.58,1.58,0,0,1,91,28.73a181.89,181.89,0,0,0,15.3,10.87,1.61,1.61,0,0,1,.58,2.06v0A128.62,128.62,0,0,0,100.46,57.23ZM92.16,102a2.62,2.62,0,0,1-2.92,2.32,91.66,91.66,0,0,0-9.92-.59,2.68,2.68,0,0,1-2.68-2.85v0A53.13,53.13,0,0,0,76,89.65v0a1.47,1.47,0,0,1,2.16-1.51c.77.42,1.55.84,2.33,1.28,3.1,1.6,6.38,3.16,9.75,4.64a4,4,0,0,1,2.38,4.07c-.1,1.05-.21,2.09-.32,3.14ZM117.23,9.1a45.07,45.07,0,0,0,5,6.13,3.44,3.44,0,0,1,0,4.85,67.26,67.26,0,0,0-9.34,11.25,3.47,3.47,0,0,1-4.72,1c-3.86-2.45-7.51-4.86-10.82-7.08A3.43,3.43,0,0,1,96.8,20,87.49,87.49,0,0,1,112.63,8.06,3.42,3.42,0,0,1,117.23,9.1ZM145.12,48a2.09,2.09,0,0,1-2.83,2.07q-2.17-.84-4.43-1.79a178,178,0,0,1-16-7.81c-1.13-.62-2.26-1.25-3.38-1.9a2.08,2.08,0,0,1-.73-2.9q1.69-2.79,3.48-5.28A72.38,72.38,0,0,1,128,22.37a2.37,2.37,0,0,1,2.83-.44,48.22,48.22,0,0,0,6.57,2.88c1.7.6,3.6,1.24,5.43,1.76a2.35,2.35,0,0,1,1.71,2.34q-.06,1.5-.06,3.09c0,4.35.27,9.21.57,14.41Zm-9.39,39.19c-2.07,2.5-4.34,5-6.66,7.53l-1.53,1.69a3.68,3.68,0,0,1-3.47,1.14c-.55-.12-.27,0-2.52-.62l-4.13-1c-4.59-1.26-9.39-2.73-14.17-4.42a3.67,3.67,0,0,1-2.42-3.86c.24-2.17.5-4.33.82-6.44.37-2.5.81-5,1.35-7.35A2.62,2.62,0,0,1,106.57,72l1.62.69c6.59,2.66,13.29,5,19.67,7q3.06.89,6,1.66a3.64,3.64,0,0,1,1.92,5.82Zm-18.39,22.25a2.61,2.61,0,0,1-3.23,1.08,86.08,86.08,0,0,0-12.9-4.09l-2-2.86.18-1.61c0-.27.05-.54.08-.8A2.63,2.63,0,0,1,102.93,99c4.3,1.46,8.6,2.74,12.75,3.79l1.89.42A2.4,2.4,0,0,1,119,106.9Q118.15,108.16,117.34,109.48ZM111,116.89a3,3,0,0,1,1.9,3.44v0c-.1.48-.21,1-.29,1.45h0l-.14,1.45a42.5,42.5,0,0,0,.37,11,1,1,0,0,1-1.34,1,122.06,122.06,0,0,0-14.74-5.41h0a2.93,2.93,0,0,1-2-3.69c.28-.95.56-1.9.83-2.86.65-2.35,1.24-4.75,1.73-7.18a3,3,0,0,1,3.64-2.31A102.1,102.1,0,0,1,111,116.89Zm6.35,46a2.86,2.86,0,0,1-3.91,2.7L110,164.21c-6.49-2.41-13.52-4.74-20.66-6.76l-3-.81a2.84,2.84,0,0,1-1.89-3.88c1.37-3.19,2.79-6.48,4.19-9.88.67-1.65,1.35-3.33,2-5a2.44,2.44,0,0,1,2.92-1.48l1.18.33a138.28,138.28,0,0,1,17.72,6.7l1.21.57a2.4,2.4,0,0,1,1.35,1.71c.62,3,1.2,5.85,1.61,8.68A59.7,59.7,0,0,1,117.38,162.85ZM75.2,188.35a3.3,3.3,0,0,1-2.25-4c.09-.38.19-.77.29-1.16.14-.56.28-1.14.43-1.72l.51-1.75c.35-1.18.67-2.4,1.1-3.62,1.18-3.68,2.61-7.57,4.23-11.61A2.49,2.49,0,0,1,82.42,163c1.67.42,3.36.86,5,1.32,6.93,2,13.78,4.22,20.17,6.47l6.72,2.48a2.46,2.46,0,0,1,1.55,2.88v0c-.33,1.36-.68,2.69-1.06,4a75.2,75.2,0,0,1-2.58,7.39,64.87,64.87,0,0,1-2.86,6.08,3.31,3.31,0,0,1-3.28,1.7c-2.61-.3-5.33-.65-8.07-1.12-.71-.15-1.44-.26-2.14-.42s-1.4-.31-2.17-.51l-4.59-1.14c-3.08-.8-6.2-1.61-9.3-2.49C78.28,189.26,76.74,188.8,75.2,188.35ZM46.31,158.29a2.47,2.47,0,0,1,2.39-1.22h0c5.35.5,11.56,1.42,18.18,2.56,1.32.24,2.65.5,4,.78a2.46,2.46,0,0,1,1.83,3.25c-1.32,3.67-2.49,7.25-3.43,10.7-.39,1.3-.68,2.61-1,3.87-.15.63-.29,1.26-.44,1.88s-.24,1.24-.35,1.85v0a3.33,3.33,0,0,1-4.34,2.51L61.8,184c-5.69-2-10.92-4-15.4-5.76-1.81-.72-3.5-1.4-5-2a2.44,2.44,0,0,1-1.49-2.91,1.6,1.6,0,0,1,0-.21,58.54,58.54,0,0,1,5.14-12.62C45.45,159.79,45.87,159.05,46.31,158.29Z"/></g><g class="cls-2"><path class="cls-9" d="M30.11,155.47c.08,1.31,3.68,1.83,9.5,2.41l0,.05c-.24.46-.48.93-.7,1.4a55.86,55.86,0,0,0-4.84,14.29c-.12.61-.21,1.21-.3,1.81l0,0c-2.09-.58-3.41-.64-3.79,0s.67,2.18,3,4l.44.33a34.88,34.88,0,0,0,.23,5.55,23.56,23.56,0,0,0,2,7.25c.81,1.55,1.49,2.25,1.89,2.1.92-.34,0-3.74.2-9.55v0a1.45,1.45,0,0,1,2.15-1.22c1,.58,2.17,1.18,3.36,1.78a144.37,144.37,0,0,0,15.59,6.71c1.91.71,3.88,1.39,5.89,2.06a1.51,1.51,0,0,1,1,1.4,31.84,31.84,0,0,0,.76,6.54,19.53,19.53,0,0,0,2.95,7,6.3,6.3,0,0,0,1.38,1.5c.38.29.67.38.85.26.85-.52-.76-3.64-1.11-9.41-.07-1.07-.09-2.23,0-3.48a1.52,1.52,0,0,1,2-1.39q2.4.72,4.83,1.41c3.17.89,6.36,1.72,9.5,2.52L91.5,202c.75.19,1.58.36,2.4.53s1.61.29,2.41.43c1.41.22,2.8.4,4.15.54a1.44,1.44,0,0,1,.89,2.42,28.76,28.76,0,0,1-3.09,2.82,20.68,20.68,0,0,1-5.56,3.24c-1.4.54-2.28.77-2.33,1.23s.82,1,2.67,1.09a14.64,14.64,0,0,0,7.48-2.12,32.4,32.4,0,0,0,8.78-7.49,1.56,1.56,0,0,1,1.22-.55l2.86,0c9.92,0,16.52-1.23,16.44-3-.06-1.43-4.14-2.1-10.63-2.76a3.34,3.34,0,0,1-2.64-4.83c.3-.58.58-1.18.86-1.78a74.29,74.29,0,0,0,3.11-8c.46-1.4.88-2.84,1.27-4.3v0a1.27,1.27,0,0,1,1.68-.86l1,.37c10.17,3.87,17.1,6.27,17.88,4.63s-5.45-5.61-15.42-10.38l-1.67-.79a2.9,2.9,0,0,1-1.68-2.86A61.5,61.5,0,0,0,123,155v0a2.44,2.44,0,0,1,3.56-2.48l.15.08c2.18,1.11,4.1,2.29,5.89,3.2s3.33,1.73,4.65,2.35c2.65,1.22,4.4,1.62,4.92.89s-.46-2.21-2.58-4.29a40.46,40.46,0,0,0-4-3.47c-1.64-1.24-3.46-2.68-5.6-4s-4.42-2.89-7-4.29h0a6,6,0,0,1-3-4.13c-.22-1.22-.43-2.44-.61-3.65a37.55,37.55,0,0,1-.36-9.48l.11-1.14h0c.07-.38.16-.74.23-1.11s.15-.72.22-1.08l.7.32c.73.38,1.44.74,2.13,1.07s1.35.63,1.93,1c1.17.66,2.3,1.12,3.19,1.56,1.78.87,3.11,1.12,3.73.47s.17-1.9-1.15-3.68a21.93,21.93,0,0,0-2.73-2.8,18.25,18.25,0,0,0-1.87-1.49l-.08,0a4.51,4.51,0,0,1-1.08-6.11c.86-1.25,1.78-2.47,2.75-3.68h0a4.47,4.47,0,0,1,3.9-1.64c5.3.52,16.25,1.25,16.39-1.3.08-1.29-3-2.24-7.94-3.33a3.47,3.47,0,0,1-1.86-5.67c1.2-1.38,2.38-2.75,3-3.54a65.49,65.49,0,0,0,4.2-5.67,3.55,3.55,0,0,1,3.51-1.58c8.63,1.28,14.31,1.07,14.51-.45.18-1.36-3.58-2.66-9.7-4.36A4.55,4.55,0,0,1,150,75.88c.1-.41.2-.82.29-1.22a56.21,56.21,0,0,0,1.21-9.75,2.91,2.91,0,0,1,3.31-2.75,34.77,34.77,0,0,0,7.07.34c2.87-.21,4.48-.93,4.47-1.8s-1.51-1.53-4-2.3l-7.81-2.31a4.76,4.76,0,0,1-3.39-4.19c-.12-1.51-.26-3.21-.37-4.33-.53-5.25-1.08-10-1.41-14.13l0-.36a5.86,5.86,0,0,1,1.79-4.41,1.46,1.46,0,0,0,.32-.52c.43-1.16-.56-2.39-2.47-3.68l0,0c0-.59,0-1.17,0-1.72.08-5.9.77-9.28-.13-9.6-.41-.14-1.06.57-1.84,2.11a24.18,24.18,0,0,0-1.71,5.05A1.61,1.61,0,0,1,143,21.4c-1.15-.5-2.38-1-3.62-1.52-.88-.36-1.76-.73-2.62-1.11a1.63,1.63,0,0,1-.32-2.77c.55-.43,1.09-.83,1.6-1.21,1.22-.87,2.31-1.68,3.25-2.41h0c1-.66,1.8-1.24,2.45-1.76,1.3-1,1.93-1.79,1.74-2.19s-1.13-.36-2.79.09c-.82.22-1.82.54-3,1h0c-1.12.49-2.41,1.1-3.84,1.8-.85.44-1.74.93-2.66,1.48a5.38,5.38,0,0,1-6.43-.73c-1.79-1.69-3.45-3.42-5-4.85-.68-.64-1.34-1.2-2-1.7V5.4c2-1.11,3-1.86,2.86-2.39s-2.53-.61-6.49.48l-.11,0a2.36,2.36,0,0,0-1.37.21,1.14,1.14,0,0,0-.46.4l-1.47.49A68.52,68.52,0,0,0,90.48,18.5l0,0a4.75,4.75,0,0,1-5.65.59c-3.22-1.91-5.35-2.77-6-2s.3,2.44,2.42,4.81a5.44,5.44,0,0,1,.28,6.57c-.84,1.13-1.67,2.3-2.47,3.5a80.42,80.42,0,0,0-4.81,8.46c-.33.7-.65,1.4-1,2.11a5.19,5.19,0,0,1-7.08,2.56c-3.19-1.6-5.24-2.28-5.83-1.5-.73,1,1.55,3.75,6,7.41a6.07,6.07,0,0,1,2.07,6c-.22,1-.43,2-.62,3a81.84,81.84,0,0,0-1.24,10.7v0a3.05,3.05,0,0,1-4.47,2.54c-4.17-2.19-6.89-3.26-7.61-2.28-1,1.39,3.48,6,11.37,11.47l1.16.78v0c.36,3.1.91,6.09,1.33,9a46.8,46.8,0,0,1,.62,9.76v.13a5.21,5.21,0,0,1-3.74,4.69c-2.93.83-4.56,1.9-4.38,2.91.15.84,1.19,1.29,2.93,1.56a2.76,2.76,0,0,1,2.19,3.69,70.87,70.87,0,0,1-5,10.24l-2.27,1.36c-2.31.07-4.42.29-6.31.52-1,.12-2,.24-2.86.38s-1.68.35-2.41.52c-2.89.71-4.49,1.5-4.41,2.37.13,1.33,3.58,1.76,9.12,2.07a2.45,2.45,0,0,1,1.87,3.85c-1.91,2.7-3.82,5.35-5.64,8-1.58,2.29-3.1,4.57-4.51,6.83a3,3,0,0,1-2.35,1.4C34.22,153,30,154.21,30.11,155.47Zm37.43-1.14c-4.18-.65-8.21-1.16-12-1.48a2.85,2.85,0,0,1-2.08-4.52l0,0c3.15-4.35,6.63-8.9,10-13.9a2.42,2.42,0,0,1,2.21-1.07l1.3.11,2.11.16,2.14.25,4.43.53c2.67.38,5.4.87,8.16,1.44l0,0q-1.14,3-2.34,6c-1.62,4-3.27,8-4.86,11.85a2.85,2.85,0,0,1-3.2,1.72C71.48,155,69.49,154.65,67.54,154.33ZM86.88,127.2a2.13,2.13,0,0,1-2.44,1.43c-2.64-.51-5.26-.93-7.83-1.25-1.58-.18-3.15-.3-4.68-.44l-.47,0a2.09,2.09,0,0,1-1.67-3A66.45,66.45,0,0,0,74,113.62h0a2.13,2.13,0,0,1,2.14-1.54c3.62.18,7.68.48,11.88,1a2.13,2.13,0,0,1,1.82,2.52c-.49,2.5-1.06,5-1.75,7.4C87.73,124.42,87.31,125.82,86.88,127.2Zm9.25-55.88A100.19,100.19,0,0,0,94,81.8c-.23,1.5-.43,3-.61,4.5a2.28,2.28,0,0,1-3.2,1.79c-2.44-1.09-4.83-2.21-7.12-3.33-2.56-1.36-5.09-2.55-7.4-3.87-.25-.13-.5-.26-.74-.4a2.26,2.26,0,0,1-1.2-1.84,63.28,63.28,0,0,1-.08-7.54,76.56,76.56,0,0,1,1.08-9.74c0-.12,0-.24.07-.37a2.29,2.29,0,0,1,3.45-1.48c3.2,2,6.72,4,10.44,6q3,1.59,6.21,3.12a2.28,2.28,0,0,1,1.21,2.66Zm33.25,3.29c-6.16-2-12.65-4.29-19-6.87-1.13-.47-2.26-.95-3.38-1.44a2.19,2.19,0,0,1-1.21-2.67v0a145.36,145.36,0,0,1,5.52-14.88,3.16,3.16,0,0,1,4.44-1.47l2.13,1.18a152.77,152.77,0,0,0,16.79,8.05c3,1.17,5.85,2.19,8.62,3a2.22,2.22,0,0,1,1.57,2.19c0,.94-.06,1.89-.12,2.84a46.93,46.93,0,0,1-2.13,11.75,2.22,2.22,0,0,1-2.71,1.43C136.55,76.79,133,75.74,129.38,74.61ZM99.9,58.88a3.43,3.43,0,0,1-4.75,2c-1.08-.52-2.14-1-3.19-1.58-4.89-2.54-9.48-5-13.5-7.27a1.56,1.56,0,0,1-.71-1.89c.81-2.29,1.72-4.5,2.7-6.64a76.85,76.85,0,0,1,4.24-7.78c1.12-1.76,2.29-3.45,3.5-5.05a1.57,1.57,0,0,1,2.23-.27,181.89,181.89,0,0,0,15.3,10.87,1.61,1.61,0,0,1,.58,2.06h0A128.76,128.76,0,0,0,99.9,58.88Zm-8.29,44.79A2.65,2.65,0,0,1,88.68,106a89.14,89.14,0,0,0-9.92-.6,2.68,2.68,0,0,1-2.68-2.84v0A53.09,53.09,0,0,0,75.4,91.3v0a1.48,1.48,0,0,1,2.16-1.52L79.88,91c3.1,1.6,6.38,3.16,9.75,4.64A4,4,0,0,1,92,99.75c-.1,1-.21,2.09-.32,3.13C91.66,103.15,91.63,103.41,91.61,103.67Zm25.06-92.93a45.12,45.12,0,0,0,5,6.14,3.42,3.42,0,0,1,0,4.84A67.23,67.23,0,0,0,112.28,33a3.48,3.48,0,0,1-4.73,1c-3.86-2.45-7.51-4.87-10.82-7.08a3.44,3.44,0,0,1-.49-5.32A87.54,87.54,0,0,1,112.07,9.7,3.43,3.43,0,0,1,116.67,10.74Zm27.89,38.95a2.08,2.08,0,0,1-2.83,2.06q-2.17-.84-4.43-1.78a176.6,176.6,0,0,1-16-7.81c-1.14-.62-2.27-1.26-3.39-1.9a2.09,2.09,0,0,1-.73-2.9c1.13-1.86,2.29-3.63,3.48-5.28A71.48,71.48,0,0,1,127.42,24a2.35,2.35,0,0,1,2.83-.44,48.18,48.18,0,0,0,6.57,2.87c1.7.61,3.6,1.24,5.43,1.77A2.35,2.35,0,0,1,144,30.56c0,1-.06,2-.06,3.08,0,4.36.27,9.21.57,14.42Zm-9.39,39.18c-2.07,2.5-4.34,5-6.66,7.54-.51.55-1,1.12-1.53,1.68a3.65,3.65,0,0,1-3.47,1.14c-.55-.11-.26,0-2.52-.62l-4.12-1c-4.6-1.25-9.4-2.73-14.18-4.42a3.67,3.67,0,0,1-2.42-3.86c.24-2.17.5-4.32.82-6.44.37-2.5.81-5,1.35-7.34A2.61,2.61,0,0,1,106,73.69c.54.23,1.07.46,1.62.68,6.59,2.66,13.29,5,19.67,7,2,.58,4,1.14,6,1.65a3.65,3.65,0,0,1,1.92,5.83Zm-18.39,22.26a2.63,2.63,0,0,1-3.23,1.08,86.08,86.08,0,0,0-12.9-4.09l-2-2.86.18-1.62c0-.26.05-.53.08-.8a2.63,2.63,0,0,1,3.47-2.22c4.3,1.46,8.6,2.74,12.75,3.79l1.89.42a2.41,2.41,0,0,1,1.45,3.72Q117.59,109.79,116.78,111.13Zm-6.3,7.41a3,3,0,0,1,1.89,3.44v0c-.09.49-.21,1-.29,1.46h0l-.14,1.46a42.87,42.87,0,0,0,.37,10.94,1,1,0,0,1-1.34,1,120.36,120.36,0,0,0-14.74-5.4h0a2.94,2.94,0,0,1-2-3.7c.28-.94.56-1.89.83-2.85.65-2.35,1.24-4.76,1.73-7.18a3,3,0,0,1,3.64-2.31A100.49,100.49,0,0,1,110.48,118.54Zm6.34,46a2.85,2.85,0,0,1-3.9,2.71l-3.44-1.34C103,163.44,96,161.12,88.82,159.1c-1-.28-2-.55-3-.81a2.85,2.85,0,0,1-1.89-3.88c1.37-3.2,2.79-6.49,4.19-9.88.68-1.66,1.35-3.33,2-5A2.44,2.44,0,0,1,93,138c.4.1.79.21,1.18.33a137.72,137.72,0,0,1,17.72,6.7l1.21.56a2.42,2.42,0,0,1,1.35,1.71c.62,3,1.21,5.86,1.61,8.69A59.56,59.56,0,0,1,116.82,164.49ZM74.64,190a3.28,3.28,0,0,1-2.25-4c.09-.38.19-.77.29-1.16.14-.57.28-1.14.43-1.72l.51-1.76c.35-1.18.67-2.39,1.1-3.61,1.18-3.69,2.61-7.57,4.23-11.62a2.49,2.49,0,0,1,2.91-1.48c1.68.42,3.36.85,5,1.31,6.92,2,13.77,4.22,20.16,6.48q3.47,1.26,6.72,2.47a2.46,2.46,0,0,1,1.55,2.88v0c-.32,1.37-.68,2.7-1.06,4a74.09,74.09,0,0,1-2.58,7.38,64.87,64.87,0,0,1-2.86,6.08,3.29,3.29,0,0,1-3.28,1.7c-2.61-.29-5.33-.64-8.07-1.12-.71-.14-1.44-.25-2.14-.42s-1.4-.3-2.17-.51l-4.59-1.13c-3.08-.8-6.2-1.62-9.3-2.49C77.72,190.9,76.18,190.45,74.64,190ZM45.75,159.94a2.47,2.47,0,0,1,2.39-1.22h0c5.35.5,11.56,1.41,18.18,2.55,1.32.24,2.65.5,4,.78a2.48,2.48,0,0,1,1.84,3.25c-1.33,3.67-2.5,7.25-3.44,10.71-.39,1.29-.68,2.6-1,3.86-.15.64-.3,1.26-.45,1.88s-.24,1.25-.35,1.86v0a3.33,3.33,0,0,1-4.34,2.5l-1.37-.47c-5.69-2-10.92-4-15.4-5.76-1.81-.72-3.5-1.39-5.05-2A2.46,2.46,0,0,1,39.3,175l.05-.2a59.12,59.12,0,0,1,5.14-12.63C44.89,161.44,45.31,160.69,45.75,159.94Z"/></g><path class="cls-10" d="M30.33,154.61c.09,1.31,3.69,1.83,9.51,2.41l0,0c-.24.47-.47.94-.7,1.41a55.73,55.73,0,0,0-4.84,14.29c-.11.61-.21,1.21-.3,1.81l0,0c-2.09-.58-3.42-.64-3.79,0s.67,2.18,3,4l.45.33a33.74,33.74,0,0,0,.23,5.55,23,23,0,0,0,2,7.25c.81,1.55,1.48,2.25,1.88,2.1.93-.34,0-3.74.21-9.55v0A1.45,1.45,0,0,1,40.12,183c1.05.59,2.16,1.19,3.35,1.79a145.24,145.24,0,0,0,15.59,6.71c1.91.71,3.89,1.39,5.89,2.06a1.5,1.5,0,0,1,1,1.4,33.29,33.29,0,0,0,.76,6.54,19.7,19.7,0,0,0,3,7,6.3,6.3,0,0,0,1.38,1.5c.39.29.67.37.86.26.84-.52-.76-3.64-1.12-9.41a33.05,33.05,0,0,1,0-3.48A1.51,1.51,0,0,1,72.71,196q2.4.72,4.83,1.41c3.18.89,6.36,1.72,9.5,2.52l4.68,1.12c.75.19,1.58.36,2.4.53s1.61.29,2.41.43c1.41.22,2.8.4,4.16.54a1.44,1.44,0,0,1,.88,2.42,29.71,29.71,0,0,1-3.08,2.82,21.27,21.27,0,0,1-5.56,3.24c-1.41.54-2.29.77-2.34,1.23s.82,1,2.68,1.09a14.69,14.69,0,0,0,7.48-2.12,32.55,32.55,0,0,0,8.78-7.49,1.54,1.54,0,0,1,1.22-.55l2.85,0c9.93,0,16.52-1.23,16.44-3-.06-1.43-4.14-2.1-10.63-2.76a3.34,3.34,0,0,1-2.63-4.83c.29-.58.57-1.18.85-1.78a72.24,72.24,0,0,0,3.11-7.95c.46-1.4.89-2.84,1.28-4.3v0a1.27,1.27,0,0,1,1.68-.86l1,.37c10.17,3.87,17.1,6.27,17.88,4.63s-5.45-5.61-15.42-10.38l-1.66-.79a2.89,2.89,0,0,1-1.68-2.86,62.58,62.58,0,0,0-.5-14.57v-.05a2.44,2.44,0,0,1,3.56-2.48l.15.08c2.19,1.11,4.11,2.28,5.89,3.19s3.33,1.74,4.66,2.36c2.65,1.22,4.39,1.62,4.92.89s-.47-2.21-2.59-4.29a40.23,40.23,0,0,0-4-3.47c-1.64-1.24-3.47-2.68-5.61-4s-4.42-2.89-7-4.29h0a6,6,0,0,1-3-4.13c-.22-1.22-.43-2.44-.6-3.65a37.09,37.09,0,0,1-.36-9.48l.1-1.14h0c.07-.38.16-.74.24-1.11s.14-.72.22-1.08l.69.32c.74.38,1.45.74,2.13,1.07s1.35.63,1.93,1c1.17.66,2.3,1.12,3.19,1.56,1.78.86,3.12,1.12,3.73.47s.17-1.9-1.15-3.68a21.27,21.27,0,0,0-2.73-2.8,18.25,18.25,0,0,0-1.87-1.49l-.07-.05a4.5,4.5,0,0,1-1.08-6.11c.85-1.25,1.78-2.47,2.74-3.68h0a4.41,4.41,0,0,1,3.89-1.64c5.31.52,16.25,1.25,16.4-1.3.07-1.29-3-2.24-7.95-3.33a3.47,3.47,0,0,1-1.86-5.67c1.21-1.38,2.39-2.75,3-3.54a63.49,63.49,0,0,0,4.2-5.67,3.55,3.55,0,0,1,3.51-1.58c8.63,1.28,14.31,1.07,14.51-.45.19-1.36-3.58-2.66-9.69-4.36A4.55,4.55,0,0,1,150.18,75c.11-.41.2-.82.29-1.22a56.25,56.25,0,0,0,1.22-9.75A2.9,2.9,0,0,1,155,61.3a34.87,34.87,0,0,0,7.08.34c2.87-.21,4.47-.93,4.47-1.8s-1.52-1.53-4-2.3l-7.8-2.31A4.77,4.77,0,0,1,151.3,51c-.12-1.51-.26-3.21-.37-4.33-.53-5.25-1.08-10-1.42-14.14,0-.11,0-.23,0-.35a5.82,5.82,0,0,1,1.78-4.41,1.65,1.65,0,0,0,.33-.52c.43-1.16-.56-2.39-2.48-3.68l0,0c0-.59,0-1.17,0-1.72.08-5.9.77-9.29-.13-9.6-.41-.14-1.06.57-1.84,2.11a24.78,24.78,0,0,0-1.71,5.05,1.62,1.62,0,0,1-2.23,1.12c-1.15-.5-2.37-1-3.62-1.52-.88-.36-1.75-.73-2.62-1.12a1.62,1.62,0,0,1-.31-2.76c.55-.43,1.08-.83,1.6-1.21,1.22-.87,2.3-1.68,3.24-2.41h0c1-.66,1.8-1.24,2.45-1.76,1.31-1,1.93-1.79,1.75-2.19s-1.14-.36-2.79.08c-.83.23-1.83.55-3,1h0c-1.13.5-2.41,1.11-3.84,1.81-.85.44-1.74.93-2.67,1.48a5.36,5.36,0,0,1-6.42-.73c-1.79-1.69-3.45-3.42-5-4.85-.69-.64-1.34-1.2-2-1.7V4.54c2-1.11,3-1.86,2.85-2.39s-2.53-.61-6.48.48l-.11,0a2.36,2.36,0,0,0-1.37.2,1.17,1.17,0,0,0-.46.41c-.48.15-1,.31-1.47.49A68.44,68.44,0,0,0,90.7,17.64l0,0a4.75,4.75,0,0,1-5.65.59c-3.22-1.91-5.35-2.77-6-2s.3,2.44,2.42,4.81a5.42,5.42,0,0,1,.28,6.57c-.84,1.13-1.66,2.3-2.47,3.5a83,83,0,0,0-4.81,8.46c-.33.7-.65,1.4-1,2.11a5.2,5.2,0,0,1-7.09,2.56c-3.18-1.6-5.23-2.28-5.82-1.5-.73,1,1.54,3.75,6,7.41a6.07,6.07,0,0,1,2.08,6q-.35,1.47-.63,3a80.16,80.16,0,0,0-1.23,10.7v0a3.06,3.06,0,0,1-4.48,2.55c-4.16-2.19-6.88-3.26-7.6-2.28-1,1.39,3.47,6,11.37,11.47l1.16.78v0c.35,3.09.91,6.09,1.32,9a46.13,46.13,0,0,1,.62,9.76v.13a5.2,5.2,0,0,1-3.74,4.69c-2.93.83-4.56,1.9-4.37,2.91.14.84,1.19,1.29,2.92,1.56a2.76,2.76,0,0,1,2.2,3.69,73,73,0,0,1-5,10.24l-2.28,1.36c-2.31.07-4.42.29-6.31.52-1,.12-2,.24-2.86.38s-1.68.34-2.4.52c-2.9.71-4.5,1.49-4.42,2.37.13,1.33,3.58,1.76,9.12,2.07a2.45,2.45,0,0,1,1.87,3.85c-1.9,2.7-3.81,5.35-5.64,8-1.58,2.29-3.1,4.56-4.51,6.83a3,3,0,0,1-2.34,1.4C34.44,152.14,30.23,153.34,30.33,154.61Zm37.43-1.14c-4.17-.65-8.2-1.16-12-1.48a2.85,2.85,0,0,1-2.08-4.52l0,0c3.15-4.35,6.62-8.9,10-13.9a2.44,2.44,0,0,1,2.21-1.07l1.3.11,2.11.16,2.15.25,4.42.52c2.67.39,5.41.88,8.16,1.45l0,0q-1.14,3-2.34,6c-1.62,4-3.27,8-4.85,11.85a2.86,2.86,0,0,1-3.21,1.72C71.7,154.17,69.72,153.79,67.76,153.47ZM87.1,126.34a2.12,2.12,0,0,1-2.43,1.43c-2.65-.51-5.27-.93-7.83-1.25-1.59-.18-3.16-.3-4.69-.44l-.47,0A2.09,2.09,0,0,1,70,123a67.49,67.49,0,0,0,4.23-10.24h0a2.14,2.14,0,0,1,2.15-1.54c3.62.18,7.67.48,11.88,1a2.12,2.12,0,0,1,1.81,2.52q-.72,3.75-1.74,7.4C88,123.56,87.54,125,87.1,126.34Zm9.25-55.88a102.84,102.84,0,0,0-2.11,10.48q-.33,2.25-.6,4.5a2.29,2.29,0,0,1-3.21,1.79C88,86.14,85.61,85,83.31,83.9c-2.55-1.36-5.08-2.56-7.4-3.87l-.74-.4A2.25,2.25,0,0,1,74,77.79a63.29,63.29,0,0,1-.09-7.54A74.8,74.8,0,0,1,75,60.51c0-.12,0-.24.07-.37a2.28,2.28,0,0,1,3.45-1.48c3.19,2,6.71,4,10.44,6,2,1.06,4.08,2.1,6.2,3.12a2.29,2.29,0,0,1,1.22,2.65Zm33.25,3.29c-6.15-2-12.64-4.29-19-6.87-1.13-.47-2.26-.95-3.38-1.44A2.2,2.2,0,0,1,106,62.77v0a140,140,0,0,1,5.52-14.88,3.15,3.15,0,0,1,4.43-1.47l2.13,1.18a152.9,152.9,0,0,0,16.8,8.05c2.95,1.17,5.84,2.19,8.61,3a2.23,2.23,0,0,1,1.58,2.19c0,.94-.07,1.89-.13,2.84a47,47,0,0,1-2.13,11.75,2.21,2.21,0,0,1-2.71,1.43C136.78,75.93,133.26,74.88,129.6,73.75ZM100.13,58a3.44,3.44,0,0,1-4.75,2c-1.08-.53-2.15-1-3.19-1.58-4.9-2.54-9.48-5-13.51-7.27A1.58,1.58,0,0,1,78,49.26q1.23-3.43,2.7-6.64a76.85,76.85,0,0,1,4.24-7.78q1.68-2.66,3.5-5.05a1.57,1.57,0,0,1,2.23-.27A182.17,182.17,0,0,0,106,40.39a1.61,1.61,0,0,1,.58,2.06h0A125,125,0,0,0,100.13,58Zm-8.3,44.79a2.64,2.64,0,0,1-2.92,2.33,89.31,89.31,0,0,0-9.93-.6,2.68,2.68,0,0,1-2.68-2.84v0a52.44,52.44,0,0,0-.68-11.23v0a1.47,1.47,0,0,1,2.15-1.52l2.34,1.28c3.1,1.6,6.37,3.16,9.74,4.64a4,4,0,0,1,2.39,4.07L91.91,102C91.89,102.28,91.86,102.55,91.83,102.81ZM116.89,9.88a45.89,45.89,0,0,0,5,6.14,3.42,3.42,0,0,1,0,4.84,67.72,67.72,0,0,0-9.33,11.26,3.48,3.48,0,0,1-4.72,1c-3.87-2.45-7.52-4.87-10.82-7.08a3.43,3.43,0,0,1-.49-5.32,87.82,87.82,0,0,1,15.82-11.9A3.43,3.43,0,0,1,116.89,9.88Zm27.89,38.95A2.08,2.08,0,0,1,142,50.89c-1.44-.56-2.92-1.15-4.42-1.78a175.47,175.47,0,0,1-16-7.81c-1.14-.63-2.26-1.26-3.38-1.9a2.09,2.09,0,0,1-.74-2.9c1.13-1.86,2.29-3.63,3.48-5.28a72.55,72.55,0,0,1,6.77-8.06,2.36,2.36,0,0,1,2.83-.44A48.18,48.18,0,0,0,137,25.59c1.71.61,3.6,1.24,5.43,1.77a2.35,2.35,0,0,1,1.71,2.34c0,1-.05,2-.05,3.08,0,4.36.27,9.21.57,14.42C144.72,47.74,144.75,48.28,144.78,48.83ZM135.4,88c-2.08,2.5-4.35,5-6.67,7.54-.51.55-1,1.12-1.52,1.68a3.68,3.68,0,0,1-3.48,1.14c-.54-.11-.26-.05-2.51-.62l-4.13-1c-4.59-1.25-9.4-2.73-14.17-4.42a3.66,3.66,0,0,1-2.43-3.86q.36-3.25.82-6.44.56-3.75,1.35-7.35a2.61,2.61,0,0,1,3.57-1.82l1.62.68c6.59,2.66,13.29,5,19.68,7,2,.58,4,1.14,6,1.65A3.65,3.65,0,0,1,135.44,88ZM117,110.27a2.61,2.61,0,0,1-3.22,1.07,87.75,87.75,0,0,0-12.91-4.08l-2-2.86.18-1.62c0-.27.06-.53.08-.8a2.64,2.64,0,0,1,3.47-2.22c4.3,1.46,8.6,2.74,12.75,3.79l1.89.42a2.4,2.4,0,0,1,1.45,3.72Q117.81,108.94,117,110.27Zm-6.3,7.4a3,3,0,0,1,1.89,3.45v0c-.1.49-.21,1-.29,1.46h0l-.15,1.45a42.93,42.93,0,0,0,.37,11,1,1,0,0,1-1.34,1,121.44,121.44,0,0,0-14.74-5.41h0a3,3,0,0,1-2-3.7c.29-.94.57-1.89.83-2.85.66-2.35,1.24-4.76,1.74-7.18a3,3,0,0,1,3.64-2.31A100.29,100.29,0,0,1,110.7,117.67Zm6.35,46a2.87,2.87,0,0,1-3.91,2.71c-1.13-.45-2.27-.9-3.43-1.34-6.5-2.42-13.53-4.74-20.66-6.76l-3-.81a2.85,2.85,0,0,1-1.9-3.88c1.38-3.2,2.79-6.49,4.19-9.88.68-1.66,1.36-3.33,2-5a2.45,2.45,0,0,1,2.92-1.48l1.18.34a139,139,0,0,1,17.71,6.69l1.22.57a2.47,2.47,0,0,1,1.35,1.71c.61,3,1.2,5.86,1.6,8.69A59.47,59.47,0,0,1,117.05,163.63Zm-42.18,25.5a3.3,3.3,0,0,1-2.26-3.95c.09-.39.19-.77.29-1.16.14-.57.29-1.14.43-1.72s.34-1.17.52-1.76c.35-1.18.67-2.39,1.1-3.61,1.17-3.69,2.61-7.57,4.23-11.62a2.48,2.48,0,0,1,2.9-1.48c1.68.42,3.36.85,5,1.31,6.93,2,13.78,4.22,20.16,6.48,2.31.84,4.56,1.66,6.73,2.47a2.47,2.47,0,0,1,1.55,2.88v0c-.32,1.37-.68,2.7-1.06,4a74.09,74.09,0,0,1-2.58,7.38,62.44,62.44,0,0,1-2.86,6.08,3.29,3.29,0,0,1-3.27,1.7c-2.62-.29-5.33-.65-8.08-1.12-.7-.14-1.44-.25-2.13-.42s-1.4-.3-2.18-.51L88.81,193c-3.08-.79-6.21-1.61-9.31-2.48C78,190,76.4,189.59,74.87,189.13Zm-28.9-30a2.5,2.5,0,0,1,2.4-1.22h0c5.35.5,11.56,1.41,18.18,2.55,1.32.24,2.66.5,4,.78a2.47,2.47,0,0,1,1.83,3.25c-1.33,3.67-2.5,7.25-3.44,10.71-.39,1.29-.68,2.6-1,3.86-.15.64-.3,1.26-.44,1.88l-.36,1.86v0a3.32,3.32,0,0,1-4.34,2.5l-1.36-.47c-5.69-2-10.93-4-15.4-5.76l-5.06-2a2.44,2.44,0,0,1-1.49-2.91l.06-.2a58.53,58.53,0,0,1,5.13-12.63C45.11,160.58,45.53,159.83,46,159.08Z"/><path class="cls-11" d="M63.25,100.39C58,117.63,36.11,121.12,27.36,154.8c-6.16,23.68,6.15,46.45,44.74,56.48s65.13-3.07,71.18-26.36c9.62-37-13.23-51.62-9.94-64.28,3.1-11.94,24.76-10.39,33.57-44.3s-17-54.52-15.38-60.74C157.31-6.63,109.94-.34,93.59,5.66,76.52,11.92,60.93,24.44,55,47.25,47.18,77.35,67.42,86.69,63.25,100.39Zm4.51.93C71.71,88.23,54,79.72,61.42,51c5.66-21.78,19.69-34,34.92-40.22C110.93,4.78,153-2,147.48,19.18c-1.55,5.94,20.94,25,12.52,57.43s-27.56,31.29-30.52,42.69c-3.15,12.09,16.83,25.56,7.65,60.9-5.78,22.23-29.52,35.16-63.52,26.32S29.12,176.27,35,153.66C43.36,121.51,62.8,117.8,67.76,101.32Z"/><path class="cls-12" d="M64.38,100.63c-5.19,17.09-26.47,20.66-35.14,54-6.1,23.47,5.74,45.94,43.18,55.67S135.7,207,141.7,183.88c9.53-36.68-12.6-51-9.34-63.56,3.08-11.83,24.1-10.41,32.84-44s-16.23-53.86-14.63-60c5.72-22-40.32-15.56-56.24-9.54C77.72,13,62.51,25.5,56.64,48.1,48.89,77.91,68.5,87.05,64.38,100.63Zm3.6.75C71.92,88.27,54.28,79.79,61.76,51c5.66-21.79,19.63-34,34.78-40.29,14.51-6,56.34-12.93,50.82,8.32-1.55,5.94,20.77,25,12.35,57.43s-27.46,31.36-30.43,42.77c-3.14,12.1,16.69,25.54,7.5,60.91-5.78,22.25-29.28,34.78-63.06,26S29.43,176.43,35.31,153.8C43.68,121.62,63,117.87,68,101.38Z"/><g class="cls-2"><path class="cls-13" d="M61.89,81.84c7.48-4.06,18.6,5.29,41.69,11.29s40.52,3.1,41.91,10.43c.43,2.24-.87,4.12-3.42,5.58-7,4-12.83,10.72-11.23,17.8a3,3,0,0,1-1.3,3.48c-6.77,4.24-13.17-4.74-33.57-10s-35.22-.86-36.25-8.11A5,5,0,0,1,61.24,108c5.15-5.37,6.67-12.51,2.55-19.59C62.43,86.09,60,82.86,61.89,81.84Z"/></g><g class="cls-2"><path class="cls-13" d="M149.32,11.47c-1-2.6-11.57-1.47-12.9,4.53s9.88,6.81,11.06,3.18S150.37,14.07,149.32,11.47Z"/></g><g class="cls-6"><path class="cls-14" d="M94.79,26.18c1.34,5.13,8.59,4.73,17.32,2.43S127.73,23,126.38,17.88s-9.51-7.43-18.24-5.13S93.44,21.06,94.79,26.18Z"/></g><g class="cls-2"><path class="cls-13" d="M62.4,29.92a67.65,67.65,0,0,0-2.52,7.75c-7.82,30.09,11.6,39.22,7.45,52.93A26.63,26.63,0,0,1,63.74,98C65.1,85.5,47.65,75.55,55,47.25A60.82,60.82,0,0,1,62.4,29.92Z"/><path class="cls-13" d="M134.7,110.15c3.11-12,24-10.6,32.78-44.52.51-2,.9-3.89,1.2-5.77a55.25,55.25,0,0,1-1.77,16.48c-7.84,30.17-25.84,32.28-31.9,40.78A13.32,13.32,0,0,1,134.7,110.15Z"/><path class="cls-13" d="M32.23,145.21c-6.16,23.68,5.49,46.28,42.6,55.93s62.8-3.68,68.85-27a77.68,77.68,0,0,0,1.9-9.68,67.43,67.43,0,0,1-2.3,20.42c-6.05,23.29-32.58,36.39-71.18,26.36s-50.9-32.8-44.74-56.48a71.12,71.12,0,0,1,8.17-19.65A82.49,82.49,0,0,0,32.23,145.21Z"/></g><g class="cls-15"><ellipse class="cls-16" cx="77.67" cy="144.75" rx="27.02" ry="22.1" transform="translate(-46.49 37.19) rotate(-20.88)"/></g><ellipse class="cls-17" cx="79.22" cy="48.3" rx="16" ry="16.03" transform="matrix(0.27, -0.96, 0.96, 0.27, 11.31, 111.52)"/><path class="cls-4" d="M90,50.69a11,11,0,1,0-13.17,8.37A11,11,0,0,0,90,50.69ZM78.2,46.86c-2.15,1.43-4.86,1.14-6-.64s-.41-4.39,1.74-5.82,4.86-1.15,6,.64S80.35,45.42,78.2,46.86Zm6.31,9.28a2.29,2.29,0,1,1,1-3.37A2.52,2.52,0,0,1,84.51,56.14Z"/><ellipse class="cls-17" cx="143.81" cy="66.14" rx="16" ry="16.03" transform="translate(41.14 186.62) rotate(-74.26)"/><path class="cls-4" d="M154.57,68.53a11,11,0,1,0-13.16,8.37A11,11,0,0,0,154.57,68.53ZM143.1,64.11c-2.32,1.15-5,.53-5.93-1.39s.15-4.41,2.46-5.56,5-.52,5.93,1.4S145.41,63,143.1,64.11Zm6.81,9.67a2.28,2.28,0,1,1,1-3.36A2.5,2.5,0,0,1,149.91,73.78Z"/><path class="cls-4" d="M137.88,37.72c-.39,2.81,4.54,4.48,10.07,5.12,5,.58,9.72,1.59,10.88-2C161.22,33.46,139.05,29.27,137.88,37.72Z"/><path class="cls-4" d="M79.63,19c-.79,3.68,3.85,5.2,8.42,7.18,5.11,2.2,10.22,3.22,11.28.59C102.55,18.88,81.25,11.43,79.63,19Z"/><path class="cls-18" d="M152.55,88.18c-.5,1.87-3.76,2.63-7.27,1.69s-5.95-3.22-5.45-5.1,3.76-2.64,7.27-1.7S153.05,86.3,152.55,88.18Z"/><path class="cls-18" d="M69.55,65.94c-.5,1.88-3.76,2.64-7.27,1.7s-6-3.23-5.45-5.11,3.76-2.64,7.27-1.7S70.06,64.06,69.55,65.94Z"/><path class="cls-19" d="M118.7,69.4c2,4.34-2.65,10.2-12.32,7.61S96.25,66.62,99.52,64.26c1.88-1.35,4.91.38,9.82,1.7S117.71,67.24,118.7,69.4Z"/><path class="cls-17" d="M117.15,69.67c-.22.81-4,.52-8.34-.66s-7.76-2.78-7.55-3.59,3.72.34,8.11,1.51S117.37,68.86,117.15,69.67Z"/><path class="cls-20" d="M100.54,72.57a12.94,12.94,0,0,0,6.18,3.34,13.14,13.14,0,0,0,7.7.12C110.27,69.12,104.2,70.69,100.54,72.57Z"/></g></g></g></svg>