<svg xmlns="http://www.w3.org/2000/svg" viewBox="0 0 188.56 253.18"><defs><style>.cls-1{isolation:isolate;}.cls-2{fill:#133441;}.cls-3{mix-blend-mode:multiply;}.cls-4{fill:#dbdacb;}.cls-5{fill:#ea9231;}.cls-6{mix-blend-mode:soft-light;}.cls-7{fill:#9e978e;}.cls-8{fill:#ffe5ba;}.cls-9{fill:#ede7df;}.cls-10{fill:#eaae4c;}.cls-11{fill:#ffcb76;}.cls-12{fill:#ea983b;}.cls-13{fill:#f5e0bf;}.cls-14{fill:#ccc3b7;}.cls-15{mix-blend-mode:overlay;}.cls-16{fill:#999288;}.cls-17{fill:#b8c8d1;}.cls-18{fill:#fd6c6c;}.cls-19{fill:#fff;}.cls-20{fill:#d72626;}</style></defs><g class="cls-1"><g id="Calque_2" data-name="Calque 2"><g id="Cacahuete_attaque"><path class="cls-2" d="M158,144.35c-7.75,0-16.7-4.16-26.71-12.42a2.31,2.31,0,0,1-.32-3.27,2.34,2.34,0,0,1,3.28-.32c11.41,9.42,20.95,13,28.34,10.66,8.78-2.78,11.77-13.38,11.8-13.48a2.33,2.33,0,1,1,4.49,1.21c-.14.53-3.64,13.12-14.84,16.7A19.86,19.86,0,0,1,158,144.35Z"/><path class="cls-2" d="M188.51,127.36a2.33,2.33,0,0,0-2.77-1.79,8.13,8.13,0,0,1-3,.13,8.65,8.65,0,0,0,4-4.83,2.32,2.32,0,0,0-4.38-1.56,4.47,4.47,0,0,1-5,2.91h-.07a2.81,2.81,0,0,1-1.87-.79,2,2,0,0,1-.24-1.32,2.33,2.33,0,0,0-4.54-1,6.62,6.62,0,0,0,.95,5,6.24,6.24,0,0,0,3.26,2.35c1,6.52,5.66,8.9,8.17,9.24l.32,0a2.35,2.35,0,0,0,2.32-2,2.32,2.32,0,0,0-2-2.62,4.42,4.42,0,0,1-1.7-.75,10.56,10.56,0,0,0,1.83.16,13.43,13.43,0,0,0,2.9-.33A2.32,2.32,0,0,0,188.51,127.36Z"/><path class="cls-2" d="M28.59,145.72a17.51,17.51,0,0,1-6.47-1.19C11.59,140.36,9.7,127,9.63,126.43a2.33,2.33,0,0,1,2-2.61,2.3,2.3,0,0,1,2.61,2c0,.11,1.62,11.25,9.62,14.39,7.05,2.77,17.59-1.33,30.47-11.87a2.33,2.33,0,0,1,3,3.6C46.08,141.11,36.46,145.72,28.59,145.72Z"/><path class="cls-2" d="M15.11,117.32a2.31,2.31,0,0,0-1.74,2.78,2,2,0,0,1-.24,1.32,2.81,2.81,0,0,1-1.87.79h-.07a4.52,4.52,0,0,1-5-2.91,2.33,2.33,0,0,0-4.39,1.56,8.66,8.66,0,0,0,4,4.82,7.89,7.89,0,0,1-3-.12,2.33,2.33,0,1,0-1,4.55,13.5,13.5,0,0,0,2.9.33,10.68,10.68,0,0,0,1.84-.16,4.63,4.63,0,0,1-1.67.75,2.33,2.33,0,0,0,.3,4.63l.32,0c2.51-.34,7.16-2.72,8.17-9.24A6.32,6.32,0,0,0,17,124.06a6.64,6.64,0,0,0,.94-5A2.35,2.35,0,0,0,15.11,117.32Z"/><g class="cls-3"><ellipse class="cls-4" cx="96.52" cy="241.4" rx="77.54" ry="11.78"/></g><path class="cls-2" d="M124.07,244h-.16a11.44,11.44,0,0,1-6.18-1.94,2.32,2.32,0,0,1-.5-3.11,27.13,27.13,0,0,0,1-25.13,2.33,2.33,0,1,1,4.24-1.93,32,32,0,0,1-.08,27.21,12.11,12.11,0,0,0,1.79.26,2.33,2.33,0,0,1-.15,4.65Z"/><path class="cls-2" d="M66.23,244a2.33,2.33,0,0,1-.15-4.65,11.22,11.22,0,0,0,1.69-.24c-2.46-4.73-6.51-15.61.11-27.41A2.33,2.33,0,0,1,71.94,214c-7.19,12.82.75,24.42,1.09,24.9a2.33,2.33,0,0,1-.46,3.17A11.44,11.44,0,0,1,66.39,244Z"/><path class="cls-5" d="M145.07,68.08c0-22.5-10.52-37.82-23.68-47.7-12.62-9.47-51.61-26.67-51.61-4.73,0,6.13-26.57,19-26.57,52.43S62,105.3,62,117.08c0,12.49-22.72,20.5-22.72,57,0,23,19.72,41.45,54.85,41.45s50.67-18.09,50.67-41.45c0-33.22-17.89-41.71-18.54-58.9C125.74,101.53,145.07,97.76,145.07,68.08Z"/><g class="cls-6"><ellipse class="cls-7" cx="96.47" cy="54.23" rx="40.86" ry="34.64"/></g><g class="cls-6"><ellipse class="cls-7" cx="82.36" cy="43.55" rx="24.32" ry="20.61"/></g><g class="cls-6"><ellipse class="cls-7" cx="91.93" cy="166.13" rx="45.4" ry="37.13"/></g><g class="cls-6"><path class="cls-8" d="M139,169.8a3,3,0,0,1-1.92-1.94c-.79-2.56-1.69-5.14-2.65-7.75-1.1-3-2.28-6.05-3.44-9.15a2.44,2.44,0,0,1,2.77-3.25c5.44,1.09,8.9,1.54,9.35.29.3-.83-1.05-2-3.68-3.4-.65-.36-1.39-.73-2.19-1.11s-1.71-.72-2.67-1.09c-1.77-.7-3.76-1.45-6-2.1l-1.86-1.88a71.83,71.83,0,0,1-2.28-11.17,2.75,2.75,0,0,1,3.05-3c1.75.17,2.87,0,3.22-.77.44-.94-.87-2.38-3.5-3.93a5.21,5.21,0,0,1-2.44-5.47l0-.13a46.72,46.72,0,0,1,3.06-9.29c1.13-2.68,2.41-5.44,3.54-8.35h0l1.32-.47c9-3.32,14.55-6.63,13.89-8.24-.45-1.13-3.35-.78-7.93.29A3.05,3.05,0,0,1,135,84.27v0a81.74,81.74,0,0,0,1.5-10.67c.06-1,.11-2,.14-3a6.08,6.08,0,0,1,3.53-5.34c5.23-2.41,8.14-4.53,7.67-5.65-.37-.91-2.53-.77-6,0a5.2,5.2,0,0,1-6.22-4.26c-.12-.76-.26-1.52-.4-2.28a80.38,80.38,0,0,0-2.53-9.4c-.47-1.37-1-2.7-1.51-4a5.41,5.41,0,0,1,1.93-6.28c2.64-1.77,4-3.2,3.55-4.05s-2.74-.66-6.34.38a4.76,4.76,0,0,1-5.32-2l0,0A68.49,68.49,0,0,0,106.93,8.51l-1.3-.85a1.24,1.24,0,0,0-.34-.5A2.39,2.39,0,0,0,104,6.62h-.12C100.35,4.56,98.08,4,97.75,4.52s.54,1.46,2.16,3a.07.07,0,0,1,0,.1c-.74.32-1.51.7-2.34,1.14-1.86,1-3.9,2.25-6.06,3.44a5.36,5.36,0,0,1-6.4-.91c-.75-.76-1.49-1.47-2.21-2.1-1.2-1-2.29-2-3.26-2.71h0c-1-.7-1.91-1.26-2.65-1.69C75.49,4,74.58,3.67,74.3,4s.14,1.23,1.14,2.56c.5.66,1.15,1.44,1.93,2.32h0c.72.94,1.57,2,2.53,3.15.41.49.82,1,1.25,1.57a1.62,1.62,0,0,1-1,2.6c-.94.15-1.88.29-2.82.41-1.33.18-2.64.37-3.89.57a1.61,1.61,0,0,1-1.87-1.65,24.93,24.93,0,0,0-.39-5.32c-.36-1.69-.82-2.54-1.25-2.5C69,7.81,68.8,11.26,67.4,17c-.13.53-.28,1.09-.43,1.67,0,0,0,0,0,0-2.17.77-3.44,1.71-3.32,2.94a1.87,1.87,0,0,0,.18.58,5.84,5.84,0,0,1,.62,4.72,3.38,3.38,0,0,1-.11.34c-1.37,3.94-3.09,8.38-4.93,13.33-.38,1-1,2.66-1.44,4.09a4.77,4.77,0,0,1-4.33,3.2l-8.14.28c-2.65.1-4.26.33-4.5,1.21s1.15,1.93,3.88,2.86a34.81,34.81,0,0,0,6.93,1.45,2.91,2.91,0,0,1,2.51,3.5h0A56.55,56.55,0,0,0,53,66.91l0,1.26a4.56,4.56,0,0,1-4.5,4.48c-6.34.1-10.32.41-10.48,1.77-.19,1.53,5.26,3.15,13.93,4.09a3.54,3.54,0,0,1,3,2.41,65.16,65.16,0,0,0,2.64,6.54c.43.93,1.23,2.55,2,4.2a3.46,3.46,0,0,1-3.23,5c-5.09-.19-8.27,0-8.52,1.23-.51,2.5,10.27,4.55,15.54,5.38a4.43,4.43,0,0,1,3.35,2.57v0c.63,1.41,1.22,2.82,1.74,4.24a4.51,4.51,0,0,1-2.58,5.64l-.09,0a16.84,16.84,0,0,0-2.18,1,22,22,0,0,0-3.35,2c-1.72,1.39-2.47,2.5-2,3.28s1.79.87,3.73.48c1-.2,2.18-.37,3.48-.71.64-.18,1.36-.29,2.11-.44s1.52-.32,2.33-.5l.75-.14c0,.37,0,.73,0,1.1s0,.75-.06,1.13h0l-.19,1.14a37,37,0,0,1-2.73,9.08c-.47,1.13-1,2.25-1.5,3.38a6,6,0,0,1-3.9,3.25h0c-2.82.71-5.43,1.59-7.83,2.39s-4.54,1.71-6.44,2.49a39.05,39.05,0,0,0-4.79,2.35c-2.57,1.48-3.9,2.67-3.58,3.5s2.12.89,5,.37c1.43-.26,3.14-.67,5.09-1.11s4.12-1.08,6.51-1.61l.16,0a2.44,2.44,0,0,1,2.83,3.3l0,.05a61.43,61.43,0,0,0-4.15,14,2.89,2.89,0,0,1-2.35,2.35l-1.8.35C40,170.31,33,172.65,33.29,174.36s7.65,1.21,18.47,0l1-.12a1.27,1.27,0,0,1,1.41,1.26h0c0,1.52.06,3,.15,4.49a72.14,72.14,0,0,0,1,8.47c.11.66.24,1.3.37,1.94a3.33,3.33,0,0,1-3.76,4c-6.45-1-10.57-1.36-11,0-.53,1.71,5.54,4.55,15.15,7.05l2.77.69a1.52,1.52,0,0,1,1,.84,32.24,32.24,0,0,0,6.62,9.45,14.64,14.64,0,0,0,6.7,3.94c1.82.37,2.82,0,2.87-.39s-.73-.9-1.95-1.77a20.77,20.77,0,0,1-4.57-4.54,27.73,27.73,0,0,1-2.28-3.51,1.44,1.44,0,0,1,1.47-2.11c1.35.2,2.73.38,4.16.52.81.07,1.6.16,2.44.19s1.68.09,2.45.1l4.81.08c3.24,0,6.54,0,9.83,0,1.68,0,3.36-.08,5-.15a1.51,1.51,0,0,1,1.54,1.84,33.59,33.59,0,0,1-.92,3.36c-1.79,5.49-4.13,8.11-3.44,8.83.15.15.45.14.89,0a6.49,6.49,0,0,0,1.71-1.1,19.69,19.69,0,0,0,4.63-6.08,32,32,0,0,0,2.38-6.14,1.53,1.53,0,0,1,1.34-1.1c2.11-.14,4.19-.3,6.22-.5a146.31,146.31,0,0,0,16.78-2.58c1.3-.29,2.53-.58,3.69-.88a1.45,1.45,0,0,1,1.78,1.72v0c-1.27,5.68-3,8.74-2.2,9.3.35.24,1.18-.26,2.35-1.56a23.38,23.38,0,0,0,3.78-6.51,34.84,34.84,0,0,0,1.62-5.31l.51-.21c2.69-1.14,4.1-2.21,3.89-3.08s-1.5-1-3.66-1a0,0,0,0,1,0,0c.06-.59.12-1.2.16-1.82a55.82,55.82,0,0,0-1.08-15c-.1-.51-.22-1-.33-1.54,0,0,0,0,0,0,5.78.9,9.39,1.3,9.8.05S145.6,171.93,139,169.8Zm-32-5.39a2.86,2.86,0,0,1-2.67-2.47c-.56-4.14-1.16-8.38-1.72-12.69q-.41-3.18-.75-6.42s0,0,0,0c2.81.14,5.58.36,8.25.65l4.42.61,2.14.29,2.08.38,1.29.22a2.43,2.43,0,0,1,1.87,1.59c2,5.69,4.22,11,6.17,16l0,.05a2.85,2.85,0,0,1-3.14,3.85c-3.73-.64-7.76-1.16-12-1.58C111.05,164.65,109,164.51,107,164.41Zm-6-35.06c0-2.53,0-5.06.18-7.6a2.13,2.13,0,0,1,2.39-2c4.21.53,8.2,1.26,11.76,2a2.15,2.15,0,0,1,1.69,2v0a66.18,66.18,0,0,0,1.51,11,2.09,2.09,0,0,1-2.38,2.52l-.47-.08c-1.52-.25-3.06-.52-4.64-.75-2.56-.33-5.21-.59-7.9-.76a2.12,2.12,0,0,1-2-2C101.05,132.26,101,130.8,101,129.35Zm5.25-52.07A2.28,2.28,0,0,1,108.08,75c2.31-.46,4.58-.94,6.79-1.46,4.11-1,8-2.07,11.61-3.19a2.28,2.28,0,0,1,3,2.3c0,.13,0,.25,0,.38a73.69,73.69,0,0,1-1.4,9.69,64.77,64.77,0,0,1-2,7.28,2.28,2.28,0,0,1-1.63,1.48l-.82.2c-2.56.69-5.31,1.22-8.13,1.89-2.5.51-5.09,1-7.73,1.43a2.28,2.28,0,0,1-2.65-2.54c.2-1.5.39-3,.55-4.51a102.8,102.8,0,0,0,.59-10.67ZM62.3,72.5A2.22,2.22,0,0,1,60,70.44a47.37,47.37,0,0,1,.89-11.91c.19-.94.39-1.86.6-2.78A2.22,2.22,0,0,1,63.6,54c2.89-.13,5.94-.38,9.1-.77A154.39,154.39,0,0,0,91,49.69c1.12-.28,2.24-.57,3.35-.87l2.76,1.77a139,139,0,0,1,1.77,16.83v0A2.2,2.2,0,0,1,97,69.71q-1.81.29-3.63.54c-6.83.89-13.69,1.51-20.15,1.87C69.4,72.29,65.73,72.42,62.3,72.5Zm41.13-24.86h0a1.6,1.6,0,0,1,1.08-1.85,185.85,185.85,0,0,0,17.55-6.67,1.57,1.57,0,0,1,2.09.82c.76,1.86,1.48,3.78,2.12,5.77a78.13,78.13,0,0,1,2.14,8.59c.41,2.32.73,4.69.94,7.11a1.55,1.55,0,0,1-1.16,1.65c-4.47,1.2-9.52,2.42-14.9,3.64-1.14.25-2.31.49-3.48.73a3.44,3.44,0,0,1-4.1-3.12A127.28,127.28,0,0,0,103.43,47.64ZM102.59,109q.22-1.56.48-3.12a4,4,0,0,1,3.32-3.34c3.64-.59,7.2-1.27,10.61-2l2.58-.65a1.47,1.47,0,0,1,1.7,2v0a52.58,52.58,0,0,0-3.48,10.7v0a2.68,2.68,0,0,1-3.31,2.08,92.69,92.69,0,0,0-9.76-1.92,2.63,2.63,0,0,1-2.24-3Zm3.71-95.31a87.49,87.49,0,0,1,12.33,15.49,3.44,3.44,0,0,1-1.81,5c-3.76,1.31-7.9,2.73-12.26,4.13a3.48,3.48,0,0,1-4.31-2.17,67.9,67.9,0,0,0-6.2-13.25,3.41,3.41,0,0,1,1.19-4.69,45.53,45.53,0,0,0,6.35-4.69A3.43,3.43,0,0,1,106.3,13.65Zm-41,29c1.6-5,3.1-9.59,4.18-13.81q.41-1.53.72-3A2.36,2.36,0,0,1,72.44,24c1.9-.05,3.89-.18,5.69-.34a49,49,0,0,0,7.09-1.13,2.36,2.36,0,0,1,2.63,1.14,72.5,72.5,0,0,1,4.52,9.5c.73,1.9,1.42,3.9,2,6A2.1,2.1,0,0,1,93,41.76c-1.24.34-2.5.67-3.75,1a172.25,172.25,0,0,1-17.47,3.53c-1.61.24-3.19.44-4.73.62a2.09,2.09,0,0,1-2.22-2.71C65,43.66,65.13,43.14,65.29,42.62ZM64,84.41a3.65,3.65,0,0,1,3.32-5.16c2,0,4.1,0,6.22-.09,6.66-.26,13.74-.89,20.8-1.8l1.73-.26a2.62,2.62,0,0,1,3,2.67c-.09,2.45-.27,4.94-.54,7.45-.23,2.13-.52,4.28-.83,6.44a3.67,3.67,0,0,1-3.32,3.13c-5,.43-10.06.65-14.83.71l-4.25,0c-2.32,0-2,0-2.59,0a3.68,3.68,0,0,1-3.08-2l-1-2c-1.6-3.05-3.18-6-4.55-9Zm11.26,23.3a2.4,2.4,0,0,1,2.33-3.23l1.94.07c4.28,0,8.76-.13,13.29-.46a2.63,2.63,0,0,1,2.8,3l-.12.79-.24,1.61c-1,.87-1.64,1.4-2.66,2.26a87.71,87.71,0,0,0-13.52.71,2.6,2.6,0,0,1-2.85-1.85C75.93,109.64,75.61,108.67,75.26,107.71ZM91,118.92A3,3,0,0,1,94,122.07c-.13,2.47-.17,4.94-.13,7.38q0,1.5.09,3A3,3,0,0,1,91,135.49h0A120.14,120.14,0,0,0,75.39,137a1,1,0,0,1-1-1.33,42.63,42.63,0,0,0,3.12-10.5l.22-1.44h0c0-.49.06-1,.09-1.48v0a3,3,0,0,1,2.7-2.85A99.94,99.94,0,0,1,91,118.92ZM65.63,154.25c1.1-2.64,2.39-5.29,3.74-8a2.44,2.44,0,0,1,1.73-1.31l1.32-.25a138.44,138.44,0,0,1,18.83-2l1.23,0a2.44,2.44,0,0,1,2.45,2.17c.22,1.81.45,3.61.69,5.38.5,3.63,1,7.17,1.57,10.61a2.85,2.85,0,0,1-2.81,3.28l-3.16,0c-7.41.16-14.8.64-21.69,1.35l-3.66.43a2.85,2.85,0,0,1-3.1-3.6A58,58,0,0,1,65.63,154.25Zm26.72,43.44c-3.22.07-6.45.07-9.63.07l-4.73,0c-.8,0-1.52,0-2.23-.05s-1.45-.1-2.17-.14c-2.78-.23-5.5-.57-8.1-.94a3.3,3.3,0,0,1-2.74-2.47,62.42,62.42,0,0,1-1.24-6.6,73.7,73.7,0,0,1-.64-7.8c0-1.36,0-2.73,0-4.13v0a2.49,2.49,0,0,1,2.23-2.4l7.13-.7c6.74-.57,13.94-1,21.14-1.19,1.74,0,3.48,0,5.21,0A2.47,2.47,0,0,1,99,173.42c.55,4.32,1,8.44,1.18,12.3.1,1.3.11,2.55.15,3.78l.06,1.83c0,.6,0,1.19,0,1.77,0,.41,0,.8,0,1.2a3.3,3.3,0,0,1-3.18,3.26C95.57,197.61,94,197.66,92.35,197.69Zm41-19.46a59,59,0,0,1,1.8,13.51V192a2.43,2.43,0,0,1-2.18,2.44l-5.39.66c-4.78.6-10.35,1.23-16.35,1.71l-1.45.11a3.32,3.32,0,0,1-3.56-3.52v0l.12-1.88c0-.64,0-1.28,0-1.93,0-1.3.07-2.64,0-4,0-3.58-.28-7.34-.64-11.23a2.47,2.47,0,0,1,2.59-2.68c1.38.07,2.74.15,4.08.25,6.69.56,12.93,1.24,18.23,2.1h0a2.5,2.5,0,0,1,2,1.79C132.93,176.58,133.15,177.41,133.35,178.23Z"/></g><g class="cls-3"><path class="cls-9" d="M139.14,171.53a3,3,0,0,1-1.92-1.94c-.79-2.55-1.69-5.14-2.65-7.75-1.1-3-2.28-6.05-3.44-9.14a2.44,2.44,0,0,1,2.77-3.26c5.44,1.09,8.89,1.55,9.35.29.3-.83-1.06-2-3.68-3.4-.65-.35-1.39-.72-2.2-1.11s-1.71-.72-2.67-1.09c-1.77-.69-3.76-1.44-6-2.09l-1.86-1.89A71.85,71.85,0,0,1,124.58,129a2.77,2.77,0,0,1,3.06-3c1.75.18,2.87,0,3.22-.77.43-.94-.87-2.38-3.5-3.92a5.23,5.23,0,0,1-2.44-5.48l0-.12a46,46,0,0,1,3.06-9.3c1.12-2.67,2.41-5.43,3.53-8.34l0,0,1.32-.47c9-3.32,14.54-6.63,13.89-8.24-.45-1.13-3.35-.77-7.94.3A3.06,3.06,0,0,1,135.14,86V86a81.47,81.47,0,0,0,1.49-10.67c.07-1,.12-2,.14-3a6.08,6.08,0,0,1,3.54-5.33c5.23-2.42,8.13-4.54,7.67-5.66-.38-.91-2.53-.76-6,0A5.19,5.19,0,0,1,135.76,57c-.13-.77-.26-1.53-.41-2.29a79.67,79.67,0,0,0-2.52-9.39c-.47-1.37-1-2.71-1.51-4A5.41,5.41,0,0,1,133.25,35c2.64-1.76,4-3.2,3.55-4.05s-2.74-.66-6.34.38a4.77,4.77,0,0,1-5.32-2l0,0a68.35,68.35,0,0,0-18.06-19.08c-.45-.31-.88-.58-1.3-.85a1.3,1.3,0,0,0-.34-.51,2.42,2.42,0,0,0-1.28-.54H104c-3.55-2-5.82-2.66-6.15-2.09s.54,1.46,2.16,3l0,.09c-.73.32-1.51.7-2.33,1.15-1.86,1-3.9,2.25-6.06,3.43a5.37,5.37,0,0,1-6.4-.9c-.76-.77-1.5-1.47-2.21-2.11-1.21-1-2.3-1.95-3.26-2.71h0c-1-.71-1.91-1.27-2.65-1.69-1.49-.85-2.4-1.13-2.68-.79S74.56,7,75.57,8.31c.5.67,1.15,1.44,1.93,2.32h0c.72.94,1.57,2,2.53,3.15.41.49.82,1,1.25,1.57a1.63,1.63,0,0,1-1,2.6q-1.41.23-2.82.42c-1.34.18-2.65.36-3.89.56a1.62,1.62,0,0,1-1.88-1.65A24.28,24.28,0,0,0,71.31,12c-.37-1.69-.82-2.54-1.25-2.51-1,.08-1.13,3.53-2.54,9.26-.13.54-.27,1.1-.42,1.67l0,0c-2.18.76-3.45,1.7-3.32,2.93a1.41,1.41,0,0,0,.18.58,5.86,5.86,0,0,1,.62,4.73l-.12.33c-1.36,3.95-3.09,8.38-4.92,13.33-.38,1-.95,2.66-1.45,4.1a4.73,4.73,0,0,1-4.33,3.19l-8.13.28c-2.65.1-4.27.33-4.5,1.21S42.25,53,45,54a34.88,34.88,0,0,0,6.93,1.44,2.9,2.9,0,0,1,2.5,3.5,56.68,56.68,0,0,0-1.27,9.74c0,.41,0,.83,0,1.25a4.56,4.56,0,0,1-4.5,4.48c-6.35.1-10.32.42-10.48,1.78-.19,1.52,5.25,3.15,13.93,4.08a3.57,3.57,0,0,1,3,2.41,62,62,0,0,0,2.64,6.54c.43.94,1.23,2.56,2,4.2a3.47,3.47,0,0,1-3.23,5c-5.09-.2-8.27,0-8.52,1.22-.51,2.51,10.27,4.55,15.54,5.39a4.4,4.4,0,0,1,3.35,2.56v0c.63,1.41,1.22,2.83,1.74,4.25a4.51,4.51,0,0,1-2.58,5.64l-.09,0a18.32,18.32,0,0,0-2.18,1,22,22,0,0,0-3.35,2c-1.73,1.4-2.47,2.5-2,3.28s1.79.87,3.73.48c1-.2,2.18-.37,3.48-.7.64-.18,1.36-.3,2.11-.45l2.33-.5.75-.14c0,.37,0,.74-.06,1.1s0,.76,0,1.13h0l-.19,1.13a37.13,37.13,0,0,1-2.73,9.08c-.47,1.13-1,2.26-1.51,3.38a5.92,5.92,0,0,1-3.89,3.25h0c-2.83.71-5.43,1.59-7.83,2.39s-4.54,1.71-6.44,2.49a42.17,42.17,0,0,0-4.79,2.35c-2.58,1.48-3.9,2.68-3.58,3.5s2.11.89,5,.37c1.43-.26,3.13-.67,5.09-1.1s4.11-1.09,6.51-1.61l.16,0a2.44,2.44,0,0,1,2.82,3.3v0a61.58,61.58,0,0,0-4.15,14,2.89,2.89,0,0,1-2.35,2.35l-1.81.35c-10.85,2.11-17.86,4.46-17.53,6.16s7.65,1.21,18.47,0l1-.12a1.27,1.27,0,0,1,1.41,1.26h0c0,1.52.06,3,.15,4.49a71.92,71.92,0,0,0,1,8.47c.12.66.25,1.3.38,1.94a3.33,3.33,0,0,1-3.76,4c-6.45-1-10.57-1.36-11,0-.52,1.71,5.55,4.54,15.16,7,.89.23,1.82.45,2.77.68a1.55,1.55,0,0,1,1,.84,32.42,32.42,0,0,0,6.61,9.45,14.71,14.71,0,0,0,6.71,3.94c1.82.38,2.82,0,2.87-.38s-.73-.9-2-1.78a20.89,20.89,0,0,1-4.56-4.53,29.25,29.25,0,0,1-2.28-3.51,1.44,1.44,0,0,1,1.46-2.12c1.35.2,2.74.38,4.17.53.8.06,1.6.15,2.43.19s1.69.08,2.46.09l4.81.09c3.24,0,6.53,0,9.83-.06,1.68,0,3.36-.08,5-.15a1.52,1.52,0,0,1,1.54,1.85,33.37,33.37,0,0,1-.92,3.35c-1.79,5.5-4.13,8.12-3.44,8.83.15.16.44.15.89,0a6.24,6.24,0,0,0,1.71-1.1,19.69,19.69,0,0,0,4.63-6.08,32.38,32.38,0,0,0,2.38-6.14,1.5,1.5,0,0,1,1.34-1.09c2.11-.15,4.19-.31,6.22-.51A146.66,146.66,0,0,0,128.78,203c1.3-.28,2.53-.58,3.69-.88a1.45,1.45,0,0,1,1.77,1.72v0c-1.27,5.68-3,8.74-2.21,9.3.35.25,1.18-.26,2.36-1.56a23,23,0,0,0,3.77-6.51,32.42,32.42,0,0,0,1.62-5.31l.51-.21c2.7-1.14,4.11-2.21,3.89-3.08s-1.49-1-3.66-1l0,0c.06-.6.12-1.21.16-1.83a55.9,55.9,0,0,0-1.09-15q-.15-.76-.33-1.53l0,0c5.78.9,9.4,1.3,9.81.06S145.73,173.66,139.14,171.53Zm-32-5.39a2.84,2.84,0,0,1-2.67-2.47c-.56-4.14-1.17-8.38-1.72-12.69q-.41-3.18-.75-6.42l0,0c2.81.14,5.58.36,8.26.66l4.42.6,2.14.3,2.08.37,1.28.22a2.46,2.46,0,0,1,1.88,1.6c2,5.68,4.22,11,6.17,16l0,0a2.85,2.85,0,0,1-3.15,3.85c-3.73-.64-7.76-1.15-12-1.58C111.18,166.38,109.16,166.25,107.12,166.14Zm-6-35.06c0-2.52,0-5.05.17-7.6a2.13,2.13,0,0,1,2.4-2c4.2.52,8.2,1.26,11.75,2a2.13,2.13,0,0,1,1.69,2h0a66.18,66.18,0,0,0,1.52,11,2.1,2.1,0,0,1-2.39,2.53l-.46-.08c-1.52-.25-3.07-.53-4.65-.75-2.56-.34-5.2-.59-7.89-.77a2.1,2.1,0,0,1-2-2C101.18,134,101.13,132.54,101.11,131.08ZM106.36,79a2.28,2.28,0,0,1,1.84-2.26c2.31-.45,4.59-.94,6.79-1.46,4.12-1,8-2.07,11.62-3.19a2.28,2.28,0,0,1,3,2.3c0,.13,0,.25,0,.38a76.94,76.94,0,0,1-1.4,9.69,62.22,62.22,0,0,1-2,7.28,2.24,2.24,0,0,1-1.62,1.48l-.82.21c-2.57.68-5.32,1.21-8.13,1.88-2.51.51-5.1,1-7.73,1.43a2.27,2.27,0,0,1-2.65-2.54c.2-1.5.39-3,.55-4.51A102.8,102.8,0,0,0,106.36,79ZM62.42,74.23a2.21,2.21,0,0,1-2.26-2.06,46.91,46.91,0,0,1,.89-11.91c.18-.93.38-1.86.6-2.78a2.21,2.21,0,0,1,2.07-1.72c2.9-.12,6-.38,9.1-.77A154.09,154.09,0,0,0,91.1,51.43l2.36-.62a3.16,3.16,0,0,1,3.92,2.55A142.92,142.92,0,0,1,99,69.15v0a2.2,2.2,0,0,1-1.84,2.28c-1.21.18-2.42.37-3.64.54-6.83.88-13.7,1.5-20.15,1.86C69.53,74,65.86,74.15,62.42,74.23Zm41.14-24.86h0a1.6,1.6,0,0,1,1.08-1.85,180.26,180.26,0,0,0,17.54-6.67,1.56,1.56,0,0,1,2.09.83q1.16,2.78,2.12,5.76a76.11,76.11,0,0,1,2.15,8.6c.41,2.31.73,4.69.94,7.1a1.57,1.57,0,0,1-1.16,1.66c-4.47,1.19-9.52,2.41-14.9,3.64l-3.49.72a3.43,3.43,0,0,1-4.1-3.11A125.5,125.5,0,0,0,103.56,49.37Zm-.85,61.32.48-3.11a4,4,0,0,1,3.33-3.35c3.64-.58,7.2-1.27,10.6-2l2.58-.66a1.48,1.48,0,0,1,1.71,2v0a53,53,0,0,0-3.49,10.7v0a2.68,2.68,0,0,1-3.31,2.07,92.69,92.69,0,0,0-9.76-1.92,2.63,2.63,0,0,1-2.24-3C102.64,111.22,102.68,111,102.71,110.69Zm3.72-95.31a87.86,87.86,0,0,1,12.32,15.5,3.42,3.42,0,0,1-1.81,5c-3.76,1.31-7.89,2.74-12.25,4.13a3.47,3.47,0,0,1-4.31-2.17,67.55,67.55,0,0,0-6.21-13.24,3.44,3.44,0,0,1,1.19-4.7,45.66,45.66,0,0,0,6.36-4.69A3.43,3.43,0,0,1,106.43,15.38Zm-41,29c1.6-5,3.09-9.6,4.18-13.81q.41-1.55.72-3a2.35,2.35,0,0,1,2.24-1.84c1.91,0,3.9-.18,5.7-.34a48.81,48.81,0,0,0,7.08-1.13A2.35,2.35,0,0,1,88,25.38a72.5,72.5,0,0,1,4.53,9.5q1.09,2.85,2,6a2.1,2.1,0,0,1-1.44,2.62l-3.75,1A177.91,177.91,0,0,1,71.88,48c-1.61.23-3.19.43-4.74.61a2.08,2.08,0,0,1-2.21-2.71C65.09,45.39,65.26,44.87,65.42,44.36ZM64.13,86.14A3.64,3.64,0,0,1,67.45,81q3,0,6.21-.1c6.66-.25,13.75-.88,20.8-1.8l1.74-.25a2.6,2.6,0,0,1,3,2.66c-.08,2.45-.26,4.94-.54,7.45-.22,2.13-.51,4.28-.82,6.44a3.68,3.68,0,0,1-3.32,3.13c-5.05.43-10.07.65-14.83.71l-4.25,0c-2.33,0-2,0-2.59,0a3.68,3.68,0,0,1-3.08-2c-.35-.67-.7-1.35-1.05-2-1.6-3.06-3.18-6-4.56-9Zm11.25,23.3a2.41,2.41,0,0,1,2.34-3.23l1.93.07c4.29,0,8.77-.13,13.3-.46a2.63,2.63,0,0,1,2.8,3c0,.27-.09.53-.12.79l-.24,1.62c-1,.86-1.65,1.39-2.66,2.26a86.41,86.41,0,0,0-13.52.71,2.62,2.62,0,0,1-2.85-1.86C76.06,111.37,75.73,110.4,75.38,109.44Zm15.77,11.21a3,3,0,0,1,2.94,3.15c-.13,2.47-.17,4.94-.13,7.38,0,1,.05,2,.09,3a3,3,0,0,1-2.88,3.07h0a120.14,120.14,0,0,0-15.62,1.52,1,1,0,0,1-1-1.32,43.33,43.33,0,0,0,3.12-10.5l.22-1.45h0c0-.49.06-1,.09-1.48v0a3,3,0,0,1,2.7-2.86A99.94,99.94,0,0,1,91.15,120.65ZM65.76,156c1.1-2.64,2.39-5.28,3.74-8a2.41,2.41,0,0,1,1.73-1.32l1.32-.24a138.42,138.42,0,0,1,18.83-2l1.23,0a2.43,2.43,0,0,1,2.45,2.16q.31,2.73.69,5.38c.5,3.64,1,7.18,1.56,10.61a2.84,2.84,0,0,1-2.81,3.29H91.35c-7.42.16-14.8.64-21.7,1.35L66,167.6a2.86,2.86,0,0,1-3.1-3.6A59.41,59.41,0,0,1,65.76,156Zm26.72,43.45c-3.23.06-6.45.07-9.63.06l-4.73-.05c-.8,0-1.52,0-2.23-.05s-1.46-.09-2.17-.13c-2.78-.24-5.5-.58-8.1-.95a3.29,3.29,0,0,1-2.74-2.47,61.94,61.94,0,0,1-1.24-6.6,73.48,73.48,0,0,1-.64-7.8c0-1.35,0-2.73,0-4.13v0a2.45,2.45,0,0,1,2.22-2.4l7.13-.71c6.75-.57,14-1,21.15-1.19,1.74,0,3.47,0,5.21,0a2.49,2.49,0,0,1,2.43,2.17c.55,4.32,1,8.45,1.18,12.31.1,1.29.11,2.54.15,3.77q0,.93.06,1.83c0,.6,0,1.19,0,1.77,0,.41,0,.81,0,1.2a3.3,3.3,0,0,1-3.18,3.26C95.7,199.35,94.09,199.39,92.48,199.43Zm41-19.47a59,59,0,0,1,1.8,13.51v.21a2.47,2.47,0,0,1-2.18,2.45c-1.65.19-3.46.42-5.39.66-4.78.59-10.35,1.23-16.36,1.7l-1.44.11a3.33,3.33,0,0,1-3.57-3.52v0c0-.63.08-1.25.12-1.89s0-1.28,0-1.93c0-1.3.08-2.64,0-4-.05-3.58-.28-7.34-.64-11.23a2.47,2.47,0,0,1,2.59-2.68c1.38.07,2.74.15,4.07.25,6.7.56,12.94,1.24,18.24,2.1h0a2.45,2.45,0,0,1,2,1.78Q133.18,178.73,133.48,180Z"/></g><path class="cls-10" d="M139.14,170.64a3,3,0,0,1-1.92-1.94c-.79-2.55-1.69-5.14-2.65-7.75-1.1-3-2.28-6-3.44-9.14a2.44,2.44,0,0,1,2.77-3.26c5.44,1.09,8.89,1.55,9.35.29.3-.82-1.06-2-3.68-3.4-.65-.35-1.39-.72-2.2-1.11s-1.71-.72-2.67-1.09c-1.77-.69-3.76-1.44-6-2.09l-1.86-1.89a71.85,71.85,0,0,1-2.29-11.17,2.77,2.77,0,0,1,3.06-3c1.75.18,2.87,0,3.22-.77.43-.94-.87-2.38-3.5-3.92a5.23,5.23,0,0,1-2.44-5.48l0-.12a46,46,0,0,1,3.06-9.3c1.12-2.67,2.41-5.43,3.53-8.34l0,0,1.32-.47c9-3.32,14.54-6.63,13.89-8.24-.45-1.13-3.35-.77-7.94.3a3.06,3.06,0,0,1-3.68-3.59v-.05a81.47,81.47,0,0,0,1.49-10.67c.07-1,.12-2,.14-3A6.09,6.09,0,0,1,140.32,66c5.23-2.42,8.13-4.54,7.67-5.66-.38-.91-2.53-.76-6,0a5.19,5.19,0,0,1-6.21-4.26c-.13-.77-.26-1.53-.41-2.28a79.84,79.84,0,0,0-2.52-9.4c-.47-1.37-1-2.71-1.51-4a5.41,5.41,0,0,1,1.93-6.29c2.64-1.76,4-3.2,3.55-4.05s-2.74-.66-6.34.38a4.77,4.77,0,0,1-5.32-2l0,0A68.35,68.35,0,0,0,107.06,9.36l-1.3-.85a1.3,1.3,0,0,0-.34-.51,2.42,2.42,0,0,0-1.28-.54H104c-3.55-2-5.82-2.66-6.15-2.09s.54,1.46,2.16,3l0,.09c-.73.32-1.51.7-2.33,1.15-1.86,1-3.9,2.25-6.06,3.43a5.37,5.37,0,0,1-6.4-.9c-.76-.77-1.5-1.47-2.21-2.11-1.21-1-2.3-2-3.26-2.71h0c-1-.7-1.91-1.27-2.65-1.69-1.49-.85-2.4-1.13-2.68-.79s.13,1.23,1.14,2.56c.5.67,1.15,1.44,1.93,2.32h0c.72.94,1.57,2,2.53,3.15.41.5.82,1,1.25,1.57a1.63,1.63,0,0,1-1,2.6q-1.41.23-2.82.42c-1.34.18-2.65.36-3.89.56a1.62,1.62,0,0,1-1.88-1.65,24.28,24.28,0,0,0-.38-5.31c-.37-1.69-.82-2.54-1.25-2.51-1,.08-1.13,3.53-2.54,9.27-.13.53-.27,1.09-.42,1.66l0,0c-2.18.76-3.45,1.7-3.32,2.93a1.41,1.41,0,0,0,.18.58,5.86,5.86,0,0,1,.62,4.73l-.12.33c-1.36,3.95-3.09,8.38-4.92,13.33-.38,1-.95,2.67-1.45,4.1a4.73,4.73,0,0,1-4.33,3.19L45.6,49c-2.65.1-4.27.33-4.5,1.21s1.15,1.94,3.88,2.87a35.53,35.53,0,0,0,6.93,1.45A2.89,2.89,0,0,1,54.41,58a56.68,56.68,0,0,0-1.27,9.74c0,.41,0,.83,0,1.25a4.56,4.56,0,0,1-4.5,4.48c-6.35.1-10.32.42-10.48,1.78-.19,1.52,5.25,3.15,13.93,4.08a3.57,3.57,0,0,1,3,2.42,63.78,63.78,0,0,0,2.64,6.54c.43.93,1.23,2.55,2,4.19a3.47,3.47,0,0,1-3.23,5c-5.09-.2-8.27,0-8.52,1.22-.51,2.51,10.27,4.55,15.54,5.39a4.4,4.4,0,0,1,3.35,2.56v0c.63,1.41,1.22,2.83,1.74,4.25a4.51,4.51,0,0,1-2.58,5.64l-.09,0a18.32,18.32,0,0,0-2.18,1,22,22,0,0,0-3.35,2c-1.73,1.4-2.47,2.51-2,3.28s1.79.87,3.73.48c1-.2,2.18-.37,3.48-.7.64-.18,1.36-.3,2.11-.45s1.52-.31,2.33-.5l.75-.14c0,.37,0,.74-.06,1.1s0,.76,0,1.13h0L70.5,125A37.13,37.13,0,0,1,67.77,134c-.47,1.13-1,2.26-1.51,3.38a5.92,5.92,0,0,1-3.89,3.25h0c-2.83.71-5.43,1.59-7.83,2.39s-4.54,1.71-6.44,2.49a42.17,42.17,0,0,0-4.79,2.35c-2.58,1.48-3.9,2.68-3.58,3.5s2.11.89,5,.37c1.43-.26,3.13-.67,5.09-1.1s4.11-1.09,6.51-1.61l.16,0a2.44,2.44,0,0,1,2.82,3.3v0a61.58,61.58,0,0,0-4.15,14,2.89,2.89,0,0,1-2.35,2.35L51,169c-10.85,2.11-17.86,4.46-17.53,6.16s7.65,1.21,18.47,0l1-.12a1.27,1.27,0,0,1,1.41,1.26h0c0,1.52.06,3,.15,4.49a72.35,72.35,0,0,0,1,8.48c.12.65.25,1.3.38,1.93a3.33,3.33,0,0,1-3.76,4c-6.45-1-10.57-1.36-11,0-.52,1.71,5.55,4.54,15.16,7.05.89.23,1.82.45,2.77.68a1.55,1.55,0,0,1,1,.84,32.42,32.42,0,0,0,6.61,9.45,14.71,14.71,0,0,0,6.71,3.94c1.82.38,2.82,0,2.87-.38s-.73-.9-2-1.78a20.89,20.89,0,0,1-4.56-4.53,28.47,28.47,0,0,1-2.28-3.51,1.43,1.43,0,0,1,1.46-2.11c1.35.19,2.74.37,4.17.52.8.06,1.6.15,2.43.19s1.69.08,2.46.09l4.81.09c3.24,0,6.53,0,9.83-.06,1.68,0,3.36-.08,5-.15a1.52,1.52,0,0,1,1.54,1.85,34.35,34.35,0,0,1-.92,3.36c-1.79,5.49-4.13,8.11-3.44,8.82.15.16.44.15.89,0a6.24,6.24,0,0,0,1.71-1.1,19.69,19.69,0,0,0,4.63-6.08,32.54,32.54,0,0,0,2.38-6.13,1.49,1.49,0,0,1,1.34-1.1c2.11-.14,4.19-.31,6.22-.51a146.66,146.66,0,0,0,16.78-2.58c1.3-.28,2.53-.58,3.69-.88a1.45,1.45,0,0,1,1.77,1.72v0c-1.27,5.68-3,8.74-2.21,9.3.35.25,1.18-.26,2.36-1.56a23,23,0,0,0,3.77-6.51,32.42,32.42,0,0,0,1.62-5.31l.51-.2c2.7-1.15,4.11-2.22,3.89-3.09s-1.49-1-3.66-1l0,0c.06-.6.12-1.2.16-1.82a56,56,0,0,0-1.09-15.06q-.15-.76-.33-1.53l0,0c5.78.9,9.4,1.3,9.81.06S145.73,172.77,139.14,170.64Zm-32-5.39a2.84,2.84,0,0,1-2.67-2.47c-.56-4.14-1.17-8.37-1.72-12.69q-.41-3.18-.75-6.42l0,0c2.81.14,5.58.36,8.26.66l4.42.6,2.14.3,2.08.37,1.28.22a2.46,2.46,0,0,1,1.88,1.6c2,5.68,4.22,11,6.17,16l0,.05a2.85,2.85,0,0,1-3.15,3.85c-3.73-.64-7.76-1.15-12-1.58C111.18,165.49,109.16,165.36,107.12,165.25Zm-6-35.06c0-2.52,0-5,.17-7.6a2.13,2.13,0,0,1,2.4-2c4.2.53,8.2,1.26,11.75,2a2.13,2.13,0,0,1,1.69,2h0a66.18,66.18,0,0,0,1.52,11,2.1,2.1,0,0,1-2.39,2.53l-.46-.08c-1.52-.25-3.07-.52-4.65-.75-2.56-.34-5.2-.59-7.89-.76a2.12,2.12,0,0,1-2-2C101.18,133.1,101.13,131.65,101.11,130.19Zm5.25-52.07a2.28,2.28,0,0,1,1.84-2.26c2.31-.45,4.59-.94,6.79-1.46,4.12-1,8-2.07,11.62-3.19a2.28,2.28,0,0,1,3,2.3c0,.13,0,.25,0,.38a76.68,76.68,0,0,1-1.4,9.69,62.22,62.22,0,0,1-2,7.28,2.28,2.28,0,0,1-1.62,1.49l-.82.2c-2.57.68-5.32,1.21-8.13,1.88-2.51.51-5.1,1-7.73,1.43a2.27,2.27,0,0,1-2.65-2.54c.2-1.5.39-3,.55-4.51a102.8,102.8,0,0,0,.59-10.67ZM62.42,73.34a2.21,2.21,0,0,1-2.26-2.06,46.91,46.91,0,0,1,.89-11.91c.18-.93.38-1.86.6-2.78a2.21,2.21,0,0,1,2.07-1.72c2.9-.12,6-.38,9.1-.77A154.09,154.09,0,0,0,91.1,50.54l2.36-.61a3.15,3.15,0,0,1,3.92,2.54A142.92,142.92,0,0,1,99,68.26v0a2.2,2.2,0,0,1-1.84,2.28c-1.21.18-2.42.37-3.64.54C86.67,72,79.8,72.6,73.35,73,69.53,73.13,65.86,73.26,62.42,73.34Zm41.14-24.86h0a1.6,1.6,0,0,1,1.08-1.85A180.26,180.26,0,0,0,122.18,40a1.56,1.56,0,0,1,2.09.83q1.16,2.78,2.12,5.76a76.11,76.11,0,0,1,2.15,8.6c.41,2.31.73,4.69.94,7.1a1.57,1.57,0,0,1-1.16,1.66c-4.47,1.19-9.52,2.41-14.9,3.64-1.15.24-2.31.49-3.49.72a3.43,3.43,0,0,1-4.1-3.11A125.73,125.73,0,0,0,103.56,48.48Zm-.85,61.32.48-3.11a4,4,0,0,1,3.33-3.35c3.64-.58,7.2-1.27,10.6-2l2.58-.66a1.48,1.48,0,0,1,1.71,2v0a53.22,53.22,0,0,0-3.49,10.7v0a2.69,2.69,0,0,1-3.31,2.08,87.86,87.86,0,0,0-9.76-1.92,2.65,2.65,0,0,1-2.24-3C102.64,110.33,102.68,110.07,102.71,109.8Zm3.72-95.3A87.43,87.43,0,0,1,118.75,30a3.42,3.42,0,0,1-1.81,5c-3.76,1.31-7.89,2.74-12.25,4.13A3.47,3.47,0,0,1,100.38,37a67.55,67.55,0,0,0-6.21-13.24A3.44,3.44,0,0,1,95.36,19a45.66,45.66,0,0,0,6.36-4.69A3.42,3.42,0,0,1,106.43,14.5Zm-41,29c1.6-5,3.09-9.6,4.18-13.81q.41-1.55.72-3a2.35,2.35,0,0,1,2.24-1.84c1.91,0,3.9-.18,5.7-.34a47.48,47.48,0,0,0,7.08-1.13A2.35,2.35,0,0,1,88,24.49,73.12,73.12,0,0,1,92.5,34q1.09,2.85,2,6A2.1,2.1,0,0,1,93.1,42.6l-3.75,1a177.91,177.91,0,0,1-17.47,3.53c-1.61.23-3.19.43-4.74.61A2.08,2.08,0,0,1,64.93,45C65.09,44.5,65.26,44,65.42,43.47ZM64.13,85.25a3.64,3.64,0,0,1,3.32-5.15q3,0,6.21-.1c6.66-.25,13.75-.88,20.8-1.8L96.2,78a2.6,2.6,0,0,1,3,2.66q-.12,3.69-.54,7.45c-.22,2.13-.51,4.28-.82,6.44a3.68,3.68,0,0,1-3.32,3.13c-5.05.43-10.07.65-14.83.71l-4.25,0c-2.33,0-2,0-2.59,0a3.66,3.66,0,0,1-3.08-2c-.35-.67-.7-1.35-1.05-2-1.6-3.06-3.18-6-4.56-9Zm11.25,23.3a2.41,2.41,0,0,1,2.34-3.23l1.93.07c4.29,0,8.77-.13,13.3-.46a2.63,2.63,0,0,1,2.8,3c0,.27-.09.53-.12.8l-.24,1.61-2.66,2.26a86.41,86.41,0,0,0-13.52.71,2.62,2.62,0,0,1-2.85-1.86C76.06,110.48,75.73,109.51,75.38,108.55Zm15.77,11.21a3,3,0,0,1,2.94,3.15c-.13,2.47-.17,5-.13,7.39q0,1.48.09,3a3,3,0,0,1-2.88,3.07h0a120.13,120.13,0,0,0-15.62,1.53,1,1,0,0,1-1-1.33A43.33,43.33,0,0,0,77.59,126l.22-1.45h0c0-.49.06-1,.09-1.48v0a3,3,0,0,1,2.7-2.86A99.94,99.94,0,0,1,91.15,119.76ZM65.76,155.09c1.1-2.64,2.39-5.28,3.74-8a2.41,2.41,0,0,1,1.73-1.32l1.32-.24a138.42,138.42,0,0,1,18.83-2l1.23,0a2.43,2.43,0,0,1,2.45,2.16q.31,2.73.69,5.38c.5,3.64,1,7.18,1.56,10.62a2.84,2.84,0,0,1-2.81,3.28H91.35c-7.42.16-14.8.65-21.7,1.35l-3.66.43a2.86,2.86,0,0,1-3.1-3.6A59.9,59.9,0,0,1,65.76,155.09Zm26.72,43.45c-3.23.07-6.45.07-9.63.07l-4.73-.06c-.8,0-1.52,0-2.23-.05s-1.46-.09-2.17-.13c-2.78-.23-5.5-.58-8.1-1A3.29,3.29,0,0,1,62.88,195a61.94,61.94,0,0,1-1.24-6.6,73.48,73.48,0,0,1-.64-7.8c0-1.35,0-2.73,0-4.13v0A2.45,2.45,0,0,1,63.2,174q3.47-.36,7.13-.7c6.75-.58,14-1,21.15-1.2,1.74,0,3.47,0,5.21,0a2.47,2.47,0,0,1,2.43,2.16c.55,4.32,1,8.45,1.18,12.31.1,1.29.11,2.54.15,3.78l.06,1.82c0,.6,0,1.19,0,1.78,0,.4,0,.8,0,1.19a3.3,3.3,0,0,1-3.18,3.26C95.7,198.46,94.09,198.5,92.48,198.54Zm41-19.47a59,59,0,0,1,1.8,13.51v.21a2.47,2.47,0,0,1-2.18,2.45c-1.65.19-3.46.42-5.39.66-4.78.59-10.35,1.23-16.36,1.7l-1.44.11a3.33,3.33,0,0,1-3.57-3.52v0q.06-.93.12-1.89c0-.64,0-1.28,0-1.93,0-1.3.08-2.64,0-4-.05-3.58-.28-7.34-.64-11.23a2.47,2.47,0,0,1,2.59-2.68c1.38.07,2.74.15,4.07.25,6.7.57,12.94,1.24,18.24,2.11h0a2.45,2.45,0,0,1,2,1.78Q133.18,177.84,133.48,179.07Z"/><path class="cls-11" d="M152.22,66.08c0-23.57-11.94-39.61-26.89-50C111,6.2,66.75-11.8,66.75,11.17c0,6.43-30.16,19.87-30.16,54.91s21.35,39,21.35,51.33c0,13.07-25.8,21.46-25.8,59.71,0,24.06,22.39,43.41,62.26,43.41s57.52-18.94,57.52-43.41c0-34.79-20.3-43.68-21-61.69C130.28,101.12,152.22,97.17,152.22,66.08Zm-7.41,108c0,23.36-15.54,41.45-50.67,41.45S39.29,197.07,39.29,174.1c0-36.52,22.72-44.53,22.72-57,0-11.78-18.8-15.55-18.8-49s26.57-46.3,26.57-52.43c0-21.94,39-4.74,51.61,4.73,13.16,9.88,23.68,25.2,23.68,47.7,0,29.68-19.33,33.45-18.8,47.12C126.92,132.39,144.81,140.88,144.81,174.1Z"/><path class="cls-12" d="M150.42,66.49c0-23.36-11.58-39.25-26.08-49.51-13.89-9.82-56.83-27.66-56.83-4.9,0,6.37-29.26,19.69-29.26,54.41S59,105.12,59,117.34c0,13-25,21.27-25,59.17,0,23.84,21.71,43,60.4,43s55.79-18.77,55.79-43c0-34.48-19.69-43.28-20.42-61.12C129.14,101.2,150.42,97.29,150.42,66.49Zm-5.95,107.67c0,23.38-15.44,41-50.34,41s-54.5-18-54.5-41c0-36.55,22.58-44.57,22.58-57.07,0-11.79-18.69-15.56-18.69-49s26.4-46.34,26.4-52.48c0-21.95,38.75-4.74,51.28,4.74,13.08,9.89,23.53,25.22,23.53,47.74,0,29.71-19.2,33.49-18.69,47.16C126.7,132.41,144.47,140.91,144.47,174.16Z"/><g class="cls-3"><path class="cls-13" d="M136.85,97.82c-6.22-5.81-19.34.45-43.19.45s-40-7.2-43.19-.45c-1,2.06-.19,4.21,1.91,6.26,5.81,5.68,9.72,13.6,6.39,20a3,3,0,0,0,.38,3.69c5.49,5.81,13.95-1.27,35-1.27s34.31,8,37.13,1.27a5,5,0,0,0-.41-4.5c-3.63-6.5-3.31-13.79,2.46-19.61C135.25,101.8,138.41,99.28,136.85,97.82Z"/></g><g class="cls-3"><path class="cls-13" d="M69.93,7.73C71.6,5.47,81.5,9.21,81.28,15.35s-11.27,4.11-11.5.3S68.26,10,69.93,7.73Z"/></g><g class="cls-6"><path class="cls-14" d="M74,24.16c3.81,3.67-.07,9.8-6.33,16.3s-12.52,10.9-16.34,7.22-1.84-11.92,4.42-18.42S70.22,20.48,74,24.16Z"/></g><g class="cls-3"><path class="cls-13" d="M149.42,47.44a68.91,68.91,0,0,1,.48,8.14c0,31.09-21.09,35-20.52,49.35a26.68,26.68,0,0,0,1.62,8c1.82-12.42,21.22-17.66,21.22-46.9A61,61,0,0,0,149.42,47.44Z"/><path class="cls-13" d="M59.26,106.9c0-12.33-20.53-16.28-20.53-51.32a58.76,58.76,0,0,1,.3-5.89,54.91,54.91,0,0,0-2.44,16.39c0,31.18,16.89,37.74,20.61,47.5A13.33,13.33,0,0,0,59.26,106.9Z"/><path class="cls-13" d="M149.62,166.62c0,24.47-17,43.41-55.3,43.41s-59.86-19.35-59.86-43.41a77.56,77.56,0,0,1,.6-9.85,67.58,67.58,0,0,0-2.92,20.35c0,24.06,22.39,43.41,62.26,43.41s57.52-18.94,57.52-43.41a71.06,71.06,0,0,0-3-21.07A81.87,81.87,0,0,1,149.62,166.62Z"/></g><g class="cls-15"><ellipse class="cls-16" cx="83.11" cy="158.47" rx="27.02" ry="22.1"/></g><g class="cls-3"><path class="cls-17" d="M143.5,88.73c-2.79-1.74-7.19.51-10.25.76a21.84,21.84,0,0,1-8.9-1A13.77,13.77,0,0,1,119,85.1c-1.3-1.3-2-2.87-3.15-4.24-.76-.92-2.17-.12-2.21.92-.18,4.67,5.09,8.83,8.86,10.46a22.63,22.63,0,0,0,10,1.67c3.28-.13,9.9-.25,11.39-3.75A1.07,1.07,0,0,0,143.5,88.73Z"/><path class="cls-17" d="M74.76,81.08c-1.09,1.31-1.76,2.83-3,4.09a14.19,14.19,0,0,1-5.53,3.57,21.71,21.71,0,0,1-8.51,1A39.32,39.32,0,0,1,52,88.79c-1.74-.37-3.32-.84-4.92.16a1.1,1.1,0,0,0-.38,1.43c1.5,3.51,8.11,3.63,11.39,3.76a23,23,0,0,0,10-1.67c3.77-1.64,9-5.79,8.86-10.47C76.94,81,75.53,80.17,74.76,81.08Z"/></g><path class="cls-2" d="M110.26,82s18-15.84,38.43-24.84C150.23,101.66,112.6,103,110.26,82Z"/><path class="cls-2" d="M79.87,82s-12-10.54-38.43-24.84C39.9,101.66,77.53,103,79.87,82Z"/><path class="cls-2" d="M81.34,108.21c-4.24-7,6.38-21,13.84-21s17.38,15.12,13.83,21c-2,3.4-6.74,4.32-13.83,4.32S83.45,111.67,81.34,108.21Z"/><path class="cls-18" d="M95.28,105a22,22,0,0,0-11.42,3c2.1,2.17,5.89,2.74,11.32,2.74s9.12-.6,11.21-2.66A20.46,20.46,0,0,0,95.28,105Z"/><g class="cls-3"><path class="cls-17" d="M107.31,83.86c-.73-2.27-.45-4.7-.2-7,.08-.78-1.21-1-1.38-.18-.86,3.95-1.46,8.06,1.34,11.39a1.17,1.17,0,0,0,1.13.3l.32-.07a.61.61,0,0,0,.45-.44C109.18,86.29,107.77,85.31,107.31,83.86Z"/><path class="cls-17" d="M82.71,76.18a23.67,23.67,0,0,1,.13,5.45,19.9,19.9,0,0,1-1.62,5C80.71,87.89,82.65,89,83.5,88c2.78-3.29,1.61-8.17.82-12C84.14,75.06,82.61,75.25,82.71,76.18Z"/><path class="cls-17" d="M101.11,79.91a.83.83,0,0,0-1.62-.22,8.74,8.74,0,0,0,.2,4.16c.38,1.26,2.42.64,1.94-.53A7.1,7.1,0,0,1,101.11,79.91Z"/><path class="cls-17" d="M89.45,80.79l-.12,2.83a1,1,0,0,0,2.09,0l-.12-2.83A.93.93,0,0,0,89.45,80.79Z"/></g><path class="cls-19" d="M123.25,46.22c1.24,4.39,2.71,8,1,13.41-1.09,3.48-9.32,15.25-6.56,23.26C121.13,92.8,140.05,92,139.89,79c-.09-6.79-5.69-8.46-5.64-16.75-2,2.51-3.7,4-3.64,8.09,0,1.52.09,1.6-.61,1.66s-.43-2.16.09-4.51c3.39-14-.74-16.34-6.84-21.3Z"/><path class="cls-20" d="M136.86,79.07c0-2.66-1.19-4.32-2.43-6.08-.27-.4-.56-.81-.84-1.24a4,4,0,0,1-.13.77,3.56,3.56,0,0,1-3.61,2.55,3.3,3.3,0,0,1-3.37-2.35c-.4-1.5.07-3.45.67-5.91.8-3.3,1.73-7.13.83-10.55a20.16,20.16,0,0,1-.83,4.27,33.12,33.12,0,0,1-2,4.31c-2.49,4.88-6.25,12.25-4.59,17.07a6.44,6.44,0,0,0,3.66,3.77,10.19,10.19,0,0,0,4.31.94,10.34,10.34,0,0,0,2-.19C136.32,85.35,136.89,80.92,136.86,79.07Z"/><path class="cls-19" d="M55.88,46.22c1.24,4.39,2.71,8,1,13.41-1.09,3.48-9.32,15.25-6.56,23.26C53.76,92.8,72.68,92,72.52,79c-.09-6.79-5.69-8.46-5.64-16.75-2,2.51-3.7,4-3.65,8.09,0,1.52.1,1.6-.6,1.66s-.44-2.16.09-4.51c3.39-14-.74-16.34-6.84-21.3Z"/><path class="cls-20" d="M69.49,79.07c0-2.66-1.19-4.32-2.43-6.08-.27-.4-.56-.81-.84-1.24a4,4,0,0,1-.13.77,3.56,3.56,0,0,1-3.61,2.55,3.3,3.3,0,0,1-3.37-2.35c-.4-1.5.07-3.45.67-5.91.8-3.3,1.73-7.13.83-10.55a20.16,20.16,0,0,1-.83,4.27,33.12,33.12,0,0,1-2,4.31c-2.49,4.88-6.25,12.25-4.59,17.07a6.44,6.44,0,0,0,3.66,3.77,10.19,10.19,0,0,0,4.31.94,10.34,10.34,0,0,0,2-.19C69,85.35,69.52,80.92,69.49,79.07Z"/></g></g></g></svg>