<svg xmlns="http://www.w3.org/2000/svg" viewBox="0 0 195.45 252.65"><defs><style>.cls-1{isolation:isolate;}.cls-2{fill:#133441;}.cls-3{mix-blend-mode:multiply;}.cls-4{fill:#dbdacb;}.cls-5{fill:#45d5da;}.cls-6{mix-blend-mode:soft-light;}.cls-7{fill:#fff;}.cls-8{fill:#88dbdb;}.cls-9{mix-blend-mode:overlay;}.cls-10{fill:#c5f0f0;}.cls-11{fill:#ffbc27;}.cls-12{fill:#fc9d06;}.cls-13{fill:#fcfcfc;}.cls-14{fill:#bae3e3;}.cls-15{fill:#e0e0e0;}.cls-16{fill:#ccc;}.cls-17{fill:#a3c7c7;}.cls-18{fill:#b8c8d1;}.cls-19{fill:#fd6c6c;}.cls-20{fill:#d72626;}</style></defs><g class="cls-1"><g id="Calque_2" data-name="Calque 2"><g id="Orange_attaque"><path class="cls-2" d="M168.39,167.46h-.07c-5.3,0-9.94-4.66-13.79-13.75A2.21,2.21,0,0,1,158.6,152c2.12,5,5.54,11,9.75,11.06h0c5.83,0,12-11,13.73-14.89a2.21,2.21,0,1,1,4,1.78C185.37,151.73,178.15,167.46,168.39,167.46Z"/><path class="cls-2" d="M195.4,150.22a2.2,2.2,0,0,0-2.62-1.69,7.7,7.7,0,0,1-2.83.11,8.19,8.19,0,0,0,3.76-4.57,2.21,2.21,0,1,0-4.16-1.48,4.23,4.23,0,0,1-4.71,2.76h-.06a2.73,2.73,0,0,1-1.78-.75,1.88,1.88,0,0,1-.22-1.25,2.2,2.2,0,0,0-4.3-1,6.27,6.27,0,0,0,.89,4.72,6,6,0,0,0,3.1,2.23c.95,6.18,5.36,8.43,7.74,8.75a1.51,1.51,0,0,0,.3,0,2.22,2.22,0,0,0,2.2-1.91,2.19,2.19,0,0,0-1.88-2.47,4.42,4.42,0,0,1-1.61-.71,10.63,10.63,0,0,0,1.73.14,13.12,13.12,0,0,0,2.75-.3A2.21,2.21,0,0,0,195.4,150.22Z"/><path class="cls-2" d="M27.06,167.46c-9.76,0-17-15.73-17.77-17.52a2.21,2.21,0,0,1,4-1.78C15,152,21.22,163.05,27.06,163.05h0c4.22,0,7.63-6,9.76-11.06a2.2,2.2,0,0,1,4.06,1.72c-3.84,9.09-8.48,13.71-13.78,13.75Z"/><path class="cls-2" d="M14.31,140.71a2.18,2.18,0,0,0-1.64,2.63,1.87,1.87,0,0,1-.23,1.25,2.71,2.71,0,0,1-1.77.75H10.6a4.29,4.29,0,0,1-4.7-2.76,2.21,2.21,0,0,0-4.16,1.48,8.19,8.19,0,0,0,3.76,4.57,7.7,7.7,0,0,1-2.83-.11,2.2,2.2,0,1,0-.93,4.31,13.26,13.26,0,0,0,2.75.3A11.79,11.79,0,0,0,6.23,153a4.09,4.09,0,0,1-1.58.7,2.2,2.2,0,0,0,.29,4.39,1.51,1.51,0,0,0,.3,0c2.38-.32,6.79-2.57,7.74-8.75a6,6,0,0,0,3.09-2.23,6.25,6.25,0,0,0,.9-4.72A2.23,2.23,0,0,0,14.31,140.71Z"/><g class="cls-3"><ellipse class="cls-4" cx="99.85" cy="241.49" rx="73.47" ry="11.16"/></g><path class="cls-2" d="M126,243.94h-.15a10.88,10.88,0,0,1-5.86-1.84,2.2,2.2,0,0,1-.47-3,25.69,25.69,0,0,0,1-23.81,2.21,2.21,0,0,1,4-1.82,30.37,30.37,0,0,1-.08,25.77,9.83,9.83,0,0,0,1.69.25,2.21,2.21,0,0,1-.14,4.41Z"/><path class="cls-2" d="M71.15,243.94a2.21,2.21,0,0,1-.15-4.41,10.34,10.34,0,0,0,1.61-.23c-2.33-4.47-6.18-14.78.1-26a2.2,2.2,0,1,1,3.84,2.16c-6.81,12.14.72,23.13,1,23.59a2.19,2.19,0,0,1-.44,3,10.82,10.82,0,0,1-5.85,1.84Z"/><path class="cls-5" d="M126.36,10a8.78,8.78,0,0,0-7.43-8.37A157.3,157.3,0,0,0,74,1.61,8.78,8.78,0,0,0,66.57,10c-.15,3.2-.27,6.4-.39,9.61h60.57C126.63,16.38,126.51,13.18,126.36,10Z"/><path class="cls-5" d="M126.36,10a8.78,8.78,0,0,0-7.43-8.37A157.3,157.3,0,0,0,74,1.61,8.78,8.78,0,0,0,66.57,10c-.15,3.2-.27,6.4-.39,9.61h60.57C126.63,16.38,126.51,13.18,126.36,10Z"/><g class="cls-6"><path class="cls-7" d="M66.57,12.06A8.78,8.78,0,0,1,74,3.69a158,158,0,0,1,44.93,0,8.78,8.78,0,0,1,7.43,8.37c.12,2.51.21,5,.31,7.53h.08c-.12-3.21-.24-6.41-.39-9.61a8.78,8.78,0,0,0-7.43-8.37A157.3,157.3,0,0,0,74,1.61,8.78,8.78,0,0,0,66.57,10c-.15,3.2-.27,6.4-.39,9.61h.09C66.36,17.08,66.45,14.57,66.57,12.06Z"/></g><g class="cls-3"><path class="cls-8" d="M123.58,16.81a7.58,7.58,0,0,0-6.74-7,154.43,154.43,0,0,0-40.75,0,7.58,7.58,0,0,0-6.74,7q-.19,4-.35,8h54.93C123.83,22.16,123.72,19.48,123.58,16.81Z"/></g><path class="cls-5" d="M141.88,218.75a358.59,358.59,0,0,1-90.83,0c-8.32-1.05-14.62-7.36-15-15a1666,1666,0,0,1,0-173.4c.4-7.64,6.7-13.95,15-15a359.52,359.52,0,0,1,90.83,0c8.32,1.06,14.62,7.37,15,15a1666,1666,0,0,1,0,173.4C156.5,211.39,150.2,217.7,141.88,218.75Z"/><g class="cls-9"><path class="cls-7" d="M156.9,30.34c-.4-7.64-6.7-13.95-15-15a359.52,359.52,0,0,0-90.83,0c-8.32,1.06-14.62,7.37-15,15a1666,1666,0,0,0,0,173.4c.4,7.65,6.7,14,15,15a358.59,358.59,0,0,0,90.83,0c8.32-1.05,14.62-7.36,15-15A1666,1666,0,0,0,156.9,30.34Zm-1.52,171.85c-.39,7.51-6.52,13.71-14.64,14.75a348.06,348.06,0,0,1-88.55,0c-8.12-1-14.25-7.24-14.64-14.75a1645.21,1645.21,0,0,1,0-170.3c.39-7.51,6.52-13.71,14.64-14.74a347.15,347.15,0,0,1,88.55,0c8.12,1,14.25,7.23,14.64,14.74A1645.21,1645.21,0,0,1,155.38,202.19Z"/></g><g class="cls-3"><path class="cls-10" d="M39.81,69.72c-.1-17.83-.73-32.23,9-41.71s82.43-9.1,92.37-3.79S152.31,52.59,152.31,69C152.31,111.8,40.05,112.18,39.81,69.72Z"/></g><g class="cls-6"><path class="cls-7" d="M156.9,30.34c-.4-7.64-6.7-13.95-15-15a359.52,359.52,0,0,0-90.83,0c-8.32,1.06-14.62,7.37-15,15v.15C37.61,24,43.68,18.94,51.05,18a359.52,359.52,0,0,1,90.83,0C150,19,156.26,25,157,32.32,157,31.66,156.93,31,156.9,30.34Z"/></g><g class="cls-9"><g class="cls-6"><path class="cls-7" d="M135.63,210.09a309.26,309.26,0,0,1-78.33,0c-7.18-.92-12.61-6.37-12.95-13a1439.63,1439.63,0,0,1,0-149.81c.34-6.61,5.77-12.06,12.95-13a309.26,309.26,0,0,1,78.33,0c7.18.91,12.61,6.36,13,13a1439.63,1439.63,0,0,1,0,149.81C148.24,203.72,142.81,209.17,135.63,210.09Z"/></g></g><path class="cls-11" d="M42.78,78c.29,8.29.64,112.58,1.09,120.88.35,6.37,5.83,11.63,13.07,12.5a325.82,325.82,0,0,0,79.07,0c7.25-.87,12.73-6.13,13.07-12.5.44-8,.75-112,1.07-120.08C150.58,67.78,42.44,68.12,42.78,78Z"/><g class="cls-3"><path class="cls-12" d="M44.28,79.07c.29,7.72.63,111.44,1.07,119.16.34,5.92,5.67,10.82,12.72,11.64a332.29,332.29,0,0,0,77,0c7-.82,12.38-5.72,12.72-11.64.43-7.47.73-110.94,1-118.41C149.2,69.61,44,69.92,44.28,79.07Z"/></g><g class="cls-6"><ellipse class="cls-13" cx="97.49" cy="83.45" rx="41.66" ry="5.56"/></g><g class="cls-3"><path class="cls-14" d="M131.79,204c-14.47,3.56-55.51,4.44-69.88.79-5-1.28-30-16.05,34.05-16.14C152.74,188.59,144.09,201,131.79,204Z"/></g><g class="cls-6"><path class="cls-15" d="M67.42,187a5.15,5.15,0,1,0,5.15,5.15A5.15,5.15,0,0,0,67.42,187Z"/></g><g class="cls-6"><path class="cls-15" d="M122.55,50.7A4.42,4.42,0,1,0,127,55.11,4.41,4.41,0,0,0,122.55,50.7Z"/></g><g class="cls-6"><path class="cls-15" d="M64.46,55.26a2.68,2.68,0,1,0,2.68-2.68A2.68,2.68,0,0,0,64.46,55.26Z"/></g><g class="cls-6"><path class="cls-15" d="M131.35,83.21a2.68,2.68,0,1,0-2.68-2.68A2.68,2.68,0,0,0,131.35,83.21Z"/></g><g class="cls-6"><path class="cls-15" d="M131.66,183.63a2.68,2.68,0,1,0,2.67,2.68A2.68,2.68,0,0,0,131.66,183.63Z"/></g><g class="cls-9"><path class="cls-16" d="M44.35,50c.34-6.6,5.77-12,12.95-13a309.26,309.26,0,0,1,78.33,0c7.18.92,12.61,6.37,13,13q1.92,36.78,1.94,73.54,0-38.13-1.94-76.27c-.34-6.61-5.77-12.06-13-13a309.26,309.26,0,0,0-78.33,0c-7.18.91-12.61,6.36-12.95,13q-2,38.13-1.94,76.27Q42.44,86.82,44.35,50Z"/></g><path class="cls-7" d="M74.12,9.17c-1.44,1.21-3.23,1.45-4,.54s-.22-2.64,1.22-3.85,3.24-1.46,4-.54S75.56,8,74.12,9.17Z"/><ellipse class="cls-7" cx="52.88" cy="31.84" rx="11.79" ry="7.69" transform="translate(-7.46 44.84) rotate(-43.21)"/><g class="cls-3"><path class="cls-17" d="M103,48.82c-1.28-.91-21.59,13.32-20.42,16.09s10.8-1.11,11.89,0-8.06,12.92-6.91,14.57,20.93-17.8,20.06-19.72-10.23,1.92-10.89,0S104.3,49.73,103,48.82Z"/></g><g class="cls-3"><path class="cls-18" d="M147.67,131.68c-2.83-1.76-7.31.52-10.41.77a22.15,22.15,0,0,1-9-1,14,14,0,0,1-5.46-3.46c-1.32-1.33-2-2.92-3.2-4.32-.77-.92-2.21-.12-2.25.94-.18,4.75,5.17,9,9,10.63a23.39,23.39,0,0,0,10.17,1.7c3.33-.13,10.05-.26,11.57-3.82A1.1,1.1,0,0,0,147.67,131.68Z"/><path class="cls-18" d="M77.84,123.91c-1.11,1.34-1.79,2.88-3,4.15a14.32,14.32,0,0,1-5.61,3.63,21.86,21.86,0,0,1-8.65,1,40.54,40.54,0,0,1-5.8-.95c-1.77-.38-3.37-.86-5,.16a1.1,1.1,0,0,0-.38,1.45c1.52,3.56,8.24,3.68,11.57,3.81a23.24,23.24,0,0,0,10.17-1.69c3.82-1.67,9.17-5.88,9-10.64C80.06,123.8,78.62,123,77.84,123.91Z"/></g><path class="cls-2" d="M113.9,124.84s18.23-16.09,39-25.24C154.5,144.82,116.28,146.18,113.9,124.84Z"/><path class="cls-2" d="M83,124.84S70.9,114.13,44,99.6C42.43,144.82,80.66,146.18,83,124.84Z"/><path class="cls-2" d="M84.53,151.47c-4.31-7.09,6.48-21.39,14.06-21.39s17.65,15.37,14,21.39c-2.06,3.46-6.84,4.39-14,4.39S86.67,155,84.53,151.47Z"/><path class="cls-19" d="M98.68,148.16a22.32,22.32,0,0,0-11.59,3.06c2.13,2.21,6,2.79,11.49,2.79s9.26-.61,11.39-2.7A20.75,20.75,0,0,0,98.68,148.16Z"/><g class="cls-3"><path class="cls-18" d="M110.9,126.73c-.74-2.3-.45-4.77-.2-7.14.09-.79-1.23-1-1.39-.18-.88,4-1.49,8.19,1.35,11.57a1.19,1.19,0,0,0,1.15.3l.32-.06a.64.64,0,0,0,.46-.45C112.81,129.2,111.38,128.2,110.9,126.73Z"/><path class="cls-18" d="M85.91,118.93a23.36,23.36,0,0,1,.14,5.54,20.11,20.11,0,0,1-1.64,5.08c-.52,1.27,1.44,2.36,2.31,1.34,2.82-3.33,1.64-8.29.84-12.18C87.37,117.8,85.82,118,85.91,118.93Z"/><path class="cls-18" d="M104.6,122.73a.84.84,0,0,0-1.64-.23,8.91,8.91,0,0,0,.21,4.23c.38,1.28,2.45.65,2-.55A7.39,7.39,0,0,1,104.6,122.73Z"/><path class="cls-18" d="M92.76,123.61l-.12,2.88a1.06,1.06,0,0,0,2.12,0l-.12-2.88A.94.94,0,0,0,92.76,123.61Z"/></g><path class="cls-7" d="M127.1,88.5c1.26,4.45,2.75,8.1,1,13.62-1.11,3.54-9.46,15.49-6.66,23.63,3.47,10.07,22.69,9.27,22.53-3.92-.09-6.9-5.78-8.59-5.73-17-2,2.54-3.75,4-3.7,8.21,0,1.55.1,1.63-.61,1.69s-.45-2.2.09-4.59c3.44-14.22-.75-16.6-7-21.63Z"/><path class="cls-20" d="M140.93,121.87c0-2.7-1.22-4.39-2.47-6.18-.28-.41-.57-.82-.85-1.26a5.22,5.22,0,0,1-.14.79,3.62,3.62,0,0,1-3.67,2.58,3.34,3.34,0,0,1-3.42-2.38c-.4-1.52.08-3.5.68-6,.81-3.35,1.75-7.24.84-10.71a20.1,20.1,0,0,1-.84,4.33,33.4,33.4,0,0,1-2,4.38c-2.53,5-6.35,12.45-4.66,17.34a6.55,6.55,0,0,0,3.71,3.84,10.53,10.53,0,0,0,4.39.95,10.73,10.73,0,0,0,2-.19C140.37,128.25,141,123.75,140.93,121.87Z"/><path class="cls-7" d="M58.66,88.5c1.26,4.45,2.76,8.1,1,13.62-1.1,3.54-9.46,15.49-6.65,23.63,3.47,10.07,22.68,9.27,22.52-3.92-.08-6.9-5.77-8.59-5.73-17-2,2.54-3.75,4-3.7,8.21,0,1.55.1,1.63-.61,1.69s-.44-2.2.09-4.59c3.44-14.22-.75-16.6-7-21.63Z"/><path class="cls-20" d="M72.49,121.87c0-2.7-1.21-4.39-2.47-6.18-.28-.41-.57-.82-.85-1.26a5.21,5.21,0,0,1-.13.79,3.63,3.63,0,0,1-3.68,2.58,3.35,3.35,0,0,1-3.42-2.38c-.4-1.52.08-3.5.69-6,.81-3.35,1.75-7.24.83-10.71a19,19,0,0,1-.84,4.33,32.11,32.11,0,0,1-2,4.38c-2.53,5-6.35,12.45-4.66,17.34a6.57,6.57,0,0,0,3.72,3.84,10.48,10.48,0,0,0,4.38.95,10.65,10.65,0,0,0,2-.19C71.94,128.25,72.52,123.75,72.49,121.87Z"/></g></g></g></svg>