<svg xmlns="http://www.w3.org/2000/svg" viewBox="0 0 197.74 258.53"><defs><style>.cls-1{isolation:isolate;}.cls-2{fill:#133441;}.cls-3{mix-blend-mode:multiply;}.cls-4{fill:#dbdacb;}.cls-5{fill:#45d5da;}.cls-6{mix-blend-mode:soft-light;}.cls-7{fill:#fff;}.cls-8{fill:#88dbdb;}.cls-9{mix-blend-mode:overlay;}.cls-10{fill:#c5f0f0;}.cls-11{fill:#ffbc27;}.cls-12{fill:#fc9d06;}.cls-13{fill:#fcfcfc;}.cls-14{fill:#bae3e3;}.cls-15{fill:#e0e0e0;}.cls-16{fill:#ccc;}.cls-17{fill:#a3c7c7;}.cls-18{fill:#ab1700;}.cls-19{fill:#fd6c6c;}</style></defs><g class="cls-1"><g id="Calque_2" data-name="Calque 2"><g id="Orange_en_attente"><path class="cls-2" d="M170.62,170.21h-.07c-5.3,0-9.94-4.67-13.78-13.76a2.2,2.2,0,1,1,4.06-1.71c2.13,5,5.55,11,9.76,11.06h0c5.85,0,12-11,13.73-14.9a2.21,2.21,0,1,1,4,1.78C187.6,154.48,180.38,170.21,170.62,170.21Z"/><path class="cls-2" d="M195.89,151.27c.22-.1.44-.19.66-.31a2.2,2.2,0,1,0-2-3.91h0a11.89,11.89,0,0,1-5.36,1.22,13.14,13.14,0,0,1-1.47-.08,4.34,4.34,0,0,1-1-1.24,2.36,2.36,0,0,1-.26-1.07,2,2,0,0,1,.09-.6.4.4,0,0,1,0-.12h0a2.2,2.2,0,0,0-3.93-2h0a4.76,4.76,0,0,0-.33.86,6.36,6.36,0,0,0-.27,1.85,6.86,6.86,0,0,0,.71,3,8.67,8.67,0,0,0,2.13,2.71,15.36,15.36,0,0,0,4.52,6.43,11.45,11.45,0,0,0,3.2,1.94,2.21,2.21,0,0,0,1.5-4.15h0a6.23,6.23,0,0,1-1.1-.6,15.12,15.12,0,0,0,2.25.4,2.2,2.2,0,0,0,.63-4.35Z"/><path class="cls-2" d="M27.12,170.21c-9.76,0-17-15.73-17.77-17.53a2.21,2.21,0,0,1,4-1.78c1.71,3.87,7.89,14.9,13.73,14.9h0c4.21,0,7.63-6,9.75-11.06A2.21,2.21,0,1,1,41,156.45c-3.85,9.09-8.49,13.72-13.79,13.76Z"/><path class="cls-2" d="M15.42,144a4.76,4.76,0,0,0-.33-.86,2.2,2.2,0,0,0-3.93,2h0l0,.05a2,2,0,0,1,.11.67A2.36,2.36,0,0,1,11,147a4.34,4.34,0,0,1-1,1.24,13,13,0,0,1-1.47.08,11.89,11.89,0,0,1-5.36-1.22,2.2,2.2,0,1,0-2,3.91h0c.22.12.44.21.66.31a2.2,2.2,0,0,0,.63,4.35,14.27,14.27,0,0,0,2.26-.41,6.94,6.94,0,0,1-.64.39l-.39.19-.07,0h0A2.21,2.21,0,0,0,5.13,160,11.31,11.31,0,0,0,8.33,158a15.36,15.36,0,0,0,4.52-6.43A8.67,8.67,0,0,0,15,148.89a6.86,6.86,0,0,0,.71-3A6.36,6.36,0,0,0,15.42,144Zm-4.26,1.13Zm0,.05Z"/><g class="cls-3"><ellipse class="cls-4" cx="98.66" cy="247.37" rx="73.47" ry="11.16"/></g><path class="cls-2" d="M122.81,247.66h-.15a11,11,0,0,1-5.86-1.84A2.2,2.2,0,0,1,116,244L117.12,218a2.21,2.21,0,1,1,4.41.2l-1.1,24.52a9.59,9.59,0,0,0,2.52.49,2.21,2.21,0,0,1-.14,4.41Z"/><path class="cls-2" d="M74.84,247.66a2.21,2.21,0,0,1-.15-4.41,9.59,9.59,0,0,0,2.52-.49l-1.09-24.52a2.2,2.2,0,1,1,4.4-.2L81.68,244a2.2,2.2,0,0,1-.84,1.83A10.92,10.92,0,0,1,75,247.65Z"/><path class="cls-5" d="M129.58,10a8.78,8.78,0,0,0-7.42-8.37,157.36,157.36,0,0,0-44.94,0A8.78,8.78,0,0,0,69.79,10c-.15,3.2-.27,6.4-.39,9.61H130C129.85,16.38,129.73,13.18,129.58,10Z"/><path class="cls-5" d="M129.58,10a8.78,8.78,0,0,0-7.42-8.37,157.36,157.36,0,0,0-44.94,0A8.78,8.78,0,0,0,69.79,10c-.15,3.2-.27,6.4-.39,9.61H130C129.85,16.38,129.73,13.18,129.58,10Z"/><g class="cls-6"><path class="cls-7" d="M69.79,12.06a8.78,8.78,0,0,1,7.43-8.37,158.09,158.09,0,0,1,44.94,0,8.78,8.78,0,0,1,7.42,8.37c.12,2.51.21,5,.31,7.53H130c-.12-3.21-.24-6.41-.39-9.61a8.78,8.78,0,0,0-7.42-8.37,157.36,157.36,0,0,0-44.94,0A8.78,8.78,0,0,0,69.79,10c-.15,3.2-.27,6.4-.39,9.61h.09Q69.63,15.82,69.79,12.06Z"/></g><g class="cls-3"><path class="cls-8" d="M126.8,16.81a7.57,7.57,0,0,0-6.73-7,154.51,154.51,0,0,0-40.76,0,7.58,7.58,0,0,0-6.74,7c-.13,2.67-.24,5.35-.35,8h54.94C127.05,22.16,126.94,19.48,126.8,16.81Z"/></g><path class="cls-5" d="M145.11,218.75a358.67,358.67,0,0,1-90.84,0c-8.32-1.05-14.62-7.36-15-15a1660.49,1660.49,0,0,1,0-173.4c.39-7.64,6.69-13.95,15-15a359.6,359.6,0,0,1,90.84,0c8.32,1.06,14.61,7.37,15,15a1660.49,1660.49,0,0,1,0,173.4C159.72,211.39,153.43,217.7,145.11,218.75Z"/><g class="cls-9"><path class="cls-7" d="M160.12,30.34c-.4-7.64-6.69-13.95-15-15a359.6,359.6,0,0,0-90.84,0c-8.32,1.06-14.62,7.37-15,15a1660.49,1660.49,0,0,0,0,173.4c.39,7.65,6.69,14,15,15a358.67,358.67,0,0,0,90.84,0c8.32-1.05,14.61-7.36,15-15A1660.49,1660.49,0,0,0,160.12,30.34Zm-1.51,171.85c-.39,7.51-6.53,13.71-14.64,14.75a348.14,348.14,0,0,1-88.56,0c-8.11-1-14.25-7.24-14.64-14.75a1645.21,1645.21,0,0,1,0-170.3c.39-7.51,6.53-13.71,14.64-14.74a347.22,347.22,0,0,1,88.56,0c8.11,1,14.25,7.23,14.64,14.74A1645.21,1645.21,0,0,1,158.61,202.19Z"/></g><g class="cls-3"><path class="cls-10" d="M43,69.72c-.1-17.83-.72-32.23,9-41.71s82.44-9.1,92.38-3.79S155.53,52.59,155.53,69C155.53,111.8,43.28,112.18,43,69.72Z"/></g><g class="cls-6"><path class="cls-7" d="M160.12,30.34c-.4-7.64-6.69-13.95-15-15a359.6,359.6,0,0,0-90.84,0c-8.32,1.06-14.62,7.37-15,15a.76.76,0,0,0,0,.15C40.83,24,46.91,18.94,54.27,18a359.6,359.6,0,0,1,90.84,0c8.07,1,14.37,7,15.1,14.31C160.18,31.66,160.16,31,160.12,30.34Z"/></g><g class="cls-9"><g class="cls-6"><path class="cls-7" d="M138.86,210.09a309.34,309.34,0,0,1-78.34,0c-7.18-.92-12.61-6.37-13-13a1439.63,1439.63,0,0,1,0-149.81c.34-6.61,5.77-12.06,13-13a309.34,309.34,0,0,1,78.34,0c7.17.91,12.6,6.36,12.95,13a1439.63,1439.63,0,0,1,0,149.81C151.46,203.72,146,209.17,138.86,210.09Z"/></g></g><path class="cls-11" d="M45.64,76.88c.29,8.3.64,112.59,1.09,120.88.35,6.37,5.83,11.63,13.07,12.51a326.83,326.83,0,0,0,79.07,0c7.25-.88,12.73-6.14,13.07-12.51.44-8,.75-112,1.07-120.07C153.44,66.72,45.29,67.05,45.64,76.88Z"/><g class="cls-3"><path class="cls-12" d="M47.14,78c.28,7.71.63,111.43,1.07,119.15.33,5.93,5.67,10.82,12.72,11.64a332.29,332.29,0,0,0,76.95,0c7.05-.82,12.38-5.71,12.72-11.64.43-7.47.73-110.94,1-118.41C152.06,68.54,46.81,68.86,47.14,78Z"/></g><g class="cls-6"><ellipse class="cls-13" cx="100.35" cy="82.38" rx="41.66" ry="5.56"/></g><g class="cls-3"><path class="cls-14" d="M135,204c-14.46,3.56-55.51,4.44-69.87.79-5-1.28-30-16.05,34-16.14C156,188.59,147.31,201,135,204Z"/></g><g class="cls-6"><path class="cls-15" d="M65.5,192.17A5.15,5.15,0,1,0,70.65,187,5.15,5.15,0,0,0,65.5,192.17Z"/></g><g class="cls-6"><path class="cls-15" d="M125.77,50.7a4.42,4.42,0,1,0,4.42,4.41A4.41,4.41,0,0,0,125.77,50.7Z"/></g><g class="cls-6"><path class="cls-15" d="M70.36,57.94a2.68,2.68,0,1,0-2.68-2.68A2.68,2.68,0,0,0,70.36,57.94Z"/></g><g class="cls-6"><path class="cls-15" d="M134.57,83.21a2.68,2.68,0,1,0-2.68-2.68A2.68,2.68,0,0,0,134.57,83.21Z"/></g><g class="cls-6"><path class="cls-15" d="M134.88,183.63a2.68,2.68,0,1,0,2.68,2.68A2.68,2.68,0,0,0,134.88,183.63Z"/></g><g class="cls-9"><path class="cls-16" d="M47.57,50c.34-6.6,5.77-12,13-13a309.34,309.34,0,0,1,78.34,0c7.17.92,12.6,6.37,12.95,13q1.91,36.78,1.94,73.54,0-38.13-1.94-76.27c-.35-6.61-5.78-12.06-12.95-13a309.34,309.34,0,0,0-78.34,0c-7.18.91-12.61,6.36-13,13q-2,38.13-1.94,76.27Q45.66,86.82,47.57,50Z"/></g><path class="cls-7" d="M77.34,9.17c-1.44,1.21-3.23,1.45-4,.54s-.22-2.64,1.22-3.85,3.24-1.46,4-.54S78.79,8,77.34,9.17Z"/><ellipse class="cls-7" cx="56.1" cy="31.84" rx="11.79" ry="7.69" transform="translate(-6.59 47.04) rotate(-43.21)"/><g class="cls-3"><path class="cls-17" d="M106.23,48.82C105,47.91,84.64,62.14,85.82,64.91s10.79-1.11,11.88,0-8,12.92-6.9,14.57,20.92-17.8,20-19.72-10.23,1.92-10.88,0S107.52,49.73,106.23,48.82Z"/></g><ellipse class="cls-7" cx="64.69" cy="126.05" rx="16" ry="16.03" transform="translate(-62.02 189.43) rotate(-89.4)"/><path class="cls-2" d="M75.71,125.58a11,11,0,1,0-10.55,11.48A11,11,0,0,0,75.71,125.58Zm-12.38-.66c-1.7,1.94-4.39,2.36-6,1s-1.53-4.13.18-6.07,4.4-2.37,6-1S65,123,63.33,124.92Zm8.5,7.33a2.29,2.29,0,1,1,.1-3.51A2.52,2.52,0,0,1,71.83,132.25Z"/><ellipse class="cls-7" cx="133.63" cy="126.05" rx="16" ry="16.03" transform="translate(6.06 258.24) rotate(-89.35)"/><path class="cls-2" d="M144.64,125.58a11,11,0,1,0-10.54,11.48A11,11,0,0,0,144.64,125.58Zm-12.22-1.31c-1.94,1.71-4.66,1.8-6.08.19s-1-4.29.93-6,4.66-1.79,6.08-.19S134.36,122.57,132.42,124.27Zm9.08,7.58a2.28,2.28,0,1,1,.1-3.51A2.51,2.51,0,0,1,141.5,131.85Z"/><path class="cls-2" d="M122.22,98.65c.35,2.81,5.54,3.15,11.05,2.34,4.93-.72,9.8-1,10-4.75C143.66,88.5,121.17,90.18,122.22,98.65Z"/><path class="cls-2" d="M55.06,96.24c.19,3.76,5.06,4,10,4.75,5.51.81,10.7.47,11-2.34C77.16,90.18,54.66,88.5,55.06,96.24Z"/><path class="cls-18" d="M110.22,135.7c3,3.68.08,10.54-9.93,10.54s-12.47-7.41-9.92-10.54c1.46-1.8,4.83-.9,9.92-.9S108.71,133.87,110.22,135.7Z"/><path class="cls-7" d="M108.79,136.36c0,.84-3.68,1.52-8.22,1.52s-8.22-.68-8.22-1.52,3.68-.63,8.22-.63S108.79,135.52,108.79,136.36Z"/><path class="cls-19" d="M93.5,143.46a12.9,12.9,0,0,0,6.83,1.62,13.22,13.22,0,0,0,7.48-1.87C102,137.61,96.55,140.69,93.5,143.46Z"/></g></g></g></svg>