<svg xmlns="http://www.w3.org/2000/svg" viewBox="0 0 160.85 255.97"><defs><style>.cls-1{isolation:isolate;}.cls-2{fill:#133441;}.cls-3{mix-blend-mode:multiply;}.cls-4{fill:#dbdacb;}.cls-5{fill:#45d5da;}.cls-6{mix-blend-mode:soft-light;}.cls-7{fill:#fff;}.cls-8{fill:#88dbdb;}.cls-9{mix-blend-mode:overlay;}.cls-10{fill:#c5f0f0;}.cls-11{fill:#ff7161;}.cls-12{fill:#df3b28;}.cls-13{fill:#fcfcfc;}.cls-14{fill:#bae3e3;}.cls-15{fill:#e0e0e0;}.cls-16{fill:#ccc;}.cls-17{fill:#a3c7c7;}.cls-18{fill:#ab1700;}.cls-19{fill:#fd6c6c;}</style></defs><g class="cls-1"><g id="Calque_2" data-name="Calque 2"><g id="Rouge_a_perdu"><path class="cls-2" d="M153.76,147.33A90,90,0,0,0,143.53,138a2.21,2.21,0,1,0-2.75,3.45c15.53,12.39,16.29,18.71,15.37,21.37-2.12,6.1-16.49,7.53-21.36,7.55a2.21,2.21,0,0,0,0,4.41c2.24,0,22-.37,25.5-10.5C162,159.54,159.8,154,153.76,147.33Z"/><path class="cls-2" d="M135.54,182.78a8.66,8.66,0,0,0,2.05-2.83,9.87,9.87,0,0,0,.77-4.77,14.44,14.44,0,0,0-.54-2.86,8.34,8.34,0,0,0,1.33-2.55,6.63,6.63,0,0,0,.21-3.16,6.41,6.41,0,0,0-.42-1.44,5.61,5.61,0,0,0-.49-.91h0a2.21,2.21,0,0,0-3.64,2.49h0v0s.05.1.08.19a2,2,0,0,1,.15.84,2.71,2.71,0,0,1-.17.84A4.54,4.54,0,0,1,134,170l-.37.13a6.26,6.26,0,0,1-1.88.28,4.58,4.58,0,0,1-1.45-.23,4.65,4.65,0,0,1-2-1.31,2.21,2.21,0,0,0-3.26,3,9.29,9.29,0,0,0,2.82,2.12,8.15,8.15,0,0,0,1.67.59,3.87,3.87,0,0,1-1.81.3,2.2,2.2,0,1,0-.34,4.39,8.34,8.34,0,0,0,4-.67,10.22,10.22,0,0,0,2.43-1.51,4.44,4.44,0,0,1-.64,1.65,4.13,4.13,0,0,1-.68.81,3,3,0,0,1-.6.44h0a2.2,2.2,0,0,0,1.94,4A7,7,0,0,0,135.54,182.78ZM132,180h0Z"/><path class="cls-2" d="M7.24,146.61c-5.58,5-7.91,9.66-7.07,14.11,2,10.76,22.15,14.23,24.44,14.59a2.21,2.21,0,0,0,.68-4.36c-5-.79-19.57-4.52-20.79-11-.88-4.69,5.36-11.19,17.56-18.29a2.2,2.2,0,1,0-2.22-3.81A77,77,0,0,0,7.24,146.61Z"/><path class="cls-2" d="M34.65,173.4a9,9,0,0,1-4,2.12l-.69.13a3.84,3.84,0,0,0,1.77.46,2.21,2.21,0,0,1-.11,4.41,8.38,8.38,0,0,1-3.91-1.07,10.26,10.26,0,0,1-2.27-1.75,4.45,4.45,0,0,0,.22,1.12,4.13,4.13,0,0,0,.85,1.46,3.13,3.13,0,0,0,.44.42l.1.08h0a2.2,2.2,0,0,1-2.32,3.74,7.14,7.14,0,0,1-1.51-1.3,8.79,8.79,0,0,1-2.2-6.07,12.5,12.5,0,0,1,1-4.57,8.91,8.91,0,0,1-1-2.26,6.69,6.69,0,0,1-.21-2.3,6.57,6.57,0,0,1,.69-2.48,5.37,5.37,0,0,1,.68-1,2.2,2.2,0,0,1,3.37,2.84h0a1.2,1.2,0,0,0-.15.27,2.17,2.17,0,0,0-.19,1.15,3.13,3.13,0,0,0,.24.92,5.47,5.47,0,0,0,.54,1,6.91,6.91,0,0,0,2.08.62,4.48,4.48,0,0,0,3.66-1.18,2.21,2.21,0,1,1,2.94,3.29Z"/><g class="cls-3"><ellipse class="cls-4" cx="81.7" cy="244.81" rx="73.47" ry="11.16"/></g><path class="cls-2" d="M98.64,246a2.21,2.21,0,0,1-.15-4.41,10.45,10.45,0,0,0,1.61-.22c-1.95-4-4.64-12.66-.06-25.62a2.2,2.2,0,0,1,4.16,1.46c-5.45,15.43.56,23.52.82,23.86a2.23,2.23,0,0,1-.38,3.09A10.86,10.86,0,0,1,98.79,246Z"/><path class="cls-2" d="M64.15,246H64a10.86,10.86,0,0,1-5.85-1.83,2.21,2.21,0,0,1-.59-2.77c.07-.13,6.9-13.3,1.17-23.86a2.21,2.21,0,0,1,3.88-2.1c5.41,10,1.79,21.24-.16,25.88a10.09,10.09,0,0,0,1.85.28,2.21,2.21,0,0,1-.15,4.41Z"/><path class="cls-5" d="M109.9,10a8.79,8.79,0,0,0-7.43-8.37,157.36,157.36,0,0,0-44.94,0A8.78,8.78,0,0,0,50.11,10c-.15,3.2-.27,6.4-.39,9.61h60.56Q110.12,14.77,109.9,10Z"/><path class="cls-5" d="M109.9,10a8.79,8.79,0,0,0-7.43-8.37,157.36,157.36,0,0,0-44.94,0A8.78,8.78,0,0,0,50.11,10c-.15,3.2-.27,6.4-.39,9.61h60.56Q110.12,14.77,109.9,10Z"/><g class="cls-6"><path class="cls-7" d="M50.11,12.06a8.78,8.78,0,0,1,7.42-8.37,158.09,158.09,0,0,1,44.94,0,8.79,8.79,0,0,1,7.43,8.37q.16,3.76.3,7.53h.08q-.16-4.82-.38-9.61a8.79,8.79,0,0,0-7.43-8.37,157.36,157.36,0,0,0-44.94,0A8.78,8.78,0,0,0,50.11,10c-.15,3.2-.27,6.4-.39,9.61h.08C49.9,17.08,50,14.57,50.11,12.06Z"/></g><g class="cls-3"><path class="cls-8" d="M107.12,16.81a7.58,7.58,0,0,0-6.74-7,154.51,154.51,0,0,0-40.76,0,7.57,7.57,0,0,0-6.73,7c-.14,2.67-.25,5.35-.36,8h54.94C107.36,22.16,107.25,19.48,107.12,16.81Z"/></g><path class="cls-5" d="M125.42,218.75a358.67,358.67,0,0,1-90.84,0c-8.32-1.05-14.61-7.36-15-15a1660.49,1660.49,0,0,1,0-173.4c.4-7.64,6.69-13.95,15-15a359.6,359.6,0,0,1,90.84,0c8.32,1.06,14.61,7.37,15,15a1660.49,1660.49,0,0,1,0,173.4C140,211.39,133.74,217.7,125.42,218.75Z"/><g class="cls-9"><path class="cls-7" d="M140.43,30.34c-.4-7.64-6.69-13.95-15-15a359.6,359.6,0,0,0-90.84,0c-8.32,1.06-14.61,7.37-15,15a1660.49,1660.49,0,0,0,0,173.4c.4,7.65,6.69,14,15,15a358.67,358.67,0,0,0,90.84,0c8.32-1.05,14.61-7.36,15-15A1660.49,1660.49,0,0,0,140.43,30.34Zm-1.51,171.85c-.39,7.51-6.53,13.71-14.64,14.75a348.14,348.14,0,0,1-88.56,0c-8.11-1-14.25-7.24-14.64-14.75a1645.21,1645.21,0,0,1,0-170.3c.39-7.51,6.53-13.71,14.64-14.74a347.22,347.22,0,0,1,88.56,0c8.11,1,14.25,7.23,14.64,14.74A1645.21,1645.21,0,0,1,138.92,202.19Z"/></g><g class="cls-3"><path class="cls-10" d="M23.35,69.72c-.11-17.83-.73-32.23,9-41.71s82.43-9.1,92.37-3.79S135.84,52.59,135.84,69C135.84,111.8,23.59,112.18,23.35,69.72Z"/></g><g class="cls-6"><path class="cls-7" d="M140.43,30.34c-.4-7.64-6.69-13.95-15-15a359.6,359.6,0,0,0-90.84,0c-8.32,1.06-14.61,7.37-15,15,0,.05,0,.1,0,.15C21.14,24,27.22,18.94,34.58,18a359.6,359.6,0,0,1,90.84,0c8.07,1,14.37,7,15.1,14.31C140.49,31.66,140.47,31,140.43,30.34Z"/></g><g class="cls-9"><g class="cls-6"><path class="cls-7" d="M119.17,210.09a309.34,309.34,0,0,1-78.34,0c-7.17-.92-12.6-6.37-12.95-13a1439.63,1439.63,0,0,1,0-149.81c.35-6.61,5.78-12.06,13-13a309.34,309.34,0,0,1,78.34,0c7.18.91,12.6,6.36,13,13a1439.63,1439.63,0,0,1,0,149.81C131.77,203.72,126.35,209.17,119.17,210.09Z"/></g></g><path class="cls-11" d="M26.74,173.38q.44,12.44,1.09,24.88c.35,6.37,5.83,11.63,13.07,12.51a326.83,326.83,0,0,0,79.07,0c7.25-.88,12.73-6.14,13.07-12.51.44-8,.75-16,1.07-24.07C134.54,163.21,26.39,163.55,26.74,173.38Z"/><g class="cls-3"><path class="cls-12" d="M28.24,174.5q.42,11.58,1.07,23.16C29.64,203.59,35,208.48,42,209.3a332.29,332.29,0,0,0,77,0c7-.82,12.38-5.71,12.72-11.64.43-7.47.73-14.94,1-22.41C133.16,165,27.9,165.35,28.24,174.5Z"/></g><g class="cls-6"><ellipse class="cls-13" cx="81.45" cy="176.88" rx="41.66" ry="5.56"/></g><g class="cls-3"><path class="cls-14" d="M115.32,204c-14.46,3.56-55.5,4.44-69.87.79-5-1.28-30-16.05,34-16.14C136.27,188.59,127.63,201,115.32,204Z"/></g><g class="cls-6"><path class="cls-15" d="M45.82,192.17A5.14,5.14,0,1,0,51,187,5.14,5.14,0,0,0,45.82,192.17Z"/></g><g class="cls-6"><path class="cls-15" d="M106.08,59.53a4.42,4.42,0,1,0-4.41-4.42A4.42,4.42,0,0,0,106.08,59.53Z"/></g><g class="cls-6"><path class="cls-15" d="M50.67,57.94A2.68,2.68,0,1,0,48,55.26,2.68,2.68,0,0,0,50.67,57.94Z"/></g><g class="cls-6"><path class="cls-15" d="M114.89,83.21a2.68,2.68,0,1,0-2.68-2.68A2.68,2.68,0,0,0,114.89,83.21Z"/></g><g class="cls-6"><path class="cls-15" d="M115.19,189a2.68,2.68,0,1,0-2.68-2.68A2.68,2.68,0,0,0,115.19,189Z"/></g><g class="cls-9"><path class="cls-16" d="M27.88,50c.35-6.6,5.78-12,13-13a309.34,309.34,0,0,1,78.34,0c7.18.92,12.6,6.37,13,13q1.9,36.78,1.94,73.54,0-38.13-1.94-76.27c-.35-6.61-5.77-12.06-13-13a309.34,309.34,0,0,0-78.34,0c-7.17.91-12.6,6.36-12.95,13q-2,38.13-1.94,76.27Q26,86.82,27.88,50Z"/></g><path class="cls-7" d="M57.66,9.17c-1.45,1.21-3.24,1.45-4,.54s-.22-2.64,1.23-3.85,3.23-1.46,4-.54S59.1,8,57.66,9.17Z"/><ellipse class="cls-7" cx="36.41" cy="31.84" rx="11.79" ry="7.69" transform="translate(-11.93 33.56) rotate(-43.21)"/><g class="cls-3"><path class="cls-17" d="M86.55,48.82C85.26,47.91,65,62.14,66.13,64.91s10.8-1.11,11.88,0S70,77.83,71.11,79.48s20.92-17.8,20-19.72-10.23,1.92-10.88,0S87.83,49.73,86.55,48.82Z"/></g><path class="cls-18" d="M90.39,146.31c-1.68,1.65-4.22.46-10.51.46s-8.77,1.16-10.48-.46,4.51-6.05,10.48-6.05S92.09,144.64,90.39,146.31Z"/><path class="cls-19" d="M74.44,146.51c1.4-.1,3.21-.3,5.73-.3,5.62,0,7.89,1.06,9.39-.41.45-.44.27-1.08-.31-1.77A20.81,20.81,0,0,0,74.44,146.51Z"/><ellipse class="cls-7" cx="46.3" cy="128.52" rx="16" ry="16.03" transform="translate(-82.78 173.24) rotate(-89.3)"/><path class="cls-2" d="M57.32,128a11,11,0,1,0-10.55,11.49A11,11,0,0,0,57.32,128Zm-12.38-.65c-1.71,1.94-4.4,2.36-6,.94s-1.53-4.13.17-6.07,4.4-2.36,6-.94S46.64,125.45,44.94,127.39Zm8.49,7.33a2.29,2.29,0,1,1-3.37-3,2.28,2.28,0,1,1,3.37,3Z"/><ellipse class="cls-7" cx="115.23" cy="128.52" rx="16" ry="16.03" transform="translate(-14.68 242.18) rotate(-89.3)"/><path class="cls-2" d="M126.25,128a11,11,0,1,0-10.55,11.49A11,11,0,0,0,126.25,128ZM114,126.74c-1.94,1.71-4.66,1.79-6.08.19s-1-4.3.94-6,4.66-1.8,6.08-.19S116,125,114,126.74Zm9.09,7.58a2.29,2.29,0,1,1,.1-3.51A2.52,2.52,0,0,1,123.11,134.32Z"/><path class="cls-2" d="M56.54,98.2c-1.16-2.59-6.22-1.38-11.24,1-4.5,2.15-9.07,3.84-8.15,7.49C39.06,114.22,60.05,106,56.54,98.2Z"/><path class="cls-2" d="M124.36,106.71c.93-3.65-3.64-5.34-8.13-7.5-5-2.4-10.09-3.61-11.25-1C101.46,106,122.44,114.22,124.36,106.71Z"/></g></g></g></svg>