<svg xmlns="http://www.w3.org/2000/svg" viewBox="0 0 172.62 266.41"><defs><style>.cls-1{isolation:isolate;}.cls-2{fill:#133441;}.cls-3{mix-blend-mode:multiply;}.cls-4{fill:#dbdacb;}.cls-5{fill:#45d5da;}.cls-6{mix-blend-mode:soft-light;}.cls-7{fill:#fff;}.cls-8{fill:#88dbdb;}.cls-9{mix-blend-mode:overlay;}.cls-10{fill:#c5f0f0;}.cls-11{fill:#ff7161;}.cls-12{fill:#df3b28;}.cls-13{fill:#fcfcfc;}.cls-14{fill:#e0e0e0;}.cls-15{fill:#bae3e3;}.cls-16{fill:#ccc;}.cls-17{fill:#a3c7c7;}.cls-18{fill:#ab1700;}.cls-19{fill:#fd6c6c;}</style></defs><g class="cls-1"><g id="Calque_2" data-name="Calque 2"><g id="Rouge_a_gagne"><path class="cls-2" d="M149.91,196.6c-5.94,0-10.5-8.13-13.57-24.21a2.2,2.2,0,1,1,4.33-.82c3,15.56,6.94,20.87,9.44,20.61,3.22-.28,7.41-8.6,7.53-17.55a2.21,2.21,0,1,1,4.41.06c-.14,10.09-4.81,21.3-11.55,21.89A5.82,5.82,0,0,1,149.91,196.6Z"/><path class="cls-2" d="M163,165a5,5,0,0,0-5.27.11,6.62,6.62,0,0,0-2.84,4.29,5.51,5.51,0,0,0-1.54,3.49c-.07,2.16,1.46,4.76,6,5a9.74,9.74,0,0,0,1.89-.09,6,6,0,0,0,5.15-4.17A7.86,7.86,0,0,0,163,165Z"/><path class="cls-2" d="M30.7,135.18a2.2,2.2,0,0,1-1.76-.87c-21.35-28.07-9.71-51.87-9.2-52.87a2.2,2.2,0,1,1,3.93,2c-.44.9-10.84,22.42,8.78,48.21a2.2,2.2,0,0,1-1.75,3.54Z"/><path class="cls-2" d="M26.28,73.32a7.88,7.88,0,0,0-8.49,3.74c-1.37,2.64-.61,5.62,2,8a7,7,0,0,0,4.59,2.07,4.33,4.33,0,0,0,3.21-1.39A5.48,5.48,0,0,0,29,82.16a6.65,6.65,0,0,0,1-5.06A5,5,0,0,0,26.28,73.32Z"/><g class="cls-3"><ellipse class="cls-4" cx="73.47" cy="255.25" rx="73.47" ry="11.16"/></g><path class="cls-2" d="M78.61,238.85a2.21,2.21,0,0,1-2.19-2,6.64,6.64,0,0,1,2.21-6.06,2.24,2.24,0,0,1,1.54-.44c11.51,1.07,12.88-1.36,13-1.64.71-1.68-2.55-6.08-5.93-9a2.21,2.21,0,0,1,2.87-3.35c1.6,1.37,9.47,8.49,7.13,14-1.58,3.74-6.76,5.15-16.27,4.42a3.26,3.26,0,0,0-.17,1.52,2.21,2.21,0,0,1-2,2.44Z"/><path class="cls-2" d="M42.36,235.69a2.21,2.21,0,0,1-1.19-4.07,2.94,2.94,0,0,0,1.15-1.23c-4.07-5.75-5.51-11.2-4.26-16.21,1.87-7.52,9.1-11,9.41-11.15a2.2,2.2,0,0,1,1.89,4h0c-.06,0-5.69,2.79-7,8.26-.95,3.89.43,8.36,4.11,13.28a2.17,2.17,0,0,1,.44,1.27,6.62,6.62,0,0,1-3.34,5.52A2.22,2.22,0,0,1,42.36,235.69Z"/><path class="cls-5" d="M147.38,20.29a8.77,8.77,0,0,0-5.29-9.86A157.71,157.71,0,0,0,98.38,0a8.79,8.79,0,0,0-9.17,6.42c-.88,3.08-1.74,6.17-2.6,9.26l58.93,14C146.16,26.59,146.79,23.44,147.38,20.29Z"/><path class="cls-5" d="M147.38,20.29a8.77,8.77,0,0,0-5.29-9.86A157.71,157.71,0,0,0,98.38,0a8.79,8.79,0,0,0-9.17,6.42c-.88,3.08-1.74,6.17-2.6,9.26l58.93,14C146.16,26.59,146.79,23.44,147.38,20.29Z"/><g class="cls-6"><path class="cls-7" d="M88.73,8.49A8.79,8.79,0,0,1,97.9,2.06a157.81,157.81,0,0,1,43.71,10.4,8.77,8.77,0,0,1,5.29,9.86c-.47,2.47-1,4.93-1.44,7.39l.08,0c.62-3.14,1.25-6.29,1.84-9.44a8.77,8.77,0,0,0-5.29-9.86A157.35,157.35,0,0,0,98.38,0a8.79,8.79,0,0,0-9.17,6.42c-.88,3.08-1.74,6.17-2.6,9.26l.09,0C87.37,13.32,88,10.9,88.73,8.49Z"/></g><g class="cls-3"><path class="cls-8" d="M143.1,26.29a7.59,7.59,0,0,0-4.94-8.37A155,155,0,0,0,98.51,8.5a7.57,7.57,0,0,0-8.17,5.25q-1.12,3.86-2.2,7.73l53.45,12.71C142.1,31.56,142.61,28.93,143.1,26.29Z"/></g><path class="cls-5" d="M114.19,227a359,359,0,0,1-88.37-21C18,203.05,13.3,195.45,14.68,187.92A1665.52,1665.52,0,0,1,54.79,19.21c2.16-7.35,9.75-12,18.09-11.13a359.24,359.24,0,0,1,88.37,21c7.85,2.95,12.51,10.55,11.13,18.08a1665.52,1665.52,0,0,1-40.11,168.71C130.11,223.23,122.53,227.91,114.19,227Z"/><g class="cls-9"><path class="cls-7" d="M172.38,47.17c1.38-7.53-3.28-15.13-11.13-18.08a359.24,359.24,0,0,0-88.37-21C64.54,7.18,57,11.86,54.79,19.21A1665.52,1665.52,0,0,0,14.68,187.92C13.3,195.45,18,203.05,25.82,206a359,359,0,0,0,88.37,21c8.34.9,15.92-3.78,18.08-11.13A1665.52,1665.52,0,0,0,172.38,47.17ZM131.15,214c-2.11,7.22-9.52,11.83-17.65,11A347.54,347.54,0,0,1,27.34,204.5c-7.65-2.89-12.19-10.34-10.83-17.73a1645.1,1645.1,0,0,1,39.4-165.7c2.12-7.22,9.52-11.83,17.65-11a348,348,0,0,1,86.16,20.48c7.65,2.89,12.19,10.34,10.83,17.74A1642.84,1642.84,0,0,1,131.15,214Z"/></g><g class="cls-3"><path class="cls-10" d="M49.36,58.4c4-17.37,6.75-31.53,18.38-38.51S150,30.11,158.48,37.57s4.29,30.18.5,46.11C149.07,125.36,39.77,99.77,49.36,58.4Z"/></g><g class="cls-6"><path class="cls-7" d="M172.38,47.17c1.38-7.53-3.28-15.13-11.13-18.08a359.24,359.24,0,0,0-88.37-21C64.54,7.18,57,11.86,54.79,19.21a.57.57,0,0,1,0,.14c3-5.91,10.13-9.46,17.51-8.67a359.26,359.26,0,0,1,88.37,21C168.25,34.56,173,41.81,172,49.12,172.13,48.47,172.26,47.82,172.38,47.17Z"/></g><g class="cls-9"><g class="cls-6"><path class="cls-7" d="M110.11,217.13A309.35,309.35,0,0,1,33.9,199c-6.77-2.54-10.79-9.1-9.6-15.61A1441.86,1441.86,0,0,1,59,37.64c1.86-6.35,8.41-10.4,15.6-9.62a309.35,309.35,0,0,1,76.21,18.12c6.77,2.54,10.79,9.1,9.6,15.61a1439.17,1439.17,0,0,1-34.66,145.76C123.85,213.86,117.31,217.91,110.11,217.13Z"/></g></g><path class="cls-11" d="M27.88,159.5Q25.44,171.71,23.21,184c-1.14,6.28,3,12.66,9.83,15.19A326.62,326.62,0,0,0,110,217.4c7.25.82,13.8-3,15.61-9.15,2.27-7.71,4.43-15.45,6.59-23.18C135.12,174.49,29.82,149.86,27.88,159.5Z"/><g class="cls-3"><path class="cls-12" d="M29.09,160.94q-2.27,11.37-4.31,22.78c-1,5.84,3,11.84,9.69,14.26a332.29,332.29,0,0,0,74.87,17.76c7,.83,13.37-2.7,15.07-8.39,2.14-7.17,4.15-14.37,6.18-21.56C133.36,176,30.87,152,29.09,160.94Z"/></g><g class="cls-6"><ellipse class="cls-13" cx="80.31" cy="175.53" rx="5.56" ry="41.66" transform="translate(-109.02 213.16) rotate(-76.65)"/></g><g class="cls-6"><path class="cls-14" d="M49.09,178.92a5.14,5.14,0,1,0,3.81,6.19A5.13,5.13,0,0,0,49.09,178.92Z"/><path class="cls-14" d="M137.53,64.35a4.42,4.42,0,1,0-5.32,3.27A4.41,4.41,0,0,0,137.53,64.35Z"/><path class="cls-14" d="M79.91,48a2.68,2.68,0,1,0,2,3.23A2.67,2.67,0,0,0,79.91,48Z"/><path class="cls-14" d="M136.54,87.49a2.68,2.68,0,1,0,2,3.22A2.67,2.67,0,0,0,136.54,87.49Z"/><path class="cls-14" d="M114.35,193.7a2.68,2.68,0,1,0-3.23,2A2.69,2.69,0,0,0,114.35,193.7Z"/></g><g class="cls-3"><path class="cls-15" d="M107.77,210.34c-14.89.12-55-8.52-68.16-15.39-4.6-2.41-25.51-22.57,36.86-7.83C131.73,200.18,120.44,210.24,107.77,210.34Z"/></g><g class="cls-9"><path class="cls-16" d="M58.33,40.3c1.86-6.34,8.4-10.39,15.6-9.62A309.35,309.35,0,0,1,150.14,48.8c6.77,2.55,10.79,9.11,9.59,15.61q-6.63,36.23-15.12,72,8.87-37.09,15.76-74.66c1.19-6.51-2.83-13.07-9.6-15.61A309.35,309.35,0,0,0,74.56,28c-7.19-.78-13.74,3.27-15.6,9.62Q48.21,74.29,39.43,111.4,48,75.64,58.33,40.3Z"/></g><path class="cls-7" d="M96.75,7.42c-1.69.85-3.49.66-4-.4s.4-2.62,2.08-3.47,3.48-.66,4,.41S98.43,6.58,96.75,7.42Z"/><ellipse class="cls-7" cx="70.83" cy="24.57" rx="11.79" ry="7.69" transform="translate(-2.83 38.51) rotate(-29.84)"/><g class="cls-3"><path class="cls-17" d="M115.68,52.68c-1-1.18-24.08,8-23.58,10.93s10.76,1.42,11.56,2.75S92.83,77.07,93.57,78.94,118,66.47,117.64,64.39s-10.39-.49-10.58-2.52S116.72,53.86,115.68,52.68Z"/></g><ellipse class="cls-7" cx="57.09" cy="120.07" rx="16" ry="16.03" transform="matrix(0.27, -0.96, 0.96, 0.27, -73.94, 142.59)"/><path class="cls-2" d="M67.85,122.46a11,11,0,1,0-13.16,8.37A11,11,0,0,0,67.85,122.46Zm-11.78-3.84c-2.16,1.43-4.86,1.15-6-.64s-.41-4.39,1.74-5.82,4.86-1.14,6.05.64S58.22,117.19,56.07,118.62Zm6.3,9.28a2.28,2.28,0,1,1-2.49-3.73,2.28,2.28,0,1,1,2.49,3.73Z"/><ellipse class="cls-7" cx="123.67" cy="137.91" rx="16" ry="16.03" transform="translate(-42.61 219.55) rotate(-74.26)"/><path class="cls-2" d="M134.44,140.3a11,11,0,1,0-13.17,8.37A11,11,0,0,0,134.44,140.3ZM123,135.88c-2.31,1.15-5,.53-5.92-1.39s.14-4.41,2.46-5.56,5-.52,5.92,1.4S125.28,134.73,123,135.88Zm6.82,9.67a2.28,2.28,0,1,1,1-3.37A2.51,2.51,0,0,1,129.78,145.55Z"/><path class="cls-2" d="M119.75,108.49c-.39,2.8,4.53,4.48,10.06,5.12,4.95.58,9.73,1.58,10.89-2C143.08,104.23,120.92,100,119.75,108.49Z"/><path class="cls-2" d="M55.49,88.78c-.78,3.68,3.85,5.2,8.43,7.18,5.11,2.2,10.21,3.21,11.28.59C78.41,88.64,57.12,81.2,55.49,88.78Z"/><path class="cls-18" d="M98.56,141.17c2,4.34-2.65,10.2-12.32,7.61S76.12,138.39,79.39,136c1.88-1.35,4.9.38,9.81,1.7S97.58,139,98.56,141.17Z"/><path class="cls-7" d="M97,141.44c-.21.81-3.94.51-8.33-.66s-7.77-2.79-7.55-3.6,3.72.35,8.1,1.52S97.23,140.63,97,141.44Z"/><path class="cls-19" d="M80.4,144.34a12.94,12.94,0,0,0,6.18,3.34,13.17,13.17,0,0,0,7.71.12C90.14,140.89,84.07,142.46,80.4,144.34Z"/></g></g></g></svg>