<svg xmlns="http://www.w3.org/2000/svg" viewBox="0 0 173.33 262.2"><defs><style>.cls-1{isolation:isolate;}.cls-2{fill:#133441;}.cls-3{mix-blend-mode:multiply;}.cls-4{fill:#dbdacb;}.cls-5{fill:#45d5da;}.cls-6{mix-blend-mode:soft-light;}.cls-7{fill:#fff;}.cls-8{fill:#88dbdb;}.cls-9{mix-blend-mode:overlay;}.cls-10{fill:#c5f0f0;}.cls-11{fill:#73cc14;}.cls-12{fill:#bae3e3;}.cls-13{fill:#e0e0e0;}.cls-14{fill:#ccc;}.cls-15{fill:#a3c7c7;}.cls-16{fill:#ab1700;}.cls-17{fill:#fd6c6c;}</style></defs><g class="cls-1"><g id="Calque_2" data-name="Calque 2"><g id="Vert_se_fait_attaquer"><path class="cls-2" d="M16.77,152.07a12.61,12.61,0,0,1-9.53-4c-5.69-6.2-5.1-17.9,1.27-25.57a2.21,2.21,0,0,1,3.39,2.83C7,131.29,6.29,140.52,10.49,145.1c3.89,4.25,11.17,3.18,20-2.94A2.21,2.21,0,0,1,33,145.78C26.14,150.53,20.81,152.07,16.77,152.07Z"/><path class="cls-2" d="M17.85,119a5.4,5.4,0,0,0-4.35-3.62c-3.36-.52-6.64,1.05-7.79,3.72-.41,1-1.42,4.32,2.79,7.58a7.27,7.27,0,0,0,4.39,1.76,4.36,4.36,0,0,0,3.44-1.63,5.52,5.52,0,0,0,1.09-3.68A5.5,5.5,0,0,0,17.85,119Z"/><path class="cls-2" d="M163.21,185.82a2.2,2.2,0,0,1-1.34-3.95c6.16-4.7,8.87-13.55,5.8-19-2.85-5-10.18-5.59-20.11-1.59a2.21,2.21,0,0,1-1.65-4.09c17.33-7,23.67.12,25.59,3.5,4.16,7.31,1,18.59-6.95,24.63A2.17,2.17,0,0,1,163.21,185.82Z"/><path class="cls-2" d="M165.48,181.34c-2.9-3.53-5.91-3.21-7.6-1.87a5.5,5.5,0,0,0-1.89,3.34,5.51,5.51,0,0,0-1.33,3.94,5.38,5.38,0,0,0,3.43,4.49,9.36,9.36,0,0,0,1.24.39,6.94,6.94,0,0,0,7.18-2.28C167.12,188.51,168.86,185.46,165.48,181.34Z"/><path class="cls-2" d="M20.42,225.82a2.06,2.06,0,0,1-.94-.24c-2.66-1.16-4.55-5.11-4.9-5.9a2.2,2.2,0,0,1,4-1.82,12.41,12.41,0,0,0,2.18,3.32c3-1.61,13-10,21.29-17.55a2.21,2.21,0,0,1,3,3.27C26.85,223.39,22.26,225.82,20.42,225.82Z"/><g class="cls-3"><ellipse class="cls-4" cx="73.47" cy="251.04" rx="73.47" ry="11.16"/></g><path class="cls-2" d="M113.62,238.24l-.26,0a2.22,2.22,0,0,1-1.93-2.46,3.4,3.4,0,0,0-.71-2.46c-8.27,3.39-13.92,3.51-17.24.35-5.21-5-1.41-15.47-1-16.65a2.2,2.2,0,1,1,4.12,1.57c-.87,2.29-2.75,9.39-.12,11.88,2,1.89,6.9,1.26,13.83-1.79a2.23,2.23,0,0,1,2.19.24,8.3,8.3,0,0,1,3.27,7.4A2.21,2.21,0,0,1,113.62,238.24Z"/><path class="cls-5" d="M145.86,19.14a8.78,8.78,0,0,0-5.51-9.74A157.9,157.9,0,0,0,96.41,0a8.8,8.8,0,0,0-9,6.64Q86.18,11.31,85,16l59.23,12.65C144.79,25.46,145.34,22.3,145.86,19.14Z"/><path class="cls-5" d="M145.86,19.14a8.78,8.78,0,0,0-5.51-9.74A157.9,157.9,0,0,0,96.41,0a8.8,8.8,0,0,0-9,6.64Q86.18,11.31,85,16l59.23,12.65C144.79,25.46,145.34,22.3,145.86,19.14Z"/><g class="cls-6"><path class="cls-7" d="M87,8.69a8.76,8.76,0,0,1,9-6.63,157.82,157.82,0,0,1,43.94,9.38,8.77,8.77,0,0,1,5.52,9.74c-.41,2.47-.84,4.95-1.27,7.42l.08,0c.55-3.16,1.1-6.32,1.62-9.48a8.78,8.78,0,0,0-5.51-9.74A157.9,157.9,0,0,0,96.41,0a8.8,8.8,0,0,0-9,6.64Q86.18,11.31,85,16l.08,0C85.71,13.55,86.32,11.12,87,8.69Z"/></g><g class="cls-3"><path class="cls-8" d="M141.72,25.24A7.59,7.59,0,0,0,136.59,17,155.72,155.72,0,0,0,96.74,8.47a7.58,7.58,0,0,0-8,5.44c-.7,2.59-1.36,5.19-2,7.78l53.73,11.47C140.84,30.52,141.29,27.88,141.72,25.24Z"/></g><path class="cls-5" d="M117.44,226.55a359.14,359.14,0,0,1-88.83-19c-7.92-2.77-12.75-10.26-11.55-17.82A1663.07,1663.07,0,0,1,53.28,20.19c2-7.39,9.46-12.25,17.82-11.54a359.15,359.15,0,0,1,88.83,19c7.91,2.77,12.75,10.25,11.55,17.81A1665.19,1665.19,0,0,1,135.26,215C133.28,222.4,125.8,227.26,117.44,226.55Z"/><g class="cls-9"><path class="cls-7" d="M171.48,45.43c1.2-7.56-3.64-15-11.55-17.81a359.15,359.15,0,0,0-88.83-19c-8.36-.71-15.84,4.15-17.82,11.54A1663.07,1663.07,0,0,0,17.06,189.77c-1.2,7.56,3.63,15,11.55,17.82a359.14,359.14,0,0,0,88.83,19c8.36.71,15.84-4.15,17.82-11.54A1665.19,1665.19,0,0,0,171.48,45.43ZM134.1,213.18c-1.94,7.26-9.24,12-17.39,11.36A347.82,347.82,0,0,1,30.1,206.05c-7.71-2.71-12.42-10.05-11.23-17.48A1645.85,1645.85,0,0,1,54.43,22c2-7.26,9.25-12,17.4-11.36a348.19,348.19,0,0,1,86.6,18.49c7.72,2.71,12.43,10.05,11.24,17.48A1642.58,1642.58,0,0,1,134.1,213.18Z"/></g><g class="cls-3"><path class="cls-10" d="M48.75,59.49c3.62-17.45,6-31.67,17.48-38.91s82.51,8.31,91.13,15.58,5,30.07,1.56,46.08C150,124.14,40.12,101.07,48.75,59.49Z"/></g><g class="cls-6"><path class="cls-7" d="M171.48,45.43c1.2-7.56-3.64-15-11.55-17.82a359.59,359.59,0,0,0-88.83-19c-8.36-.71-15.84,4.15-17.82,11.54a.83.83,0,0,0,0,.15c2.89-6,9.9-9.7,17.3-9.07a359.14,359.14,0,0,1,88.83,19c7.68,2.69,12.6,9.83,11.78,17.16Z"/></g><g class="cls-9"><g class="cls-6"><path class="cls-7" d="M113.14,216.77a309.09,309.09,0,0,1-76.61-16.36c-6.82-2.39-11-8.85-10-15.38A1438.18,1438.18,0,0,1,57.86,38.52c1.72-6.39,8.17-10.59,15.38-10A309.54,309.54,0,0,1,149.85,44.9c6.82,2.39,11,8.85,10,15.38a1435.52,1435.52,0,0,1-31.29,146.51C126.8,213.18,120.35,217.38,113.14,216.77Z"/></g></g><path class="cls-11" d="M111.92,214.07a287.69,287.69,0,0,1-73.17-15.62c-6.52-2.31-10.47-8.64-9.43-15a1455.27,1455.27,0,0,1,30.74-144c1.68-6.28,7.87-10.43,14.76-9.88A287.69,287.69,0,0,1,148,45.16a13.87,13.87,0,0,1,9.44,15.05,1455.31,1455.31,0,0,1-30.75,144C125,210.47,118.81,214.62,111.92,214.07Z"/><g class="cls-3"><path class="cls-12" d="M110.65,210c-14.89.46-55.21-7.24-68.5-13.81-4.66-2.3-26-22,36.66-8.68C134.36,199.32,123.31,209.64,110.65,210Z"/></g><g class="cls-6"><path class="cls-13" d="M50.4,167.71a7,7,0,1,0-5.4-8.33A7,7,0,0,0,50.4,167.71Z"/></g><g class="cls-6"><path class="cls-13" d="M55.21,186.08A5.14,5.14,0,1,0,49.1,190,5.16,5.16,0,0,0,55.21,186.08Z"/></g><g class="cls-6"><path class="cls-13" d="M137,63.41a4.42,4.42,0,1,0-5.24,3.39A4.42,4.42,0,0,0,137,63.41Z"/></g><g class="cls-6"><path class="cls-13" d="M79.05,48.43a2.68,2.68,0,1,0,2.06,3.18A2.68,2.68,0,0,0,79.05,48.43Z"/></g><g class="cls-6"><path class="cls-13" d="M136.57,86.56a2.68,2.68,0,1,0,2.06,3.18A2.68,2.68,0,0,0,136.57,86.56Z"/></g><g class="cls-6"><path class="cls-13" d="M114.78,190.07a2.68,2.68,0,1,0,2.06,3.18A2.67,2.67,0,0,0,114.78,190.07Z"/></g><g class="cls-6"><path class="cls-13" d="M76,176.17a4,4,0,1,0-4.76,3.08A4,4,0,0,0,76,176.17Z"/></g><g class="cls-9"><path class="cls-14" d="M57.29,41.2c1.72-6.39,8.17-10.59,15.38-10a309.35,309.35,0,0,1,76.6,16.35c6.83,2.4,11,8.86,10,15.39q-5.8,36.36-13.46,72.32,8-37.29,14-75c1-6.54-3.13-13-10-15.39A309.54,309.54,0,0,0,73.24,28.54c-7.21-.61-13.66,3.59-15.38,10Q48,75.41,40,112.71,47.75,76.76,57.29,41.2Z"/></g><ellipse class="cls-7" cx="93.93" cy="5.53" rx="3.41" ry="2.16" transform="translate(8.39 44.73) rotate(-27.99)"/><ellipse class="cls-7" cx="69.44" cy="25.18" rx="11.79" ry="7.69" transform="translate(-3.01 39.56) rotate(-31.16)"/><g class="cls-3"><path class="cls-15" d="M114.92,52.25c-1.07-1.16-23.9,8.52-23.33,11.47s10.79,1.17,11.62,2.48S92.64,77.16,93.42,79s24.18-13,23.73-15.1-10.41-.25-10.64-2.27S116,53.41,114.92,52.25Z"/></g><ellipse class="cls-7" cx="59.95" cy="117.85" rx="16" ry="16.02" transform="translate(-69.31 145.65) rotate(-75.17)"/><path class="cls-2" d="M73.74,119.93a11,11,0,1,0-13.16,8.37A11,11,0,0,0,73.74,119.93ZM62,116.1c-2.16,1.43-4.86,1.14-6.05-.64s-.42-4.39,1.74-5.82,4.86-1.14,6.05.64S64.11,114.67,62,116.1Zm6.3,9.28a2.29,2.29,0,1,1,1-3.37A2.51,2.51,0,0,1,68.26,125.38Z"/><ellipse class="cls-7" cx="126.53" cy="135.69" rx="16" ry="16.02" transform="matrix(0.26, -0.97, 0.97, 0.26, -37.04, 223.24)"/><path class="cls-2" d="M140.33,137.77a11,11,0,1,0-13.17,8.37A11,11,0,0,0,140.33,137.77Zm-11.48-4.42c-2.31,1.15-5,.53-5.92-1.39s.14-4.41,2.46-5.55,5-.53,5.92,1.39S131.17,132.2,128.85,133.35Zm6.82,9.67a2.28,2.28,0,1,1,1-3.36A2.5,2.5,0,0,1,135.67,143Z"/><path class="cls-2" d="M124.27,107.2c-1.39,2.47,2.58,5.83,7.49,8.45,4.4,2.35,8.47,5,10.86,2.11C147.54,111.77,128.45,99.76,124.27,107.2Z"/><path class="cls-2" d="M56.06,92.92c.19,3.76,5.06,4,10,4.75,5.51.81,10.7.47,11-2.34C78.16,86.86,55.67,85.18,56.06,92.92Z"/><path class="cls-16" d="M80,142.94c-2-4.34,2.65-10.2,12.33-7.61s10.12,10.39,6.85,12.75c-1.88,1.35-4.9-.38-9.82-1.7S81,145.1,80,142.94Z"/><path class="cls-7" d="M86,135.89c.22-.81,3-.77,6.26.09s5.69,2.22,5.47,3-2.79-.09-6-.95S85.75,136.7,86,135.89Z"/><path class="cls-17" d="M83.27,142.11a12.81,12.81,0,0,0,6.18,3.34,13.14,13.14,0,0,0,7.7.12C93,138.66,86.93,140.23,83.27,142.11Z"/></g></g></g></svg>